%TF.GenerationSoftware,KiCad,Pcbnew,(6.0.7)*%
%TF.CreationDate,2023-03-08T11:17:01-08:00*%
%TF.ProjectId,Relay_LED,52656c61-795f-44c4-9544-2e6b69636164,rev?*%
%TF.SameCoordinates,Original*%
%TF.FileFunction,Legend,Top*%
%TF.FilePolarity,Positive*%
%FSLAX46Y46*%
G04 Gerber Fmt 4.6, Leading zero omitted, Abs format (unit mm)*
G04 Created by KiCad (PCBNEW (6.0.7)) date 2023-03-08 11:17:01*
%MOMM*%
%LPD*%
G01*
G04 APERTURE LIST*
%ADD10C,0.150000*%
%ADD11C,0.300000*%
%ADD12C,0.250000*%
%ADD13C,0.200000*%
%ADD14C,0.100000*%
%ADD15C,0.120000*%
%ADD16C,0.127000*%
%ADD17C,0.340000*%
G04 APERTURE END LIST*
D10*
X96663095Y-124377380D02*
X96663095Y-123377380D01*
X97234523Y-124377380D02*
X96805952Y-123805952D01*
X97234523Y-123377380D02*
X96663095Y-123948809D01*
X88913095Y-124377380D02*
X88913095Y-123377380D01*
X89484523Y-124377380D02*
X89055952Y-123805952D01*
X89484523Y-123377380D02*
X88913095Y-123948809D01*
X108925000Y-64612500D02*
X109275000Y-64612500D01*
X109275000Y-64612500D02*
X109275000Y-64987500D01*
X109275000Y-64987500D02*
X108925000Y-64987500D01*
X108925000Y-64987500D02*
X108925000Y-64612500D01*
G36*
X108925000Y-64612500D02*
G01*
X109275000Y-64612500D01*
X109275000Y-64987500D01*
X108925000Y-64987500D01*
X108925000Y-64612500D01*
G37*
X94625000Y-69950000D02*
X94975000Y-69950000D01*
X94975000Y-69950000D02*
X94975000Y-70325000D01*
X94975000Y-70325000D02*
X94625000Y-70325000D01*
X94625000Y-70325000D02*
X94625000Y-69950000D01*
G36*
X94625000Y-69950000D02*
G01*
X94975000Y-69950000D01*
X94975000Y-70325000D01*
X94625000Y-70325000D01*
X94625000Y-69950000D01*
G37*
G36*
X115900000Y-76900000D02*
G01*
X114600000Y-74350000D01*
X117275000Y-74325000D01*
X115900000Y-76900000D01*
G37*
X115900000Y-76900000D02*
X114600000Y-74350000D01*
X117275000Y-74325000D01*
X115900000Y-76900000D01*
D11*
X91057142Y-105950000D02*
X91771428Y-105950000D01*
X90914285Y-106378571D02*
X91414285Y-104878571D01*
X91914285Y-106378571D01*
X92414285Y-106378571D02*
X92414285Y-104878571D01*
X93771428Y-104878571D02*
X93485714Y-104878571D01*
X93342857Y-104950000D01*
X93271428Y-105021428D01*
X93128571Y-105235714D01*
X93057142Y-105521428D01*
X93057142Y-106092857D01*
X93128571Y-106235714D01*
X93200000Y-106307142D01*
X93342857Y-106378571D01*
X93628571Y-106378571D01*
X93771428Y-106307142D01*
X93842857Y-106235714D01*
X93914285Y-106092857D01*
X93914285Y-105735714D01*
X93842857Y-105592857D01*
X93771428Y-105521428D01*
X93628571Y-105450000D01*
X93342857Y-105450000D01*
X93200000Y-105521428D01*
X93128571Y-105592857D01*
X93057142Y-105735714D01*
X94414285Y-104878571D02*
X95414285Y-106378571D01*
X95414285Y-104878571D02*
X94414285Y-106378571D01*
X96771428Y-104950000D02*
X96628571Y-104878571D01*
X96414285Y-104878571D01*
X96200000Y-104950000D01*
X96057142Y-105092857D01*
X95985714Y-105235714D01*
X95914285Y-105521428D01*
X95914285Y-105735714D01*
X95985714Y-106021428D01*
X96057142Y-106164285D01*
X96200000Y-106307142D01*
X96414285Y-106378571D01*
X96557142Y-106378571D01*
X96771428Y-106307142D01*
X96842857Y-106235714D01*
X96842857Y-105735714D01*
X96557142Y-105735714D01*
D12*
X98491666Y-106327380D02*
X98491666Y-105327380D01*
X98825000Y-106041666D01*
X99158333Y-105327380D01*
X99158333Y-106327380D01*
X100063095Y-106327380D02*
X100063095Y-105803571D01*
X100015476Y-105708333D01*
X99920238Y-105660714D01*
X99729761Y-105660714D01*
X99634523Y-105708333D01*
X100063095Y-106279761D02*
X99967857Y-106327380D01*
X99729761Y-106327380D01*
X99634523Y-106279761D01*
X99586904Y-106184523D01*
X99586904Y-106089285D01*
X99634523Y-105994047D01*
X99729761Y-105946428D01*
X99967857Y-105946428D01*
X100063095Y-105898809D01*
X100539285Y-106327380D02*
X100539285Y-105660714D01*
X100539285Y-105851190D02*
X100586904Y-105755952D01*
X100634523Y-105708333D01*
X100729761Y-105660714D01*
X100825000Y-105660714D01*
X101872619Y-105422619D02*
X101920238Y-105375000D01*
X102015476Y-105327380D01*
X102253571Y-105327380D01*
X102348809Y-105375000D01*
X102396428Y-105422619D01*
X102444047Y-105517857D01*
X102444047Y-105613095D01*
X102396428Y-105755952D01*
X101825000Y-106327380D01*
X102444047Y-106327380D01*
X103063095Y-105327380D02*
X103158333Y-105327380D01*
X103253571Y-105375000D01*
X103301190Y-105422619D01*
X103348809Y-105517857D01*
X103396428Y-105708333D01*
X103396428Y-105946428D01*
X103348809Y-106136904D01*
X103301190Y-106232142D01*
X103253571Y-106279761D01*
X103158333Y-106327380D01*
X103063095Y-106327380D01*
X102967857Y-106279761D01*
X102920238Y-106232142D01*
X102872619Y-106136904D01*
X102825000Y-105946428D01*
X102825000Y-105708333D01*
X102872619Y-105517857D01*
X102920238Y-105422619D01*
X102967857Y-105375000D01*
X103063095Y-105327380D01*
X103777380Y-105422619D02*
X103825000Y-105375000D01*
X103920238Y-105327380D01*
X104158333Y-105327380D01*
X104253571Y-105375000D01*
X104301190Y-105422619D01*
X104348809Y-105517857D01*
X104348809Y-105613095D01*
X104301190Y-105755952D01*
X103729761Y-106327380D01*
X104348809Y-106327380D01*
X104682142Y-105327380D02*
X105301190Y-105327380D01*
X104967857Y-105708333D01*
X105110714Y-105708333D01*
X105205952Y-105755952D01*
X105253571Y-105803571D01*
X105301190Y-105898809D01*
X105301190Y-106136904D01*
X105253571Y-106232142D01*
X105205952Y-106279761D01*
X105110714Y-106327380D01*
X104825000Y-106327380D01*
X104729761Y-106279761D01*
X104682142Y-106232142D01*
X106396428Y-105660714D02*
X106634523Y-106327380D01*
X106872619Y-105660714D01*
X107777380Y-106327380D02*
X107205952Y-106327380D01*
X107491666Y-106327380D02*
X107491666Y-105327380D01*
X107396428Y-105470238D01*
X107301190Y-105565476D01*
X107205952Y-105613095D01*
X108205952Y-106232142D02*
X108253571Y-106279761D01*
X108205952Y-106327380D01*
X108158333Y-106279761D01*
X108205952Y-106232142D01*
X108205952Y-106327380D01*
X108872619Y-105327380D02*
X108967857Y-105327380D01*
X109063095Y-105375000D01*
X109110714Y-105422619D01*
X109158333Y-105517857D01*
X109205952Y-105708333D01*
X109205952Y-105946428D01*
X109158333Y-106136904D01*
X109110714Y-106232142D01*
X109063095Y-106279761D01*
X108967857Y-106327380D01*
X108872619Y-106327380D01*
X108777380Y-106279761D01*
X108729761Y-106232142D01*
X108682142Y-106136904D01*
X108634523Y-105946428D01*
X108634523Y-105708333D01*
X108682142Y-105517857D01*
X108729761Y-105422619D01*
X108777380Y-105375000D01*
X108872619Y-105327380D01*
D10*
X105923809Y-74402380D02*
X105923809Y-73402380D01*
X106971428Y-74307142D02*
X106923809Y-74354761D01*
X106780952Y-74402380D01*
X106685714Y-74402380D01*
X106542857Y-74354761D01*
X106447619Y-74259523D01*
X106400000Y-74164285D01*
X106352380Y-73973809D01*
X106352380Y-73830952D01*
X106400000Y-73640476D01*
X106447619Y-73545238D01*
X106542857Y-73450000D01*
X106685714Y-73402380D01*
X106780952Y-73402380D01*
X106923809Y-73450000D01*
X106971428Y-73497619D01*
X107352380Y-74354761D02*
X107495238Y-74402380D01*
X107733333Y-74402380D01*
X107828571Y-74354761D01*
X107876190Y-74307142D01*
X107923809Y-74211904D01*
X107923809Y-74116666D01*
X107876190Y-74021428D01*
X107828571Y-73973809D01*
X107733333Y-73926190D01*
X107542857Y-73878571D01*
X107447619Y-73830952D01*
X107400000Y-73783333D01*
X107352380Y-73688095D01*
X107352380Y-73592857D01*
X107400000Y-73497619D01*
X107447619Y-73450000D01*
X107542857Y-73402380D01*
X107780952Y-73402380D01*
X107923809Y-73450000D01*
X108352380Y-74402380D02*
X108352380Y-73402380D01*
X108733333Y-73402380D01*
X108828571Y-73450000D01*
X108876190Y-73497619D01*
X108923809Y-73592857D01*
X108923809Y-73735714D01*
X108876190Y-73830952D01*
X108828571Y-73878571D01*
X108733333Y-73926190D01*
X108352380Y-73926190D01*
D13*
X99745238Y-68357142D02*
X99697619Y-68404761D01*
X99554761Y-68452380D01*
X99459523Y-68452380D01*
X99316666Y-68404761D01*
X99221428Y-68309523D01*
X99173809Y-68214285D01*
X99126190Y-68023809D01*
X99126190Y-67880952D01*
X99173809Y-67690476D01*
X99221428Y-67595238D01*
X99316666Y-67500000D01*
X99459523Y-67452380D01*
X99554761Y-67452380D01*
X99697619Y-67500000D01*
X99745238Y-67547619D01*
X100602380Y-68452380D02*
X100602380Y-67928571D01*
X100554761Y-67833333D01*
X100459523Y-67785714D01*
X100269047Y-67785714D01*
X100173809Y-67833333D01*
X100602380Y-68404761D02*
X100507142Y-68452380D01*
X100269047Y-68452380D01*
X100173809Y-68404761D01*
X100126190Y-68309523D01*
X100126190Y-68214285D01*
X100173809Y-68119047D01*
X100269047Y-68071428D01*
X100507142Y-68071428D01*
X100602380Y-68023809D01*
X101221428Y-68452380D02*
X101126190Y-68404761D01*
X101078571Y-68309523D01*
X101078571Y-67452380D01*
D11*
X82646428Y-102103571D02*
X83503571Y-102103571D01*
X83075000Y-103603571D02*
X83075000Y-102103571D01*
X84003571Y-103603571D02*
X84003571Y-102603571D01*
X84003571Y-102889285D02*
X84075000Y-102746428D01*
X84146428Y-102675000D01*
X84289285Y-102603571D01*
X84432142Y-102603571D01*
X84932142Y-103603571D02*
X84932142Y-102603571D01*
X84932142Y-102103571D02*
X84860714Y-102175000D01*
X84932142Y-102246428D01*
X85003571Y-102175000D01*
X84932142Y-102103571D01*
X84932142Y-102246428D01*
X86146428Y-102817857D02*
X86360714Y-102889285D01*
X86432142Y-102960714D01*
X86503571Y-103103571D01*
X86503571Y-103317857D01*
X86432142Y-103460714D01*
X86360714Y-103532142D01*
X86217857Y-103603571D01*
X85646428Y-103603571D01*
X85646428Y-102103571D01*
X86146428Y-102103571D01*
X86289285Y-102175000D01*
X86360714Y-102246428D01*
X86432142Y-102389285D01*
X86432142Y-102532142D01*
X86360714Y-102675000D01*
X86289285Y-102746428D01*
X86146428Y-102817857D01*
X85646428Y-102817857D01*
X87789285Y-103603571D02*
X87789285Y-102817857D01*
X87717857Y-102675000D01*
X87575000Y-102603571D01*
X87289285Y-102603571D01*
X87146428Y-102675000D01*
X87789285Y-103532142D02*
X87646428Y-103603571D01*
X87289285Y-103603571D01*
X87146428Y-103532142D01*
X87075000Y-103389285D01*
X87075000Y-103246428D01*
X87146428Y-103103571D01*
X87289285Y-103032142D01*
X87646428Y-103032142D01*
X87789285Y-102960714D01*
X88503571Y-102603571D02*
X88503571Y-103603571D01*
X88503571Y-102746428D02*
X88575000Y-102675000D01*
X88717857Y-102603571D01*
X88932142Y-102603571D01*
X89075000Y-102675000D01*
X89146428Y-102817857D01*
X89146428Y-103603571D01*
X90503571Y-103603571D02*
X90503571Y-102103571D01*
X90503571Y-103532142D02*
X90360714Y-103603571D01*
X90075000Y-103603571D01*
X89932142Y-103532142D01*
X89860714Y-103460714D01*
X89789285Y-103317857D01*
X89789285Y-102889285D01*
X89860714Y-102746428D01*
X89932142Y-102675000D01*
X90075000Y-102603571D01*
X90360714Y-102603571D01*
X90503571Y-102675000D01*
X91789285Y-103532142D02*
X91646428Y-103603571D01*
X91360714Y-103603571D01*
X91217857Y-103532142D01*
X91146428Y-103389285D01*
X91146428Y-102817857D01*
X91217857Y-102675000D01*
X91360714Y-102603571D01*
X91646428Y-102603571D01*
X91789285Y-102675000D01*
X91860714Y-102817857D01*
X91860714Y-102960714D01*
X91146428Y-103103571D01*
X92503571Y-103603571D02*
X92503571Y-102603571D01*
X92503571Y-102889285D02*
X92575000Y-102746428D01*
X92646428Y-102675000D01*
X92789285Y-102603571D01*
X92932142Y-102603571D01*
X95289285Y-103603571D02*
X94575000Y-103603571D01*
X94575000Y-102103571D01*
X96432142Y-103603571D02*
X96432142Y-102817857D01*
X96360714Y-102675000D01*
X96217857Y-102603571D01*
X95932142Y-102603571D01*
X95789285Y-102675000D01*
X96432142Y-103532142D02*
X96289285Y-103603571D01*
X95932142Y-103603571D01*
X95789285Y-103532142D01*
X95717857Y-103389285D01*
X95717857Y-103246428D01*
X95789285Y-103103571D01*
X95932142Y-103032142D01*
X96289285Y-103032142D01*
X96432142Y-102960714D01*
X96932142Y-102603571D02*
X97503571Y-102603571D01*
X97146428Y-102103571D02*
X97146428Y-103389285D01*
X97217857Y-103532142D01*
X97360714Y-103603571D01*
X97503571Y-103603571D01*
X98646428Y-103532142D02*
X98503571Y-103603571D01*
X98217857Y-103603571D01*
X98075000Y-103532142D01*
X98003571Y-103460714D01*
X97932142Y-103317857D01*
X97932142Y-102889285D01*
X98003571Y-102746428D01*
X98075000Y-102675000D01*
X98217857Y-102603571D01*
X98503571Y-102603571D01*
X98646428Y-102675000D01*
X99289285Y-103603571D02*
X99289285Y-102103571D01*
X99932142Y-103603571D02*
X99932142Y-102817857D01*
X99860714Y-102675000D01*
X99717857Y-102603571D01*
X99503571Y-102603571D01*
X99360714Y-102675000D01*
X99289285Y-102746428D01*
X100646428Y-103603571D02*
X100646428Y-102603571D01*
X100646428Y-102103571D02*
X100575000Y-102175000D01*
X100646428Y-102246428D01*
X100717857Y-102175000D01*
X100646428Y-102103571D01*
X100646428Y-102246428D01*
X101360714Y-102603571D02*
X101360714Y-103603571D01*
X101360714Y-102746428D02*
X101432142Y-102675000D01*
X101575000Y-102603571D01*
X101789285Y-102603571D01*
X101932142Y-102675000D01*
X102003571Y-102817857D01*
X102003571Y-103603571D01*
X103360714Y-102603571D02*
X103360714Y-103817857D01*
X103289285Y-103960714D01*
X103217857Y-104032142D01*
X103075000Y-104103571D01*
X102860714Y-104103571D01*
X102717857Y-104032142D01*
X103360714Y-103532142D02*
X103217857Y-103603571D01*
X102932142Y-103603571D01*
X102789285Y-103532142D01*
X102717857Y-103460714D01*
X102646428Y-103317857D01*
X102646428Y-102889285D01*
X102717857Y-102746428D01*
X102789285Y-102675000D01*
X102932142Y-102603571D01*
X103217857Y-102603571D01*
X103360714Y-102675000D01*
X106075000Y-103603571D02*
X105575000Y-102889285D01*
X105217857Y-103603571D02*
X105217857Y-102103571D01*
X105789285Y-102103571D01*
X105932142Y-102175000D01*
X106003571Y-102246428D01*
X106075000Y-102389285D01*
X106075000Y-102603571D01*
X106003571Y-102746428D01*
X105932142Y-102817857D01*
X105789285Y-102889285D01*
X105217857Y-102889285D01*
X107289285Y-103532142D02*
X107146428Y-103603571D01*
X106860714Y-103603571D01*
X106717857Y-103532142D01*
X106646428Y-103389285D01*
X106646428Y-102817857D01*
X106717857Y-102675000D01*
X106860714Y-102603571D01*
X107146428Y-102603571D01*
X107289285Y-102675000D01*
X107360714Y-102817857D01*
X107360714Y-102960714D01*
X106646428Y-103103571D01*
X108217857Y-103603571D02*
X108075000Y-103532142D01*
X108003571Y-103389285D01*
X108003571Y-102103571D01*
X109432142Y-103603571D02*
X109432142Y-102817857D01*
X109360714Y-102675000D01*
X109217857Y-102603571D01*
X108932142Y-102603571D01*
X108789285Y-102675000D01*
X109432142Y-103532142D02*
X109289285Y-103603571D01*
X108932142Y-103603571D01*
X108789285Y-103532142D01*
X108717857Y-103389285D01*
X108717857Y-103246428D01*
X108789285Y-103103571D01*
X108932142Y-103032142D01*
X109289285Y-103032142D01*
X109432142Y-102960714D01*
X110003571Y-102603571D02*
X110360714Y-103603571D01*
X110717857Y-102603571D02*
X110360714Y-103603571D01*
X110217857Y-103960714D01*
X110146428Y-104032142D01*
X110003571Y-104103571D01*
X111217857Y-103532142D02*
X111360714Y-103603571D01*
X111646428Y-103603571D01*
X111789285Y-103532142D01*
X111860714Y-103389285D01*
X111860714Y-103317857D01*
X111789285Y-103175000D01*
X111646428Y-103103571D01*
X111432142Y-103103571D01*
X111289285Y-103032142D01*
X111217857Y-102889285D01*
X111217857Y-102817857D01*
X111289285Y-102675000D01*
X111432142Y-102603571D01*
X111646428Y-102603571D01*
X111789285Y-102675000D01*
D10*
%TO.C,S1*%
X61413095Y-123229761D02*
X61555952Y-123277380D01*
X61794047Y-123277380D01*
X61889285Y-123229761D01*
X61936904Y-123182142D01*
X61984523Y-123086904D01*
X61984523Y-122991666D01*
X61936904Y-122896428D01*
X61889285Y-122848809D01*
X61794047Y-122801190D01*
X61603571Y-122753571D01*
X61508333Y-122705952D01*
X61460714Y-122658333D01*
X61413095Y-122563095D01*
X61413095Y-122467857D01*
X61460714Y-122372619D01*
X61508333Y-122325000D01*
X61603571Y-122277380D01*
X61841666Y-122277380D01*
X61984523Y-122325000D01*
X62936904Y-123277380D02*
X62365476Y-123277380D01*
X62651190Y-123277380D02*
X62651190Y-122277380D01*
X62555952Y-122420238D01*
X62460714Y-122515476D01*
X62365476Y-122563095D01*
%TO.C,U1*%
X90038095Y-79452380D02*
X90038095Y-80261904D01*
X90085714Y-80357142D01*
X90133333Y-80404761D01*
X90228571Y-80452380D01*
X90419047Y-80452380D01*
X90514285Y-80404761D01*
X90561904Y-80357142D01*
X90609523Y-80261904D01*
X90609523Y-79452380D01*
X91609523Y-80452380D02*
X91038095Y-80452380D01*
X91323809Y-80452380D02*
X91323809Y-79452380D01*
X91228571Y-79595238D01*
X91133333Y-79690476D01*
X91038095Y-79738095D01*
%TO.C,R3*%
X73127380Y-105841666D02*
X72651190Y-106175000D01*
X73127380Y-106413095D02*
X72127380Y-106413095D01*
X72127380Y-106032142D01*
X72175000Y-105936904D01*
X72222619Y-105889285D01*
X72317857Y-105841666D01*
X72460714Y-105841666D01*
X72555952Y-105889285D01*
X72603571Y-105936904D01*
X72651190Y-106032142D01*
X72651190Y-106413095D01*
X72127380Y-105508333D02*
X72127380Y-104889285D01*
X72508333Y-105222619D01*
X72508333Y-105079761D01*
X72555952Y-104984523D01*
X72603571Y-104936904D01*
X72698809Y-104889285D01*
X72936904Y-104889285D01*
X73032142Y-104936904D01*
X73079761Y-104984523D01*
X73127380Y-105079761D01*
X73127380Y-105365476D01*
X73079761Y-105460714D01*
X73032142Y-105508333D01*
%TO.C,R9*%
X63283333Y-105877380D02*
X62950000Y-105401190D01*
X62711904Y-105877380D02*
X62711904Y-104877380D01*
X63092857Y-104877380D01*
X63188095Y-104925000D01*
X63235714Y-104972619D01*
X63283333Y-105067857D01*
X63283333Y-105210714D01*
X63235714Y-105305952D01*
X63188095Y-105353571D01*
X63092857Y-105401190D01*
X62711904Y-105401190D01*
X63759523Y-105877380D02*
X63950000Y-105877380D01*
X64045238Y-105829761D01*
X64092857Y-105782142D01*
X64188095Y-105639285D01*
X64235714Y-105448809D01*
X64235714Y-105067857D01*
X64188095Y-104972619D01*
X64140476Y-104925000D01*
X64045238Y-104877380D01*
X63854761Y-104877380D01*
X63759523Y-104925000D01*
X63711904Y-104972619D01*
X63664285Y-105067857D01*
X63664285Y-105305952D01*
X63711904Y-105401190D01*
X63759523Y-105448809D01*
X63854761Y-105496428D01*
X64045238Y-105496428D01*
X64140476Y-105448809D01*
X64188095Y-105401190D01*
X64235714Y-105305952D01*
%TO.C,CON1*%
X111748221Y-93475523D02*
X111681484Y-93542259D01*
X111481275Y-93608996D01*
X111347802Y-93608996D01*
X111147593Y-93542259D01*
X111014120Y-93408786D01*
X110947383Y-93275313D01*
X110880647Y-93008368D01*
X110880647Y-92808158D01*
X110947383Y-92541213D01*
X111014120Y-92407740D01*
X111147593Y-92274267D01*
X111347802Y-92207531D01*
X111481275Y-92207531D01*
X111681484Y-92274267D01*
X111748221Y-92341003D01*
X112615794Y-92207531D02*
X112882740Y-92207531D01*
X113016213Y-92274267D01*
X113149686Y-92407740D01*
X113216422Y-92674686D01*
X113216422Y-93141841D01*
X113149686Y-93408786D01*
X113016213Y-93542259D01*
X112882740Y-93608996D01*
X112615794Y-93608996D01*
X112482321Y-93542259D01*
X112348848Y-93408786D01*
X112282112Y-93141841D01*
X112282112Y-92674686D01*
X112348848Y-92407740D01*
X112482321Y-92274267D01*
X112615794Y-92207531D01*
X113817050Y-93608996D02*
X113817050Y-92207531D01*
X114617887Y-93608996D01*
X114617887Y-92207531D01*
X116019352Y-93608996D02*
X115218515Y-93608996D01*
X115618933Y-93608996D02*
X115618933Y-92207531D01*
X115485461Y-92407740D01*
X115351988Y-92541213D01*
X115218515Y-92607949D01*
%TO.C,J7*%
X51752380Y-87383333D02*
X52466666Y-87383333D01*
X52609523Y-87430952D01*
X52704761Y-87526190D01*
X52752380Y-87669047D01*
X52752380Y-87764285D01*
X51752380Y-87002380D02*
X51752380Y-86335714D01*
X52752380Y-86764285D01*
%TO.C,C5*%
X101433333Y-59582142D02*
X101385714Y-59629761D01*
X101242857Y-59677380D01*
X101147619Y-59677380D01*
X101004761Y-59629761D01*
X100909523Y-59534523D01*
X100861904Y-59439285D01*
X100814285Y-59248809D01*
X100814285Y-59105952D01*
X100861904Y-58915476D01*
X100909523Y-58820238D01*
X101004761Y-58725000D01*
X101147619Y-58677380D01*
X101242857Y-58677380D01*
X101385714Y-58725000D01*
X101433333Y-58772619D01*
X102338095Y-58677380D02*
X101861904Y-58677380D01*
X101814285Y-59153571D01*
X101861904Y-59105952D01*
X101957142Y-59058333D01*
X102195238Y-59058333D01*
X102290476Y-59105952D01*
X102338095Y-59153571D01*
X102385714Y-59248809D01*
X102385714Y-59486904D01*
X102338095Y-59582142D01*
X102290476Y-59629761D01*
X102195238Y-59677380D01*
X101957142Y-59677380D01*
X101861904Y-59629761D01*
X101814285Y-59582142D01*
%TO.C,J13*%
X85127380Y-54959523D02*
X85841666Y-54959523D01*
X85984523Y-55007142D01*
X86079761Y-55102380D01*
X86127380Y-55245238D01*
X86127380Y-55340476D01*
X86127380Y-53959523D02*
X86127380Y-54530952D01*
X86127380Y-54245238D02*
X85127380Y-54245238D01*
X85270238Y-54340476D01*
X85365476Y-54435714D01*
X85413095Y-54530952D01*
X85127380Y-53626190D02*
X85127380Y-53007142D01*
X85508333Y-53340476D01*
X85508333Y-53197619D01*
X85555952Y-53102380D01*
X85603571Y-53054761D01*
X85698809Y-53007142D01*
X85936904Y-53007142D01*
X86032142Y-53054761D01*
X86079761Y-53102380D01*
X86127380Y-53197619D01*
X86127380Y-53483333D01*
X86079761Y-53578571D01*
X86032142Y-53626190D01*
%TO.C,J1*%
X74877380Y-135683333D02*
X75591666Y-135683333D01*
X75734523Y-135730952D01*
X75829761Y-135826190D01*
X75877380Y-135969047D01*
X75877380Y-136064285D01*
X75877380Y-134683333D02*
X75877380Y-135254761D01*
X75877380Y-134969047D02*
X74877380Y-134969047D01*
X75020238Y-135064285D01*
X75115476Y-135159523D01*
X75163095Y-135254761D01*
%TO.C,R10*%
X57857142Y-64877380D02*
X57523809Y-64401190D01*
X57285714Y-64877380D02*
X57285714Y-63877380D01*
X57666666Y-63877380D01*
X57761904Y-63925000D01*
X57809523Y-63972619D01*
X57857142Y-64067857D01*
X57857142Y-64210714D01*
X57809523Y-64305952D01*
X57761904Y-64353571D01*
X57666666Y-64401190D01*
X57285714Y-64401190D01*
X58809523Y-64877380D02*
X58238095Y-64877380D01*
X58523809Y-64877380D02*
X58523809Y-63877380D01*
X58428571Y-64020238D01*
X58333333Y-64115476D01*
X58238095Y-64163095D01*
X59428571Y-63877380D02*
X59523809Y-63877380D01*
X59619047Y-63925000D01*
X59666666Y-63972619D01*
X59714285Y-64067857D01*
X59761904Y-64258333D01*
X59761904Y-64496428D01*
X59714285Y-64686904D01*
X59666666Y-64782142D01*
X59619047Y-64829761D01*
X59523809Y-64877380D01*
X59428571Y-64877380D01*
X59333333Y-64829761D01*
X59285714Y-64782142D01*
X59238095Y-64686904D01*
X59190476Y-64496428D01*
X59190476Y-64258333D01*
X59238095Y-64067857D01*
X59285714Y-63972619D01*
X59333333Y-63925000D01*
X59428571Y-63877380D01*
%TO.C,RY2*%
X65079761Y-90427380D02*
X64746428Y-89951190D01*
X64508333Y-90427380D02*
X64508333Y-89427380D01*
X64889285Y-89427380D01*
X64984523Y-89475000D01*
X65032142Y-89522619D01*
X65079761Y-89617857D01*
X65079761Y-89760714D01*
X65032142Y-89855952D01*
X64984523Y-89903571D01*
X64889285Y-89951190D01*
X64508333Y-89951190D01*
X65698809Y-89951190D02*
X65698809Y-90427380D01*
X65365476Y-89427380D02*
X65698809Y-89951190D01*
X66032142Y-89427380D01*
X66317857Y-89522619D02*
X66365476Y-89475000D01*
X66460714Y-89427380D01*
X66698809Y-89427380D01*
X66794047Y-89475000D01*
X66841666Y-89522619D01*
X66889285Y-89617857D01*
X66889285Y-89713095D01*
X66841666Y-89855952D01*
X66270238Y-90427380D01*
X66889285Y-90427380D01*
%TO.C,J2*%
X112341666Y-73402380D02*
X112341666Y-74116666D01*
X112294047Y-74259523D01*
X112198809Y-74354761D01*
X112055952Y-74402380D01*
X111960714Y-74402380D01*
X112770238Y-73497619D02*
X112817857Y-73450000D01*
X112913095Y-73402380D01*
X113151190Y-73402380D01*
X113246428Y-73450000D01*
X113294047Y-73497619D01*
X113341666Y-73592857D01*
X113341666Y-73688095D01*
X113294047Y-73830952D01*
X112722619Y-74402380D01*
X113341666Y-74402380D01*
%TO.C,R8*%
X87382380Y-86216666D02*
X86906190Y-86550000D01*
X87382380Y-86788095D02*
X86382380Y-86788095D01*
X86382380Y-86407142D01*
X86430000Y-86311904D01*
X86477619Y-86264285D01*
X86572857Y-86216666D01*
X86715714Y-86216666D01*
X86810952Y-86264285D01*
X86858571Y-86311904D01*
X86906190Y-86407142D01*
X86906190Y-86788095D01*
X86810952Y-85645238D02*
X86763333Y-85740476D01*
X86715714Y-85788095D01*
X86620476Y-85835714D01*
X86572857Y-85835714D01*
X86477619Y-85788095D01*
X86430000Y-85740476D01*
X86382380Y-85645238D01*
X86382380Y-85454761D01*
X86430000Y-85359523D01*
X86477619Y-85311904D01*
X86572857Y-85264285D01*
X86620476Y-85264285D01*
X86715714Y-85311904D01*
X86763333Y-85359523D01*
X86810952Y-85454761D01*
X86810952Y-85645238D01*
X86858571Y-85740476D01*
X86906190Y-85788095D01*
X87001428Y-85835714D01*
X87191904Y-85835714D01*
X87287142Y-85788095D01*
X87334761Y-85740476D01*
X87382380Y-85645238D01*
X87382380Y-85454761D01*
X87334761Y-85359523D01*
X87287142Y-85311904D01*
X87191904Y-85264285D01*
X87001428Y-85264285D01*
X86906190Y-85311904D01*
X86858571Y-85359523D01*
X86810952Y-85454761D01*
%TO.C,J12*%
X51652380Y-80359523D02*
X52366666Y-80359523D01*
X52509523Y-80407142D01*
X52604761Y-80502380D01*
X52652380Y-80645238D01*
X52652380Y-80740476D01*
X52652380Y-79359523D02*
X52652380Y-79930952D01*
X52652380Y-79645238D02*
X51652380Y-79645238D01*
X51795238Y-79740476D01*
X51890476Y-79835714D01*
X51938095Y-79930952D01*
X51747619Y-78978571D02*
X51700000Y-78930952D01*
X51652380Y-78835714D01*
X51652380Y-78597619D01*
X51700000Y-78502380D01*
X51747619Y-78454761D01*
X51842857Y-78407142D01*
X51938095Y-78407142D01*
X52080952Y-78454761D01*
X52652380Y-79026190D01*
X52652380Y-78407142D01*
%TO.C,J8*%
X85027380Y-61983333D02*
X85741666Y-61983333D01*
X85884523Y-62030952D01*
X85979761Y-62126190D01*
X86027380Y-62269047D01*
X86027380Y-62364285D01*
X85455952Y-61364285D02*
X85408333Y-61459523D01*
X85360714Y-61507142D01*
X85265476Y-61554761D01*
X85217857Y-61554761D01*
X85122619Y-61507142D01*
X85075000Y-61459523D01*
X85027380Y-61364285D01*
X85027380Y-61173809D01*
X85075000Y-61078571D01*
X85122619Y-61030952D01*
X85217857Y-60983333D01*
X85265476Y-60983333D01*
X85360714Y-61030952D01*
X85408333Y-61078571D01*
X85455952Y-61173809D01*
X85455952Y-61364285D01*
X85503571Y-61459523D01*
X85551190Y-61507142D01*
X85646428Y-61554761D01*
X85836904Y-61554761D01*
X85932142Y-61507142D01*
X85979761Y-61459523D01*
X86027380Y-61364285D01*
X86027380Y-61173809D01*
X85979761Y-61078571D01*
X85932142Y-61030952D01*
X85836904Y-60983333D01*
X85646428Y-60983333D01*
X85551190Y-61030952D01*
X85503571Y-61078571D01*
X85455952Y-61173809D01*
%TO.C,R13*%
X84472380Y-72852857D02*
X83996190Y-73186190D01*
X84472380Y-73424285D02*
X83472380Y-73424285D01*
X83472380Y-73043333D01*
X83520000Y-72948095D01*
X83567619Y-72900476D01*
X83662857Y-72852857D01*
X83805714Y-72852857D01*
X83900952Y-72900476D01*
X83948571Y-72948095D01*
X83996190Y-73043333D01*
X83996190Y-73424285D01*
X84472380Y-71900476D02*
X84472380Y-72471904D01*
X84472380Y-72186190D02*
X83472380Y-72186190D01*
X83615238Y-72281428D01*
X83710476Y-72376666D01*
X83758095Y-72471904D01*
X83472380Y-71567142D02*
X83472380Y-70948095D01*
X83853333Y-71281428D01*
X83853333Y-71138571D01*
X83900952Y-71043333D01*
X83948571Y-70995714D01*
X84043809Y-70948095D01*
X84281904Y-70948095D01*
X84377142Y-70995714D01*
X84424761Y-71043333D01*
X84472380Y-71138571D01*
X84472380Y-71424285D01*
X84424761Y-71519523D01*
X84377142Y-71567142D01*
%TO.C,R4*%
X53477380Y-109591666D02*
X53001190Y-109925000D01*
X53477380Y-110163095D02*
X52477380Y-110163095D01*
X52477380Y-109782142D01*
X52525000Y-109686904D01*
X52572619Y-109639285D01*
X52667857Y-109591666D01*
X52810714Y-109591666D01*
X52905952Y-109639285D01*
X52953571Y-109686904D01*
X53001190Y-109782142D01*
X53001190Y-110163095D01*
X52810714Y-108734523D02*
X53477380Y-108734523D01*
X52429761Y-108972619D02*
X53144047Y-109210714D01*
X53144047Y-108591666D01*
%TO.C,J5*%
X97091666Y-65877380D02*
X97091666Y-66591666D01*
X97044047Y-66734523D01*
X96948809Y-66829761D01*
X96805952Y-66877380D01*
X96710714Y-66877380D01*
X98044047Y-65877380D02*
X97567857Y-65877380D01*
X97520238Y-66353571D01*
X97567857Y-66305952D01*
X97663095Y-66258333D01*
X97901190Y-66258333D01*
X97996428Y-66305952D01*
X98044047Y-66353571D01*
X98091666Y-66448809D01*
X98091666Y-66686904D01*
X98044047Y-66782142D01*
X97996428Y-66829761D01*
X97901190Y-66877380D01*
X97663095Y-66877380D01*
X97567857Y-66829761D01*
X97520238Y-66782142D01*
%TO.C,Q2*%
X61129761Y-113547619D02*
X61034523Y-113500000D01*
X60939285Y-113404761D01*
X60796428Y-113261904D01*
X60701190Y-113214285D01*
X60605952Y-113214285D01*
X60653571Y-113452380D02*
X60558333Y-113404761D01*
X60463095Y-113309523D01*
X60415476Y-113119047D01*
X60415476Y-112785714D01*
X60463095Y-112595238D01*
X60558333Y-112500000D01*
X60653571Y-112452380D01*
X60844047Y-112452380D01*
X60939285Y-112500000D01*
X61034523Y-112595238D01*
X61082142Y-112785714D01*
X61082142Y-113119047D01*
X61034523Y-113309523D01*
X60939285Y-113404761D01*
X60844047Y-113452380D01*
X60653571Y-113452380D01*
X61463095Y-112547619D02*
X61510714Y-112500000D01*
X61605952Y-112452380D01*
X61844047Y-112452380D01*
X61939285Y-112500000D01*
X61986904Y-112547619D01*
X62034523Y-112642857D01*
X62034523Y-112738095D01*
X61986904Y-112880952D01*
X61415476Y-113452380D01*
X62034523Y-113452380D01*
%TO.C,C3*%
X112590713Y-63982142D02*
X112543094Y-64029761D01*
X112400237Y-64077380D01*
X112304999Y-64077380D01*
X112162141Y-64029761D01*
X112066903Y-63934523D01*
X112019284Y-63839285D01*
X111971665Y-63648809D01*
X111971665Y-63505952D01*
X112019284Y-63315476D01*
X112066903Y-63220238D01*
X112162141Y-63125000D01*
X112304999Y-63077380D01*
X112400237Y-63077380D01*
X112543094Y-63125000D01*
X112590713Y-63172619D01*
X112924046Y-63077380D02*
X113543094Y-63077380D01*
X113209760Y-63458333D01*
X113352618Y-63458333D01*
X113447856Y-63505952D01*
X113495475Y-63553571D01*
X113543094Y-63648809D01*
X113543094Y-63886904D01*
X113495475Y-63982142D01*
X113447856Y-64029761D01*
X113352618Y-64077380D01*
X113066903Y-64077380D01*
X112971665Y-64029761D01*
X112924046Y-63982142D01*
%TO.C,J9*%
X84852380Y-87608333D02*
X85566666Y-87608333D01*
X85709523Y-87655952D01*
X85804761Y-87751190D01*
X85852380Y-87894047D01*
X85852380Y-87989285D01*
X85852380Y-87084523D02*
X85852380Y-86894047D01*
X85804761Y-86798809D01*
X85757142Y-86751190D01*
X85614285Y-86655952D01*
X85423809Y-86608333D01*
X85042857Y-86608333D01*
X84947619Y-86655952D01*
X84900000Y-86703571D01*
X84852380Y-86798809D01*
X84852380Y-86989285D01*
X84900000Y-87084523D01*
X84947619Y-87132142D01*
X85042857Y-87179761D01*
X85280952Y-87179761D01*
X85376190Y-87132142D01*
X85423809Y-87084523D01*
X85471428Y-86989285D01*
X85471428Y-86798809D01*
X85423809Y-86703571D01*
X85376190Y-86655952D01*
X85280952Y-86608333D01*
%TO.C,J4*%
X52616666Y-92447380D02*
X52616666Y-93161666D01*
X52569047Y-93304523D01*
X52473809Y-93399761D01*
X52330952Y-93447380D01*
X52235714Y-93447380D01*
X53521428Y-92780714D02*
X53521428Y-93447380D01*
X53283333Y-92399761D02*
X53045238Y-93114047D01*
X53664285Y-93114047D01*
%TO.C,C2*%
X62407142Y-134341666D02*
X62454761Y-134389285D01*
X62502380Y-134532142D01*
X62502380Y-134627380D01*
X62454761Y-134770238D01*
X62359523Y-134865476D01*
X62264285Y-134913095D01*
X62073809Y-134960714D01*
X61930952Y-134960714D01*
X61740476Y-134913095D01*
X61645238Y-134865476D01*
X61550000Y-134770238D01*
X61502380Y-134627380D01*
X61502380Y-134532142D01*
X61550000Y-134389285D01*
X61597619Y-134341666D01*
X61597619Y-133960714D02*
X61550000Y-133913095D01*
X61502380Y-133817857D01*
X61502380Y-133579761D01*
X61550000Y-133484523D01*
X61597619Y-133436904D01*
X61692857Y-133389285D01*
X61788095Y-133389285D01*
X61930952Y-133436904D01*
X62502380Y-134008333D01*
X62502380Y-133389285D01*
%TO.C,R11*%
X67102380Y-72992857D02*
X66626190Y-73326190D01*
X67102380Y-73564285D02*
X66102380Y-73564285D01*
X66102380Y-73183333D01*
X66150000Y-73088095D01*
X66197619Y-73040476D01*
X66292857Y-72992857D01*
X66435714Y-72992857D01*
X66530952Y-73040476D01*
X66578571Y-73088095D01*
X66626190Y-73183333D01*
X66626190Y-73564285D01*
X67102380Y-72040476D02*
X67102380Y-72611904D01*
X67102380Y-72326190D02*
X66102380Y-72326190D01*
X66245238Y-72421428D01*
X66340476Y-72516666D01*
X66388095Y-72611904D01*
X67102380Y-71088095D02*
X67102380Y-71659523D01*
X67102380Y-71373809D02*
X66102380Y-71373809D01*
X66245238Y-71469047D01*
X66340476Y-71564285D01*
X66388095Y-71659523D01*
%TO.C,R7*%
X52952380Y-122641666D02*
X52476190Y-122975000D01*
X52952380Y-123213095D02*
X51952380Y-123213095D01*
X51952380Y-122832142D01*
X52000000Y-122736904D01*
X52047619Y-122689285D01*
X52142857Y-122641666D01*
X52285714Y-122641666D01*
X52380952Y-122689285D01*
X52428571Y-122736904D01*
X52476190Y-122832142D01*
X52476190Y-123213095D01*
X51952380Y-122308333D02*
X51952380Y-121641666D01*
X52952380Y-122070238D01*
%TO.C,DSP1*%
X116852380Y-118064285D02*
X115852380Y-118064285D01*
X115852380Y-117826190D01*
X115900000Y-117683333D01*
X115995238Y-117588095D01*
X116090476Y-117540476D01*
X116280952Y-117492857D01*
X116423809Y-117492857D01*
X116614285Y-117540476D01*
X116709523Y-117588095D01*
X116804761Y-117683333D01*
X116852380Y-117826190D01*
X116852380Y-118064285D01*
X116804761Y-117111904D02*
X116852380Y-116969047D01*
X116852380Y-116730952D01*
X116804761Y-116635714D01*
X116757142Y-116588095D01*
X116661904Y-116540476D01*
X116566666Y-116540476D01*
X116471428Y-116588095D01*
X116423809Y-116635714D01*
X116376190Y-116730952D01*
X116328571Y-116921428D01*
X116280952Y-117016666D01*
X116233333Y-117064285D01*
X116138095Y-117111904D01*
X116042857Y-117111904D01*
X115947619Y-117064285D01*
X115900000Y-117016666D01*
X115852380Y-116921428D01*
X115852380Y-116683333D01*
X115900000Y-116540476D01*
X116852380Y-116111904D02*
X115852380Y-116111904D01*
X115852380Y-115730952D01*
X115900000Y-115635714D01*
X115947619Y-115588095D01*
X116042857Y-115540476D01*
X116185714Y-115540476D01*
X116280952Y-115588095D01*
X116328571Y-115635714D01*
X116376190Y-115730952D01*
X116376190Y-116111904D01*
X116852380Y-114588095D02*
X116852380Y-115159523D01*
X116852380Y-114873809D02*
X115852380Y-114873809D01*
X115995238Y-114969047D01*
X116090476Y-115064285D01*
X116138095Y-115159523D01*
%TO.C,Q5*%
X72904761Y-76072619D02*
X72809523Y-76025000D01*
X72714285Y-75929761D01*
X72571428Y-75786904D01*
X72476190Y-75739285D01*
X72380952Y-75739285D01*
X72428571Y-75977380D02*
X72333333Y-75929761D01*
X72238095Y-75834523D01*
X72190476Y-75644047D01*
X72190476Y-75310714D01*
X72238095Y-75120238D01*
X72333333Y-75025000D01*
X72428571Y-74977380D01*
X72619047Y-74977380D01*
X72714285Y-75025000D01*
X72809523Y-75120238D01*
X72857142Y-75310714D01*
X72857142Y-75644047D01*
X72809523Y-75834523D01*
X72714285Y-75929761D01*
X72619047Y-75977380D01*
X72428571Y-75977380D01*
X73761904Y-74977380D02*
X73285714Y-74977380D01*
X73238095Y-75453571D01*
X73285714Y-75405952D01*
X73380952Y-75358333D01*
X73619047Y-75358333D01*
X73714285Y-75405952D01*
X73761904Y-75453571D01*
X73809523Y-75548809D01*
X73809523Y-75786904D01*
X73761904Y-75882142D01*
X73714285Y-75929761D01*
X73619047Y-75977380D01*
X73380952Y-75977380D01*
X73285714Y-75929761D01*
X73238095Y-75882142D01*
%TO.C,SW2*%
X79779761Y-128433333D02*
X79827380Y-128290476D01*
X79827380Y-128052380D01*
X79779761Y-127957142D01*
X79732142Y-127909523D01*
X79636904Y-127861904D01*
X79541666Y-127861904D01*
X79446428Y-127909523D01*
X79398809Y-127957142D01*
X79351190Y-128052380D01*
X79303571Y-128242857D01*
X79255952Y-128338095D01*
X79208333Y-128385714D01*
X79113095Y-128433333D01*
X79017857Y-128433333D01*
X78922619Y-128385714D01*
X78875000Y-128338095D01*
X78827380Y-128242857D01*
X78827380Y-128004761D01*
X78875000Y-127861904D01*
X78827380Y-127528571D02*
X79827380Y-127290476D01*
X79113095Y-127100000D01*
X79827380Y-126909523D01*
X78827380Y-126671428D01*
X78922619Y-126338095D02*
X78875000Y-126290476D01*
X78827380Y-126195238D01*
X78827380Y-125957142D01*
X78875000Y-125861904D01*
X78922619Y-125814285D01*
X79017857Y-125766666D01*
X79113095Y-125766666D01*
X79255952Y-125814285D01*
X79827380Y-126385714D01*
X79827380Y-125766666D01*
%TO.C,R12*%
X73032142Y-64927380D02*
X72698809Y-64451190D01*
X72460714Y-64927380D02*
X72460714Y-63927380D01*
X72841666Y-63927380D01*
X72936904Y-63975000D01*
X72984523Y-64022619D01*
X73032142Y-64117857D01*
X73032142Y-64260714D01*
X72984523Y-64355952D01*
X72936904Y-64403571D01*
X72841666Y-64451190D01*
X72460714Y-64451190D01*
X73984523Y-64927380D02*
X73413095Y-64927380D01*
X73698809Y-64927380D02*
X73698809Y-63927380D01*
X73603571Y-64070238D01*
X73508333Y-64165476D01*
X73413095Y-64213095D01*
X74365476Y-64022619D02*
X74413095Y-63975000D01*
X74508333Y-63927380D01*
X74746428Y-63927380D01*
X74841666Y-63975000D01*
X74889285Y-64022619D01*
X74936904Y-64117857D01*
X74936904Y-64213095D01*
X74889285Y-64355952D01*
X74317857Y-64927380D01*
X74936904Y-64927380D01*
%TO.C,D2*%
X98131904Y-124402380D02*
X98131904Y-123402380D01*
X98370000Y-123402380D01*
X98512857Y-123450000D01*
X98608095Y-123545238D01*
X98655714Y-123640476D01*
X98703333Y-123830952D01*
X98703333Y-123973809D01*
X98655714Y-124164285D01*
X98608095Y-124259523D01*
X98512857Y-124354761D01*
X98370000Y-124402380D01*
X98131904Y-124402380D01*
X99084285Y-123497619D02*
X99131904Y-123450000D01*
X99227142Y-123402380D01*
X99465238Y-123402380D01*
X99560476Y-123450000D01*
X99608095Y-123497619D01*
X99655714Y-123592857D01*
X99655714Y-123688095D01*
X99608095Y-123830952D01*
X99036666Y-124402380D01*
X99655714Y-124402380D01*
%TO.C,J10*%
X90838952Y-51501350D02*
X90838952Y-52216980D01*
X90791244Y-52360106D01*
X90695826Y-52455523D01*
X90552700Y-52503232D01*
X90457283Y-52503232D01*
X91840834Y-52503232D02*
X91268330Y-52503232D01*
X91554582Y-52503232D02*
X91554582Y-51501350D01*
X91459165Y-51644476D01*
X91363748Y-51739893D01*
X91268330Y-51787602D01*
X92461047Y-51501350D02*
X92556464Y-51501350D01*
X92651882Y-51549059D01*
X92699590Y-51596767D01*
X92747299Y-51692185D01*
X92795008Y-51883019D01*
X92795008Y-52121563D01*
X92747299Y-52312397D01*
X92699590Y-52407815D01*
X92651882Y-52455523D01*
X92556464Y-52503232D01*
X92461047Y-52503232D01*
X92365630Y-52455523D01*
X92317921Y-52407815D01*
X92270212Y-52312397D01*
X92222504Y-52121563D01*
X92222504Y-51883019D01*
X92270212Y-51692185D01*
X92317921Y-51596767D01*
X92365630Y-51549059D01*
X92461047Y-51501350D01*
%TO.C,C1*%
X97333333Y-78907142D02*
X97285714Y-78954761D01*
X97142857Y-79002380D01*
X97047619Y-79002380D01*
X96904761Y-78954761D01*
X96809523Y-78859523D01*
X96761904Y-78764285D01*
X96714285Y-78573809D01*
X96714285Y-78430952D01*
X96761904Y-78240476D01*
X96809523Y-78145238D01*
X96904761Y-78050000D01*
X97047619Y-78002380D01*
X97142857Y-78002380D01*
X97285714Y-78050000D01*
X97333333Y-78097619D01*
X98285714Y-79002380D02*
X97714285Y-79002380D01*
X98000000Y-79002380D02*
X98000000Y-78002380D01*
X97904761Y-78145238D01*
X97809523Y-78240476D01*
X97714285Y-78288095D01*
%TO.C,R5*%
X72902380Y-116016666D02*
X72426190Y-116350000D01*
X72902380Y-116588095D02*
X71902380Y-116588095D01*
X71902380Y-116207142D01*
X71950000Y-116111904D01*
X71997619Y-116064285D01*
X72092857Y-116016666D01*
X72235714Y-116016666D01*
X72330952Y-116064285D01*
X72378571Y-116111904D01*
X72426190Y-116207142D01*
X72426190Y-116588095D01*
X71902380Y-115111904D02*
X71902380Y-115588095D01*
X72378571Y-115635714D01*
X72330952Y-115588095D01*
X72283333Y-115492857D01*
X72283333Y-115254761D01*
X72330952Y-115159523D01*
X72378571Y-115111904D01*
X72473809Y-115064285D01*
X72711904Y-115064285D01*
X72807142Y-115111904D01*
X72854761Y-115159523D01*
X72902380Y-115254761D01*
X72902380Y-115492857D01*
X72854761Y-115588095D01*
X72807142Y-115635714D01*
%TO.C,J14*%
X84452380Y-80409523D02*
X85166666Y-80409523D01*
X85309523Y-80457142D01*
X85404761Y-80552380D01*
X85452380Y-80695238D01*
X85452380Y-80790476D01*
X85452380Y-79409523D02*
X85452380Y-79980952D01*
X85452380Y-79695238D02*
X84452380Y-79695238D01*
X84595238Y-79790476D01*
X84690476Y-79885714D01*
X84738095Y-79980952D01*
X84785714Y-78552380D02*
X85452380Y-78552380D01*
X84404761Y-78790476D02*
X85119047Y-79028571D01*
X85119047Y-78409523D01*
%TO.C,Q3*%
X57679761Y-76497619D02*
X57584523Y-76450000D01*
X57489285Y-76354761D01*
X57346428Y-76211904D01*
X57251190Y-76164285D01*
X57155952Y-76164285D01*
X57203571Y-76402380D02*
X57108333Y-76354761D01*
X57013095Y-76259523D01*
X56965476Y-76069047D01*
X56965476Y-75735714D01*
X57013095Y-75545238D01*
X57108333Y-75450000D01*
X57203571Y-75402380D01*
X57394047Y-75402380D01*
X57489285Y-75450000D01*
X57584523Y-75545238D01*
X57632142Y-75735714D01*
X57632142Y-76069047D01*
X57584523Y-76259523D01*
X57489285Y-76354761D01*
X57394047Y-76402380D01*
X57203571Y-76402380D01*
X57965476Y-75402380D02*
X58584523Y-75402380D01*
X58251190Y-75783333D01*
X58394047Y-75783333D01*
X58489285Y-75830952D01*
X58536904Y-75878571D01*
X58584523Y-75973809D01*
X58584523Y-76211904D01*
X58536904Y-76307142D01*
X58489285Y-76354761D01*
X58394047Y-76402380D01*
X58108333Y-76402380D01*
X58013095Y-76354761D01*
X57965476Y-76307142D01*
%TO.C,C4*%
X67407142Y-134216666D02*
X67454761Y-134264285D01*
X67502380Y-134407142D01*
X67502380Y-134502380D01*
X67454761Y-134645238D01*
X67359523Y-134740476D01*
X67264285Y-134788095D01*
X67073809Y-134835714D01*
X66930952Y-134835714D01*
X66740476Y-134788095D01*
X66645238Y-134740476D01*
X66550000Y-134645238D01*
X66502380Y-134502380D01*
X66502380Y-134407142D01*
X66550000Y-134264285D01*
X66597619Y-134216666D01*
X66835714Y-133359523D02*
X67502380Y-133359523D01*
X66454761Y-133597619D02*
X67169047Y-133835714D01*
X67169047Y-133216666D01*
%TO.C,U2*%
X105208095Y-66047380D02*
X105208095Y-66856904D01*
X105255714Y-66952142D01*
X105303333Y-66999761D01*
X105398571Y-67047380D01*
X105589047Y-67047380D01*
X105684285Y-66999761D01*
X105731904Y-66952142D01*
X105779523Y-66856904D01*
X105779523Y-66047380D01*
X106208095Y-66142619D02*
X106255714Y-66095000D01*
X106350952Y-66047380D01*
X106589047Y-66047380D01*
X106684285Y-66095000D01*
X106731904Y-66142619D01*
X106779523Y-66237857D01*
X106779523Y-66333095D01*
X106731904Y-66475952D01*
X106160476Y-67047380D01*
X106779523Y-67047380D01*
%TO.C,RY3*%
X82154761Y-65002380D02*
X81821428Y-64526190D01*
X81583333Y-65002380D02*
X81583333Y-64002380D01*
X81964285Y-64002380D01*
X82059523Y-64050000D01*
X82107142Y-64097619D01*
X82154761Y-64192857D01*
X82154761Y-64335714D01*
X82107142Y-64430952D01*
X82059523Y-64478571D01*
X81964285Y-64526190D01*
X81583333Y-64526190D01*
X82773809Y-64526190D02*
X82773809Y-65002380D01*
X82440476Y-64002380D02*
X82773809Y-64526190D01*
X83107142Y-64002380D01*
X83345238Y-64002380D02*
X83964285Y-64002380D01*
X83630952Y-64383333D01*
X83773809Y-64383333D01*
X83869047Y-64430952D01*
X83916666Y-64478571D01*
X83964285Y-64573809D01*
X83964285Y-64811904D01*
X83916666Y-64907142D01*
X83869047Y-64954761D01*
X83773809Y-65002380D01*
X83488095Y-65002380D01*
X83392857Y-64954761D01*
X83345238Y-64907142D01*
%TO.C,SW1*%
X111379761Y-128283333D02*
X111427380Y-128140476D01*
X111427380Y-127902380D01*
X111379761Y-127807142D01*
X111332142Y-127759523D01*
X111236904Y-127711904D01*
X111141666Y-127711904D01*
X111046428Y-127759523D01*
X110998809Y-127807142D01*
X110951190Y-127902380D01*
X110903571Y-128092857D01*
X110855952Y-128188095D01*
X110808333Y-128235714D01*
X110713095Y-128283333D01*
X110617857Y-128283333D01*
X110522619Y-128235714D01*
X110475000Y-128188095D01*
X110427380Y-128092857D01*
X110427380Y-127854761D01*
X110475000Y-127711904D01*
X110427380Y-127378571D02*
X111427380Y-127140476D01*
X110713095Y-126950000D01*
X111427380Y-126759523D01*
X110427380Y-126521428D01*
X111427380Y-125616666D02*
X111427380Y-126188095D01*
X111427380Y-125902380D02*
X110427380Y-125902380D01*
X110570238Y-125997619D01*
X110665476Y-126092857D01*
X110713095Y-126188095D01*
%TO.C,R2*%
X103533333Y-128077380D02*
X103200000Y-127601190D01*
X102961904Y-128077380D02*
X102961904Y-127077380D01*
X103342857Y-127077380D01*
X103438095Y-127125000D01*
X103485714Y-127172619D01*
X103533333Y-127267857D01*
X103533333Y-127410714D01*
X103485714Y-127505952D01*
X103438095Y-127553571D01*
X103342857Y-127601190D01*
X102961904Y-127601190D01*
X103914285Y-127172619D02*
X103961904Y-127125000D01*
X104057142Y-127077380D01*
X104295238Y-127077380D01*
X104390476Y-127125000D01*
X104438095Y-127172619D01*
X104485714Y-127267857D01*
X104485714Y-127363095D01*
X104438095Y-127505952D01*
X103866666Y-128077380D01*
X104485714Y-128077380D01*
%TO.C,D1*%
X90411904Y-124352380D02*
X90411904Y-123352380D01*
X90650000Y-123352380D01*
X90792857Y-123400000D01*
X90888095Y-123495238D01*
X90935714Y-123590476D01*
X90983333Y-123780952D01*
X90983333Y-123923809D01*
X90935714Y-124114285D01*
X90888095Y-124209523D01*
X90792857Y-124304761D01*
X90650000Y-124352380D01*
X90411904Y-124352380D01*
X91935714Y-124352380D02*
X91364285Y-124352380D01*
X91650000Y-124352380D02*
X91650000Y-123352380D01*
X91554761Y-123495238D01*
X91459523Y-123590476D01*
X91364285Y-123638095D01*
%TO.C,J3*%
X95547380Y-97583333D02*
X96261666Y-97583333D01*
X96404523Y-97630952D01*
X96499761Y-97726190D01*
X96547380Y-97869047D01*
X96547380Y-97964285D01*
X95547380Y-97202380D02*
X95547380Y-96583333D01*
X95928333Y-96916666D01*
X95928333Y-96773809D01*
X95975952Y-96678571D01*
X96023571Y-96630952D01*
X96118809Y-96583333D01*
X96356904Y-96583333D01*
X96452142Y-96630952D01*
X96499761Y-96678571D01*
X96547380Y-96773809D01*
X96547380Y-97059523D01*
X96499761Y-97154761D01*
X96452142Y-97202380D01*
%TO.C,RY4*%
X82229761Y-90502380D02*
X81896428Y-90026190D01*
X81658333Y-90502380D02*
X81658333Y-89502380D01*
X82039285Y-89502380D01*
X82134523Y-89550000D01*
X82182142Y-89597619D01*
X82229761Y-89692857D01*
X82229761Y-89835714D01*
X82182142Y-89930952D01*
X82134523Y-89978571D01*
X82039285Y-90026190D01*
X81658333Y-90026190D01*
X82848809Y-90026190D02*
X82848809Y-90502380D01*
X82515476Y-89502380D02*
X82848809Y-90026190D01*
X83182142Y-89502380D01*
X83944047Y-89835714D02*
X83944047Y-90502380D01*
X83705952Y-89454761D02*
X83467857Y-90169047D01*
X84086904Y-90169047D01*
%TO.C,R6*%
X72777380Y-126591666D02*
X72301190Y-126925000D01*
X72777380Y-127163095D02*
X71777380Y-127163095D01*
X71777380Y-126782142D01*
X71825000Y-126686904D01*
X71872619Y-126639285D01*
X71967857Y-126591666D01*
X72110714Y-126591666D01*
X72205952Y-126639285D01*
X72253571Y-126686904D01*
X72301190Y-126782142D01*
X72301190Y-127163095D01*
X71777380Y-125734523D02*
X71777380Y-125925000D01*
X71825000Y-126020238D01*
X71872619Y-126067857D01*
X72015476Y-126163095D01*
X72205952Y-126210714D01*
X72586904Y-126210714D01*
X72682142Y-126163095D01*
X72729761Y-126115476D01*
X72777380Y-126020238D01*
X72777380Y-125829761D01*
X72729761Y-125734523D01*
X72682142Y-125686904D01*
X72586904Y-125639285D01*
X72348809Y-125639285D01*
X72253571Y-125686904D01*
X72205952Y-125734523D01*
X72158333Y-125829761D01*
X72158333Y-126020238D01*
X72205952Y-126115476D01*
X72253571Y-126163095D01*
X72348809Y-126210714D01*
%TO.C,Q1*%
X68904761Y-113497619D02*
X68809523Y-113450000D01*
X68714285Y-113354761D01*
X68571428Y-113211904D01*
X68476190Y-113164285D01*
X68380952Y-113164285D01*
X68428571Y-113402380D02*
X68333333Y-113354761D01*
X68238095Y-113259523D01*
X68190476Y-113069047D01*
X68190476Y-112735714D01*
X68238095Y-112545238D01*
X68333333Y-112450000D01*
X68428571Y-112402380D01*
X68619047Y-112402380D01*
X68714285Y-112450000D01*
X68809523Y-112545238D01*
X68857142Y-112735714D01*
X68857142Y-113069047D01*
X68809523Y-113259523D01*
X68714285Y-113354761D01*
X68619047Y-113402380D01*
X68428571Y-113402380D01*
X69809523Y-113402380D02*
X69238095Y-113402380D01*
X69523809Y-113402380D02*
X69523809Y-112402380D01*
X69428571Y-112545238D01*
X69333333Y-112640476D01*
X69238095Y-112688095D01*
%TO.C,J11*%
X51752380Y-54859523D02*
X52466666Y-54859523D01*
X52609523Y-54907142D01*
X52704761Y-55002380D01*
X52752380Y-55145238D01*
X52752380Y-55240476D01*
X52752380Y-53859523D02*
X52752380Y-54430952D01*
X52752380Y-54145238D02*
X51752380Y-54145238D01*
X51895238Y-54240476D01*
X51990476Y-54335714D01*
X52038095Y-54430952D01*
X52752380Y-52907142D02*
X52752380Y-53478571D01*
X52752380Y-53192857D02*
X51752380Y-53192857D01*
X51895238Y-53288095D01*
X51990476Y-53383333D01*
X52038095Y-53478571D01*
%TO.C,R1*%
X86402380Y-127891666D02*
X85926190Y-128225000D01*
X86402380Y-128463095D02*
X85402380Y-128463095D01*
X85402380Y-128082142D01*
X85450000Y-127986904D01*
X85497619Y-127939285D01*
X85592857Y-127891666D01*
X85735714Y-127891666D01*
X85830952Y-127939285D01*
X85878571Y-127986904D01*
X85926190Y-128082142D01*
X85926190Y-128463095D01*
X86402380Y-126939285D02*
X86402380Y-127510714D01*
X86402380Y-127225000D02*
X85402380Y-127225000D01*
X85545238Y-127320238D01*
X85640476Y-127415476D01*
X85688095Y-127510714D01*
%TO.C,Q6*%
X78954761Y-76347619D02*
X78859523Y-76300000D01*
X78764285Y-76204761D01*
X78621428Y-76061904D01*
X78526190Y-76014285D01*
X78430952Y-76014285D01*
X78478571Y-76252380D02*
X78383333Y-76204761D01*
X78288095Y-76109523D01*
X78240476Y-75919047D01*
X78240476Y-75585714D01*
X78288095Y-75395238D01*
X78383333Y-75300000D01*
X78478571Y-75252380D01*
X78669047Y-75252380D01*
X78764285Y-75300000D01*
X78859523Y-75395238D01*
X78907142Y-75585714D01*
X78907142Y-75919047D01*
X78859523Y-76109523D01*
X78764285Y-76204761D01*
X78669047Y-76252380D01*
X78478571Y-76252380D01*
X79764285Y-75252380D02*
X79573809Y-75252380D01*
X79478571Y-75300000D01*
X79430952Y-75347619D01*
X79335714Y-75490476D01*
X79288095Y-75680952D01*
X79288095Y-76061904D01*
X79335714Y-76157142D01*
X79383333Y-76204761D01*
X79478571Y-76252380D01*
X79669047Y-76252380D01*
X79764285Y-76204761D01*
X79811904Y-76157142D01*
X79859523Y-76061904D01*
X79859523Y-75823809D01*
X79811904Y-75728571D01*
X79764285Y-75680952D01*
X79669047Y-75633333D01*
X79478571Y-75633333D01*
X79383333Y-75680952D01*
X79335714Y-75728571D01*
X79288095Y-75823809D01*
%TO.C,Q4*%
X63979761Y-76347619D02*
X63884523Y-76300000D01*
X63789285Y-76204761D01*
X63646428Y-76061904D01*
X63551190Y-76014285D01*
X63455952Y-76014285D01*
X63503571Y-76252380D02*
X63408333Y-76204761D01*
X63313095Y-76109523D01*
X63265476Y-75919047D01*
X63265476Y-75585714D01*
X63313095Y-75395238D01*
X63408333Y-75300000D01*
X63503571Y-75252380D01*
X63694047Y-75252380D01*
X63789285Y-75300000D01*
X63884523Y-75395238D01*
X63932142Y-75585714D01*
X63932142Y-75919047D01*
X63884523Y-76109523D01*
X63789285Y-76204761D01*
X63694047Y-76252380D01*
X63503571Y-76252380D01*
X64789285Y-75585714D02*
X64789285Y-76252380D01*
X64551190Y-75204761D02*
X64313095Y-75919047D01*
X64932142Y-75919047D01*
%TO.C,J6*%
X51802380Y-62033333D02*
X52516666Y-62033333D01*
X52659523Y-62080952D01*
X52754761Y-62176190D01*
X52802380Y-62319047D01*
X52802380Y-62414285D01*
X51802380Y-61128571D02*
X51802380Y-61319047D01*
X51850000Y-61414285D01*
X51897619Y-61461904D01*
X52040476Y-61557142D01*
X52230952Y-61604761D01*
X52611904Y-61604761D01*
X52707142Y-61557142D01*
X52754761Y-61509523D01*
X52802380Y-61414285D01*
X52802380Y-61223809D01*
X52754761Y-61128571D01*
X52707142Y-61080952D01*
X52611904Y-61033333D01*
X52373809Y-61033333D01*
X52278571Y-61080952D01*
X52230952Y-61128571D01*
X52183333Y-61223809D01*
X52183333Y-61414285D01*
X52230952Y-61509523D01*
X52278571Y-61557142D01*
X52373809Y-61604761D01*
%TO.C,RY1*%
X65254761Y-65102380D02*
X64921428Y-64626190D01*
X64683333Y-65102380D02*
X64683333Y-64102380D01*
X65064285Y-64102380D01*
X65159523Y-64150000D01*
X65207142Y-64197619D01*
X65254761Y-64292857D01*
X65254761Y-64435714D01*
X65207142Y-64530952D01*
X65159523Y-64578571D01*
X65064285Y-64626190D01*
X64683333Y-64626190D01*
X65873809Y-64626190D02*
X65873809Y-65102380D01*
X65540476Y-64102380D02*
X65873809Y-64626190D01*
X66207142Y-64102380D01*
X67064285Y-65102380D02*
X66492857Y-65102380D01*
X66778571Y-65102380D02*
X66778571Y-64102380D01*
X66683333Y-64245238D01*
X66588095Y-64340476D01*
X66492857Y-64388095D01*
D14*
%TO.C,S1*%
X56800000Y-129725000D02*
X55850000Y-129725000D01*
X55850000Y-116075000D02*
X55850000Y-116750000D01*
X67900000Y-116075000D02*
X68600000Y-116075000D01*
X68600000Y-129150000D02*
X68600000Y-129725000D01*
X56700000Y-116075000D02*
X55850000Y-116075000D01*
X55850000Y-129725000D02*
X55850000Y-129050000D01*
X68600000Y-129725000D02*
X67800000Y-129725000D01*
X68600000Y-116075000D02*
X68600000Y-116575000D01*
D15*
%TO.C,U1*%
X95410000Y-75000000D02*
X95410000Y-71550000D01*
X95410000Y-75000000D02*
X95410000Y-76950000D01*
X86540000Y-75000000D02*
X86540000Y-73050000D01*
X86540000Y-75000000D02*
X86540000Y-76950000D01*
%TO.C,kibuzzard-6406DC2D*%
G36*
X53584134Y-90167406D02*
G01*
X53659937Y-90241225D01*
X53692569Y-90323069D01*
X53712149Y-90437369D01*
X53718675Y-90584125D01*
X53712237Y-90746226D01*
X53692922Y-90870581D01*
X53660731Y-90957188D01*
X53585127Y-91033388D01*
X53474200Y-91058787D01*
X53402762Y-91044500D01*
X53402762Y-90157087D01*
X53474200Y-90142800D01*
X53584134Y-90167406D01*
G37*
G36*
X52056562Y-90739700D02*
G01*
X51839075Y-90739700D01*
X51947025Y-90195187D01*
X51948612Y-90195187D01*
X52056562Y-90739700D01*
G37*
G36*
X51483062Y-91521583D02*
G01*
X51393168Y-91508248D01*
X51305014Y-91486167D01*
X51219449Y-91455551D01*
X51137297Y-91416696D01*
X51059349Y-91369976D01*
X50986356Y-91315840D01*
X50919020Y-91254810D01*
X50857990Y-91187475D01*
X50852029Y-91179437D01*
X51573962Y-91179437D01*
X51751762Y-91179437D01*
X51812087Y-90874638D01*
X52083550Y-90874638D01*
X52143875Y-91179437D01*
X52328025Y-91179437D01*
X52256544Y-90877812D01*
X52428037Y-90877812D01*
X52436240Y-90981176D01*
X52460846Y-91062668D01*
X52501856Y-91122287D01*
X52561740Y-91162857D01*
X52642967Y-91187199D01*
X52745537Y-91195312D01*
X52848108Y-91187199D01*
X52926979Y-91163563D01*
X53224962Y-91163563D01*
X53344422Y-91187375D01*
X53474200Y-91195312D01*
X53605962Y-91181620D01*
X53611446Y-91179437D01*
X54063162Y-91179437D01*
X54602912Y-91179437D01*
X54602912Y-91041325D01*
X54425112Y-91041325D01*
X54425112Y-90600000D01*
X54777537Y-90600000D01*
X54781859Y-90738994D01*
X54794824Y-90857528D01*
X54816431Y-90955600D01*
X54864255Y-91067916D01*
X54929937Y-91141337D01*
X55016456Y-91181819D01*
X55126787Y-91195312D01*
X55237119Y-91181819D01*
X55323637Y-91141337D01*
X55389320Y-91067916D01*
X55437144Y-90955600D01*
X55458751Y-90857528D01*
X55471716Y-90738994D01*
X55476037Y-90600000D01*
X55471716Y-90461006D01*
X55458751Y-90342472D01*
X55437144Y-90244400D01*
X55389320Y-90132084D01*
X55323637Y-90058663D01*
X55237119Y-90018181D01*
X55126787Y-90004687D01*
X55016456Y-90018181D01*
X54929937Y-90058663D01*
X54864255Y-90132084D01*
X54816431Y-90244400D01*
X54794824Y-90342472D01*
X54781859Y-90461006D01*
X54777537Y-90600000D01*
X54425112Y-90600000D01*
X54425112Y-90158675D01*
X54602912Y-90158675D01*
X54602912Y-90020563D01*
X54063162Y-90020563D01*
X54063162Y-90158675D01*
X54240962Y-90158675D01*
X54240962Y-91041325D01*
X54063162Y-91041325D01*
X54063162Y-91179437D01*
X53611446Y-91179437D01*
X53709150Y-91140544D01*
X53787533Y-91065733D01*
X53844881Y-90950838D01*
X53870899Y-90850119D01*
X53886509Y-90727882D01*
X53891712Y-90584125D01*
X53885611Y-90435743D01*
X53867305Y-90311273D01*
X53836795Y-90210715D01*
X53794081Y-90134069D01*
X53715147Y-90062190D01*
X53608520Y-90019063D01*
X53474200Y-90004687D01*
X53349184Y-90012625D01*
X53224962Y-90036437D01*
X53224962Y-91163563D01*
X52926979Y-91163563D01*
X52929335Y-91162857D01*
X52989219Y-91122287D01*
X53030229Y-91062668D01*
X53054835Y-90981176D01*
X53063037Y-90877812D01*
X53063037Y-90020563D01*
X52890000Y-90020563D01*
X52890000Y-90846063D01*
X52882062Y-90949845D01*
X52858250Y-91013544D01*
X52748712Y-91057200D01*
X52682434Y-91046088D01*
X52639175Y-91012750D01*
X52615362Y-90948853D01*
X52607425Y-90846063D01*
X52607425Y-90020563D01*
X52428037Y-90020563D01*
X52428037Y-90877812D01*
X52256544Y-90877812D01*
X52053387Y-90020563D01*
X51847012Y-90020563D01*
X51573962Y-91179437D01*
X50852029Y-91179437D01*
X50803855Y-91114481D01*
X50757134Y-91036533D01*
X50718279Y-90954381D01*
X50687664Y-90868816D01*
X50665582Y-90780662D01*
X50652248Y-90690768D01*
X50647789Y-90600000D01*
X50652248Y-90509232D01*
X50665582Y-90419338D01*
X50687664Y-90331184D01*
X50718279Y-90245619D01*
X50757134Y-90163467D01*
X50803855Y-90085519D01*
X50857990Y-90012525D01*
X50919020Y-89945190D01*
X50986356Y-89884160D01*
X51059349Y-89830024D01*
X51137297Y-89783304D01*
X51219449Y-89744449D01*
X51305014Y-89713833D01*
X51393168Y-89691752D01*
X51483062Y-89678417D01*
X51573830Y-89673958D01*
X55476170Y-89673958D01*
X55566938Y-89678417D01*
X55656832Y-89691752D01*
X55744985Y-89713833D01*
X55830551Y-89744449D01*
X55912703Y-89783304D01*
X55990651Y-89830024D01*
X56063644Y-89884160D01*
X56130980Y-89945190D01*
X56192010Y-90012525D01*
X56246145Y-90085519D01*
X56292866Y-90163467D01*
X56331721Y-90245619D01*
X56362336Y-90331184D01*
X56384418Y-90419338D01*
X56397752Y-90509232D01*
X56402211Y-90600000D01*
X56397752Y-90690768D01*
X56384418Y-90780662D01*
X56362336Y-90868816D01*
X56331721Y-90954381D01*
X56292866Y-91036533D01*
X56246145Y-91114481D01*
X56192010Y-91187475D01*
X56130980Y-91254810D01*
X56063644Y-91315840D01*
X55990651Y-91369976D01*
X55912703Y-91416696D01*
X55830551Y-91455551D01*
X55744985Y-91486167D01*
X55656832Y-91508248D01*
X55566938Y-91521583D01*
X55476170Y-91526042D01*
X51573830Y-91526042D01*
X51483062Y-91521583D01*
G37*
G36*
X55208941Y-90167208D02*
G01*
X55264900Y-90240431D01*
X55288712Y-90323775D01*
X55303000Y-90443631D01*
X55307762Y-90600000D01*
X55303000Y-90756369D01*
X55288712Y-90876225D01*
X55264900Y-90959569D01*
X55208941Y-91032792D01*
X55126787Y-91057200D01*
X55044634Y-91032792D01*
X54988675Y-90959569D01*
X54964862Y-90876225D01*
X54950575Y-90756369D01*
X54945812Y-90600000D01*
X54950575Y-90443631D01*
X54964862Y-90323775D01*
X54988675Y-90240431D01*
X55044634Y-90167208D01*
X55126787Y-90142800D01*
X55208941Y-90167208D01*
G37*
%TO.C,R3*%
X71180000Y-102080000D02*
X71180000Y-108620000D01*
X73590000Y-102080000D02*
X73920000Y-102080000D01*
X71180000Y-108620000D02*
X71510000Y-108620000D01*
X73920000Y-108620000D02*
X73590000Y-108620000D01*
X73920000Y-102080000D02*
X73920000Y-108620000D01*
X71510000Y-102080000D02*
X71180000Y-102080000D01*
%TO.C,R9*%
X68620000Y-102745000D02*
X64755000Y-102745000D01*
X60245000Y-92805000D02*
X56380000Y-92805000D01*
X56380000Y-102745000D02*
X56380000Y-92805000D01*
X68620000Y-96904000D02*
X68620000Y-96145000D01*
X68620000Y-92805000D02*
X64755000Y-92805000D01*
X68620000Y-99404000D02*
X68620000Y-98645000D01*
X68620000Y-94405000D02*
X68620000Y-92805000D01*
X68620000Y-102745000D02*
X68620000Y-101146000D01*
X60245000Y-102745000D02*
X56380000Y-102745000D01*
D16*
%TO.C,CON1*%
X117628400Y-94738100D02*
X103633000Y-94712700D01*
X103633000Y-94712700D02*
X103629000Y-81815800D01*
X117625000Y-91007100D02*
X117628400Y-94738100D01*
X117628400Y-81784100D02*
X117625000Y-85007100D01*
X103629000Y-81815800D02*
X117628400Y-81784100D01*
D17*
X116172800Y-95906500D02*
G75*
G03*
X116172800Y-95906500I-170000J0D01*
G01*
D15*
%TO.C,C5*%
X102870000Y-60655000D02*
X102165000Y-60655000D01*
X102870000Y-64895000D02*
X102165000Y-64895000D01*
X100130000Y-60655000D02*
X100130000Y-64895000D01*
X102870000Y-60655000D02*
X102870000Y-64895000D01*
X100835000Y-60655000D02*
X100130000Y-60655000D01*
X100835000Y-64895000D02*
X100130000Y-64895000D01*
%TO.C,J1*%
X114930000Y-134020000D02*
X114930000Y-136680000D01*
X114930000Y-136680000D02*
X76770000Y-136680000D01*
X117530000Y-134020000D02*
X117530000Y-135350000D01*
X76770000Y-134020000D02*
X76770000Y-136680000D01*
X114930000Y-134020000D02*
X76770000Y-134020000D01*
X116200000Y-134020000D02*
X117530000Y-134020000D01*
%TO.C,R10*%
X61610000Y-65305000D02*
X55070000Y-65305000D01*
X61610000Y-68045000D02*
X55070000Y-68045000D01*
X55070000Y-65305000D02*
X55070000Y-65635000D01*
X55070000Y-68045000D02*
X55070000Y-67715000D01*
X61610000Y-67715000D02*
X61610000Y-68045000D01*
X61610000Y-65635000D02*
X61610000Y-65305000D01*
%TO.C,RY2*%
X67840000Y-82835000D02*
X66640000Y-82835000D01*
X53940000Y-82835000D02*
X53940000Y-83535000D01*
X67840000Y-83535000D02*
X67840000Y-82835000D01*
X66640000Y-83535000D02*
X67840000Y-83535000D01*
X53250000Y-87135000D02*
X53250000Y-79355000D01*
X55140000Y-82835000D02*
X53940000Y-82835000D01*
X55140000Y-83535000D02*
X55140000Y-82835000D01*
X66640000Y-82835000D02*
X66640000Y-83535000D01*
X54340000Y-82835000D02*
X54740000Y-83535000D01*
X67040000Y-82835000D02*
X67440000Y-83535000D01*
X68530000Y-87135000D02*
X68530000Y-79355000D01*
X53940000Y-83535000D02*
X55140000Y-83535000D01*
%TO.C,J2*%
X114430000Y-72355000D02*
X101670000Y-72355000D01*
X114430000Y-69695000D02*
X114430000Y-72355000D01*
X101670000Y-69695000D02*
X101670000Y-72355000D01*
X117030000Y-69695000D02*
X117030000Y-71025000D01*
X114430000Y-69695000D02*
X101670000Y-69695000D01*
X115700000Y-69695000D02*
X117030000Y-69695000D01*
%TO.C,R8*%
X87930000Y-89320000D02*
X87930000Y-82780000D01*
X87930000Y-82780000D02*
X88260000Y-82780000D01*
X88260000Y-89320000D02*
X87930000Y-89320000D01*
X90340000Y-89320000D02*
X90670000Y-89320000D01*
X90670000Y-89320000D02*
X90670000Y-82780000D01*
X90670000Y-82780000D02*
X90340000Y-82780000D01*
%TO.C,R13*%
X83020000Y-68940000D02*
X83020000Y-75480000D01*
X80280000Y-75480000D02*
X80610000Y-75480000D01*
X82690000Y-68940000D02*
X83020000Y-68940000D01*
X80610000Y-68940000D02*
X80280000Y-68940000D01*
X83020000Y-75480000D02*
X82690000Y-75480000D01*
X80280000Y-68940000D02*
X80280000Y-75480000D01*
%TO.C,R4*%
X51530000Y-105740000D02*
X51530000Y-112280000D01*
X53940000Y-105740000D02*
X54270000Y-105740000D01*
X54270000Y-112280000D02*
X53940000Y-112280000D01*
X54270000Y-105740000D02*
X54270000Y-112280000D01*
X51860000Y-105740000D02*
X51530000Y-105740000D01*
X51530000Y-112280000D02*
X51860000Y-112280000D01*
%TO.C,J5*%
X96045000Y-69845000D02*
X96045000Y-72445000D01*
X98705000Y-69845000D02*
X98705000Y-72445000D01*
X96045000Y-72445000D02*
X98705000Y-72445000D01*
X96045000Y-67245000D02*
X97375000Y-67245000D01*
X96045000Y-69845000D02*
X98705000Y-69845000D01*
X96045000Y-68575000D02*
X96045000Y-67245000D01*
D14*
%TO.C,Q2*%
X57200000Y-112325000D02*
X57500000Y-112475000D01*
X57200000Y-112325000D02*
X57200000Y-112025000D01*
X57200000Y-107925000D02*
X57200000Y-107625000D01*
X57200000Y-107625000D02*
X57500000Y-107475000D01*
D10*
X60350000Y-111925000D02*
G75*
G03*
X60400000Y-108075000I-1900000J1950000D01*
G01*
D15*
%TO.C,C3*%
X111756380Y-58185000D02*
X111756380Y-56151000D01*
X112157380Y-62400000D02*
X112157380Y-60265000D01*
X112237380Y-58185000D02*
X112237380Y-56036000D01*
X109916380Y-60806000D02*
X109916380Y-57644000D01*
X110156380Y-61169000D02*
X110156380Y-57281000D01*
X111476380Y-58185000D02*
X111476380Y-56255000D01*
X110916380Y-58185000D02*
X110916380Y-56561000D01*
X111636380Y-62258000D02*
X111636380Y-60265000D01*
X111236380Y-62081000D02*
X111236380Y-60265000D01*
X112397380Y-58185000D02*
X112397380Y-56014000D01*
X112197380Y-62407000D02*
X112197380Y-60265000D01*
X112036380Y-58185000D02*
X112036380Y-56075000D01*
X112357380Y-62431000D02*
X112357380Y-60265000D01*
X110476380Y-58185000D02*
X110476380Y-56920000D01*
X111036380Y-58185000D02*
X111036380Y-56483000D01*
X112757380Y-62455000D02*
X112757380Y-55995000D01*
X111116380Y-62015000D02*
X111116380Y-60265000D01*
X112357380Y-58185000D02*
X112357380Y-56019000D01*
X111316380Y-62121000D02*
X111316380Y-60265000D01*
X111396380Y-62159000D02*
X111396380Y-60265000D01*
X109996380Y-60939000D02*
X109996380Y-57511000D01*
X111956380Y-58185000D02*
X111956380Y-56094000D01*
X112197380Y-58185000D02*
X112197380Y-56043000D01*
X112317380Y-62426000D02*
X112317380Y-60265000D01*
X110956380Y-58185000D02*
X110956380Y-56535000D01*
X110316380Y-61362000D02*
X110316380Y-57088000D01*
X111156380Y-58185000D02*
X111156380Y-56413000D01*
X112077380Y-62384000D02*
X112077380Y-60265000D01*
X111596380Y-58185000D02*
X111596380Y-56207000D01*
X112517380Y-62447000D02*
X112517380Y-60265000D01*
X110076380Y-61059000D02*
X110076380Y-57391000D01*
X109836380Y-60657000D02*
X109836380Y-57793000D01*
X109796380Y-60575000D02*
X109796380Y-57875000D01*
X109556380Y-59858000D02*
X109556380Y-58592000D01*
X111076380Y-61991000D02*
X111076380Y-60265000D01*
X112637380Y-62453000D02*
X112637380Y-55997000D01*
X111476380Y-62195000D02*
X111476380Y-60265000D01*
X112437380Y-58185000D02*
X112437380Y-56010000D01*
X112517380Y-58185000D02*
X112517380Y-56003000D01*
X109716380Y-60390000D02*
X109716380Y-58060000D01*
X109636380Y-60165000D02*
X109636380Y-58285000D01*
X109956380Y-60875000D02*
X109956380Y-57575000D01*
X111076380Y-58185000D02*
X111076380Y-56459000D01*
X110436380Y-61490000D02*
X110436380Y-56960000D01*
X111796380Y-62311000D02*
X111796380Y-60265000D01*
X109596380Y-60027000D02*
X109596380Y-58423000D01*
X111676380Y-58185000D02*
X111676380Y-56178000D01*
X110876380Y-61861000D02*
X110876380Y-60265000D01*
X111196380Y-62059000D02*
X111196380Y-60265000D01*
X110116380Y-61115000D02*
X110116380Y-57335000D01*
X112157380Y-58185000D02*
X112157380Y-56050000D01*
X111556380Y-62227000D02*
X111556380Y-60265000D01*
X110036380Y-61001000D02*
X110036380Y-57449000D01*
X110876380Y-58185000D02*
X110876380Y-56589000D01*
X111036380Y-61967000D02*
X111036380Y-60265000D01*
X111436380Y-58185000D02*
X111436380Y-56273000D01*
X110716380Y-58185000D02*
X110716380Y-56709000D01*
X109676380Y-60284000D02*
X109676380Y-58166000D01*
X111796380Y-58185000D02*
X111796380Y-56139000D01*
X110796380Y-61803000D02*
X110796380Y-60265000D01*
X112397380Y-62436000D02*
X112397380Y-60265000D01*
X110676380Y-61709000D02*
X110676380Y-60265000D01*
X111276380Y-58185000D02*
X111276380Y-56349000D01*
X110676380Y-58185000D02*
X110676380Y-56741000D01*
X110996380Y-61941000D02*
X110996380Y-60265000D01*
X110756380Y-58185000D02*
X110756380Y-56677000D01*
X110516380Y-61568000D02*
X110516380Y-60265000D01*
X112677380Y-62455000D02*
X112677380Y-55995000D01*
X110556380Y-58185000D02*
X110556380Y-56845000D01*
X111916380Y-58185000D02*
X111916380Y-56104000D01*
X111236380Y-58185000D02*
X111236380Y-56369000D01*
X110556380Y-61605000D02*
X110556380Y-60265000D01*
X110396380Y-61449000D02*
X110396380Y-57001000D01*
X110276380Y-61317000D02*
X110276380Y-57133000D01*
X111396380Y-58185000D02*
X111396380Y-56291000D01*
X112117380Y-62392000D02*
X112117380Y-60265000D01*
X112477380Y-58185000D02*
X112477380Y-56007000D01*
X110636380Y-61675000D02*
X110636380Y-60265000D01*
X111636380Y-58185000D02*
X111636380Y-56192000D01*
X110236380Y-61269000D02*
X110236380Y-57181000D01*
X111516380Y-62211000D02*
X111516380Y-60265000D01*
X112717380Y-62455000D02*
X112717380Y-55995000D01*
X110836380Y-61832000D02*
X110836380Y-60265000D01*
X111876380Y-58185000D02*
X111876380Y-56115000D01*
X112277380Y-62420000D02*
X112277380Y-60265000D01*
X110996380Y-58185000D02*
X110996380Y-56509000D01*
X111836380Y-62323000D02*
X111836380Y-60265000D01*
X110796380Y-58185000D02*
X110796380Y-56647000D01*
X111676380Y-62272000D02*
X111676380Y-60265000D01*
X112117380Y-58185000D02*
X112117380Y-56058000D01*
X111596380Y-62243000D02*
X111596380Y-60265000D01*
X109876380Y-60734000D02*
X109876380Y-57716000D01*
X112437380Y-62440000D02*
X112437380Y-60265000D01*
X111716380Y-58185000D02*
X111716380Y-56164000D01*
X110356380Y-61407000D02*
X110356380Y-57043000D01*
X110596380Y-58185000D02*
X110596380Y-56809000D01*
X111156380Y-62037000D02*
X111156380Y-60265000D01*
X115942621Y-61379000D02*
X115942621Y-60749000D01*
X110196380Y-61220000D02*
X110196380Y-57230000D01*
X111556380Y-58185000D02*
X111556380Y-56223000D01*
X110476380Y-61530000D02*
X110476380Y-60265000D01*
X112557380Y-62449000D02*
X112557380Y-56001000D01*
X111756380Y-62299000D02*
X111756380Y-60265000D01*
X109756380Y-60487000D02*
X109756380Y-57963000D01*
X111196380Y-58185000D02*
X111196380Y-56391000D01*
X110516380Y-58185000D02*
X110516380Y-56882000D01*
X111316380Y-58185000D02*
X111316380Y-56329000D01*
X110916380Y-61889000D02*
X110916380Y-60265000D01*
X111836380Y-58185000D02*
X111836380Y-56127000D01*
X111996380Y-58185000D02*
X111996380Y-56084000D01*
X111116380Y-58185000D02*
X111116380Y-56435000D01*
X111356380Y-58185000D02*
X111356380Y-56309000D01*
X112597380Y-62452000D02*
X112597380Y-55998000D01*
X112477380Y-62443000D02*
X112477380Y-60265000D01*
X112317380Y-58185000D02*
X112317380Y-56024000D01*
X116257621Y-61064000D02*
X115627621Y-61064000D01*
X110636380Y-58185000D02*
X110636380Y-56775000D01*
X112077380Y-58185000D02*
X112077380Y-56066000D01*
X111916380Y-62346000D02*
X111916380Y-60265000D01*
X112237380Y-62414000D02*
X112237380Y-60265000D01*
X111876380Y-62335000D02*
X111876380Y-60265000D01*
X112036380Y-62375000D02*
X112036380Y-60265000D01*
X110716380Y-61741000D02*
X110716380Y-60265000D01*
X111516380Y-58185000D02*
X111516380Y-56239000D01*
X111716380Y-62286000D02*
X111716380Y-60265000D01*
X111956380Y-62356000D02*
X111956380Y-60265000D01*
X111356380Y-62141000D02*
X111356380Y-60265000D01*
X110836380Y-58185000D02*
X110836380Y-56618000D01*
X110756380Y-61773000D02*
X110756380Y-60265000D01*
X112277380Y-58185000D02*
X112277380Y-56030000D01*
X111996380Y-62366000D02*
X111996380Y-60265000D01*
X110956380Y-61915000D02*
X110956380Y-60265000D01*
X111276380Y-62101000D02*
X111276380Y-60265000D01*
X110596380Y-61641000D02*
X110596380Y-60265000D01*
X111436380Y-62177000D02*
X111436380Y-60265000D01*
X109516380Y-59627000D02*
X109516380Y-58823000D01*
X116027380Y-59225000D02*
G75*
G03*
X116027380Y-59225000I-3270000J0D01*
G01*
%TO.C,kibuzzard-6406DA0A*%
G36*
X108673931Y-132663683D02*
G01*
X108584808Y-132650463D01*
X108497409Y-132628571D01*
X108412578Y-132598218D01*
X108331130Y-132559696D01*
X108253849Y-132513376D01*
X108181482Y-132459704D01*
X108114723Y-132399198D01*
X108054217Y-132332439D01*
X108046104Y-132321500D01*
X109094650Y-132321500D01*
X109250225Y-132321500D01*
X109277212Y-131337250D01*
X109281975Y-131337250D01*
X109372462Y-132051625D01*
X109523275Y-132051625D01*
X109621700Y-131337250D01*
X109623287Y-131337250D01*
X109647100Y-132321500D01*
X109816962Y-132321500D01*
X109975712Y-132321500D01*
X110531337Y-132321500D01*
X110742475Y-132321500D01*
X110917100Y-132321500D01*
X110917100Y-131480125D01*
X110920275Y-131480125D01*
X111167925Y-132321500D01*
X111345725Y-132321500D01*
X111345725Y-132019875D01*
X111520350Y-132019875D01*
X111528552Y-132123239D01*
X111553158Y-132204731D01*
X111594169Y-132264350D01*
X111654053Y-132304919D01*
X111735280Y-132329261D01*
X111837850Y-132337375D01*
X111940420Y-132329261D01*
X112021647Y-132304919D01*
X112081531Y-132264350D01*
X112122542Y-132204731D01*
X112147148Y-132123239D01*
X112155350Y-132019875D01*
X112155350Y-131162625D01*
X111982312Y-131162625D01*
X111982312Y-131988125D01*
X111974375Y-132091908D01*
X111950562Y-132155606D01*
X111841025Y-132199263D01*
X111774747Y-132188150D01*
X111731487Y-132154813D01*
X111707675Y-132090916D01*
X111699737Y-131988125D01*
X111699737Y-131162625D01*
X111520350Y-131162625D01*
X111520350Y-132019875D01*
X111345725Y-132019875D01*
X111345725Y-131162625D01*
X111179037Y-131162625D01*
X111179037Y-132004000D01*
X111174275Y-132004000D01*
X110926625Y-131162625D01*
X110742475Y-131162625D01*
X110742475Y-132321500D01*
X110531337Y-132321500D01*
X110531337Y-132183388D01*
X110153512Y-132183388D01*
X110153512Y-131765875D01*
X110515462Y-131765875D01*
X110515462Y-131630938D01*
X110153512Y-131630938D01*
X110153512Y-131300737D01*
X110531337Y-131300737D01*
X110531337Y-131162625D01*
X109975712Y-131162625D01*
X109975712Y-132321500D01*
X109816962Y-132321500D01*
X109758225Y-131162625D01*
X109558200Y-131162625D01*
X109462950Y-131900813D01*
X109459775Y-131900813D01*
X109362937Y-131162625D01*
X109154975Y-131162625D01*
X109094650Y-132321500D01*
X108046104Y-132321500D01*
X108000545Y-132260071D01*
X107954225Y-132182791D01*
X107915703Y-132101343D01*
X107885350Y-132016512D01*
X107863458Y-131929113D01*
X107850238Y-131839990D01*
X107845817Y-131750000D01*
X107850238Y-131660010D01*
X107863458Y-131570887D01*
X107885350Y-131483488D01*
X107915703Y-131398657D01*
X107954225Y-131317209D01*
X108000545Y-131239929D01*
X108054217Y-131167561D01*
X108114723Y-131100802D01*
X108181482Y-131040296D01*
X108253849Y-130986624D01*
X108331130Y-130940304D01*
X108412578Y-130901782D01*
X108497409Y-130871429D01*
X108584808Y-130849537D01*
X108673931Y-130836317D01*
X108763921Y-130831896D01*
X112486079Y-130831896D01*
X112576069Y-130836317D01*
X112665192Y-130849537D01*
X112752591Y-130871429D01*
X112837422Y-130901782D01*
X112918870Y-130940304D01*
X112996151Y-130986624D01*
X113068518Y-131040296D01*
X113135277Y-131100802D01*
X113195783Y-131167561D01*
X113249455Y-131239929D01*
X113295775Y-131317209D01*
X113334297Y-131398657D01*
X113364650Y-131483488D01*
X113386542Y-131570887D01*
X113399762Y-131660010D01*
X113404183Y-131750000D01*
X113399762Y-131839990D01*
X113386542Y-131929113D01*
X113364650Y-132016512D01*
X113334297Y-132101343D01*
X113295775Y-132182791D01*
X113249455Y-132260071D01*
X113195783Y-132332439D01*
X113135277Y-132399198D01*
X113068518Y-132459704D01*
X112996151Y-132513376D01*
X112918870Y-132559696D01*
X112837422Y-132598218D01*
X112752591Y-132628571D01*
X112665192Y-132650463D01*
X112576069Y-132663683D01*
X112486079Y-132668104D01*
X108763921Y-132668104D01*
X108673931Y-132663683D01*
G37*
%TO.C,J4*%
X51620000Y-96595000D02*
X51620000Y-101735000D01*
X51620000Y-95325000D02*
X51620000Y-93995000D01*
X54280000Y-96595000D02*
X54280000Y-101735000D01*
X51620000Y-93995000D02*
X52950000Y-93995000D01*
X51620000Y-96595000D02*
X54280000Y-96595000D01*
X51620000Y-101735000D02*
X54280000Y-101735000D01*
%TO.C,C2*%
X58825000Y-135995000D02*
X58580000Y-135995000D01*
X60920000Y-132355000D02*
X60920000Y-135995000D01*
X60920000Y-135995000D02*
X60675000Y-135995000D01*
X58825000Y-132355000D02*
X58580000Y-132355000D01*
X60920000Y-132355000D02*
X60675000Y-132355000D01*
X58580000Y-132355000D02*
X58580000Y-135995000D01*
%TO.C,R11*%
X65585000Y-68915000D02*
X65255000Y-68915000D01*
X67665000Y-68915000D02*
X67995000Y-68915000D01*
X67995000Y-68915000D02*
X67995000Y-75455000D01*
X65255000Y-68915000D02*
X65255000Y-75455000D01*
X65255000Y-75455000D02*
X65585000Y-75455000D01*
X67995000Y-75455000D02*
X67665000Y-75455000D01*
%TO.C,R7*%
X54120000Y-125695000D02*
X54120000Y-119155000D01*
X51380000Y-125695000D02*
X51380000Y-119155000D01*
X51380000Y-119155000D02*
X51710000Y-119155000D01*
X51710000Y-125695000D02*
X51380000Y-125695000D01*
X54120000Y-119155000D02*
X53790000Y-119155000D01*
X53790000Y-125695000D02*
X54120000Y-125695000D01*
%TO.C,DSP1*%
X115100000Y-122277500D02*
X115100000Y-109257500D01*
X85010000Y-122447500D02*
X87010000Y-122447500D01*
X74700000Y-122277500D02*
X115100000Y-122277500D01*
X74700000Y-122277500D02*
X74700000Y-109257500D01*
X74700000Y-109257500D02*
X115100000Y-109257500D01*
%TO.C,kibuzzard-6406D9A6*%
G36*
X108681308Y-96757484D02*
G01*
X108741037Y-96801537D01*
X108776161Y-96878531D01*
X108787869Y-96992037D01*
X108776161Y-97114077D01*
X108741037Y-97194444D01*
X108681308Y-97239092D01*
X108595781Y-97253975D01*
X108503706Y-97242862D01*
X108503706Y-96755500D01*
X108595781Y-96742800D01*
X108681308Y-96757484D01*
G37*
G36*
X110256703Y-96767406D02*
G01*
X110332506Y-96841225D01*
X110365138Y-96923069D01*
X110384717Y-97037369D01*
X110391244Y-97184125D01*
X110384806Y-97346226D01*
X110365491Y-97470581D01*
X110333300Y-97557188D01*
X110257695Y-97633388D01*
X110146769Y-97658787D01*
X110075331Y-97644500D01*
X110075331Y-96757087D01*
X110146769Y-96742800D01*
X110256703Y-96767406D01*
G37*
G36*
X111050453Y-96767406D02*
G01*
X111126256Y-96841225D01*
X111158888Y-96923069D01*
X111178467Y-97037369D01*
X111184994Y-97184125D01*
X111178556Y-97346226D01*
X111159241Y-97470581D01*
X111127050Y-97557188D01*
X111051445Y-97633388D01*
X110940519Y-97658787D01*
X110869081Y-97644500D01*
X110869081Y-96757087D01*
X110940519Y-96742800D01*
X111050453Y-96767406D01*
G37*
G36*
X109522881Y-97339700D02*
G01*
X109305394Y-97339700D01*
X109413344Y-96795187D01*
X109414931Y-96795187D01*
X109522881Y-97339700D01*
G37*
G36*
X107904409Y-98121583D02*
G01*
X107814515Y-98108248D01*
X107726361Y-98086167D01*
X107640796Y-98055551D01*
X107558644Y-98016696D01*
X107480696Y-97969976D01*
X107407702Y-97915840D01*
X107340367Y-97854810D01*
X107279337Y-97787475D01*
X107273376Y-97779437D01*
X108325906Y-97779437D01*
X108503706Y-97779437D01*
X109040281Y-97779437D01*
X109218081Y-97779437D01*
X109278406Y-97474638D01*
X109549869Y-97474638D01*
X109610194Y-97779437D01*
X109794344Y-97779437D01*
X109790582Y-97763563D01*
X109897531Y-97763563D01*
X110016991Y-97787375D01*
X110146769Y-97795312D01*
X110278531Y-97781620D01*
X110323892Y-97763563D01*
X110691281Y-97763563D01*
X110810741Y-97787375D01*
X110940519Y-97795312D01*
X111072281Y-97781620D01*
X111077765Y-97779437D01*
X111553294Y-97779437D01*
X112100981Y-97779437D01*
X112318469Y-97779437D01*
X112874094Y-97779437D01*
X112874094Y-97641325D01*
X112496269Y-97641325D01*
X112496269Y-97223812D01*
X112858219Y-97223812D01*
X112858219Y-97088875D01*
X112496269Y-97088875D01*
X112496269Y-96758675D01*
X112874094Y-96758675D01*
X112874094Y-96620563D01*
X112318469Y-96620563D01*
X112318469Y-97779437D01*
X112100981Y-97779437D01*
X112100981Y-97641325D01*
X111731094Y-97641325D01*
X111731094Y-96620563D01*
X111553294Y-96620563D01*
X111553294Y-97779437D01*
X111077765Y-97779437D01*
X111175469Y-97740544D01*
X111253852Y-97665733D01*
X111311200Y-97550838D01*
X111337217Y-97450119D01*
X111352828Y-97327882D01*
X111358031Y-97184125D01*
X111351929Y-97035743D01*
X111333623Y-96911273D01*
X111303114Y-96810715D01*
X111260400Y-96734069D01*
X111181466Y-96662190D01*
X111074839Y-96619063D01*
X110940519Y-96604687D01*
X110815503Y-96612625D01*
X110691281Y-96636437D01*
X110691281Y-97763563D01*
X110323892Y-97763563D01*
X110381719Y-97740544D01*
X110460102Y-97665733D01*
X110517450Y-97550838D01*
X110543467Y-97450119D01*
X110559078Y-97327882D01*
X110564281Y-97184125D01*
X110558179Y-97035743D01*
X110539873Y-96911273D01*
X110509364Y-96810715D01*
X110466650Y-96734069D01*
X110387716Y-96662190D01*
X110281089Y-96619063D01*
X110146769Y-96604687D01*
X110021753Y-96612625D01*
X109897531Y-96636437D01*
X109897531Y-97763563D01*
X109790582Y-97763563D01*
X109519706Y-96620563D01*
X109313331Y-96620563D01*
X109040281Y-97779437D01*
X108503706Y-97779437D01*
X108503706Y-97382563D01*
X108595781Y-97390500D01*
X108708935Y-97379917D01*
X108800745Y-97348167D01*
X108871212Y-97295250D01*
X108921042Y-97219226D01*
X108950940Y-97118156D01*
X108960906Y-96992037D01*
X108951205Y-96868124D01*
X108922101Y-96769435D01*
X108873594Y-96695969D01*
X108803920Y-96645257D01*
X108711316Y-96614830D01*
X108595781Y-96604687D01*
X108504412Y-96608215D01*
X108414453Y-96618799D01*
X108325906Y-96636437D01*
X108325906Y-97779437D01*
X107273376Y-97779437D01*
X107225202Y-97714481D01*
X107178481Y-97636533D01*
X107139626Y-97554381D01*
X107109010Y-97468816D01*
X107086929Y-97380662D01*
X107073595Y-97290768D01*
X107069135Y-97200000D01*
X107073595Y-97109232D01*
X107086929Y-97019338D01*
X107109010Y-96931184D01*
X107139626Y-96845619D01*
X107178481Y-96763467D01*
X107225202Y-96685519D01*
X107279337Y-96612525D01*
X107340367Y-96545190D01*
X107407702Y-96484160D01*
X107480696Y-96430024D01*
X107558644Y-96383304D01*
X107640796Y-96344449D01*
X107726361Y-96313833D01*
X107814515Y-96291752D01*
X107904409Y-96278417D01*
X107995177Y-96273958D01*
X113204823Y-96273958D01*
X113295591Y-96278417D01*
X113385485Y-96291752D01*
X113473639Y-96313833D01*
X113559204Y-96344449D01*
X113641356Y-96383304D01*
X113719304Y-96430024D01*
X113792298Y-96484160D01*
X113859633Y-96545190D01*
X113920663Y-96612525D01*
X113974798Y-96685519D01*
X114021519Y-96763467D01*
X114060374Y-96845619D01*
X114090990Y-96931184D01*
X114113071Y-97019338D01*
X114126405Y-97109232D01*
X114130865Y-97200000D01*
X114126405Y-97290768D01*
X114113071Y-97380662D01*
X114090990Y-97468816D01*
X114060374Y-97554381D01*
X114021519Y-97636533D01*
X113974798Y-97714481D01*
X113920663Y-97787475D01*
X113859633Y-97854810D01*
X113792298Y-97915840D01*
X113719304Y-97969976D01*
X113641356Y-98016696D01*
X113559204Y-98055551D01*
X113473639Y-98086167D01*
X113385485Y-98108248D01*
X113295591Y-98121583D01*
X113204823Y-98126042D01*
X107995177Y-98126042D01*
X107904409Y-98121583D01*
G37*
D14*
%TO.C,Q5*%
X68950000Y-70425000D02*
X69250000Y-70275000D01*
X68950000Y-75125000D02*
X69250000Y-75275000D01*
X68950000Y-75125000D02*
X68950000Y-74825000D01*
X68950000Y-70725000D02*
X68950000Y-70425000D01*
D10*
X72100000Y-74725000D02*
G75*
G03*
X72150000Y-70875000I-1900000J1950000D01*
G01*
D15*
%TO.C,SW2*%
X81525000Y-123600000D02*
X77025000Y-123600000D01*
X75775000Y-126100000D02*
X75775000Y-127600000D01*
X82775000Y-127600000D02*
X82775000Y-126100000D01*
X77025000Y-130100000D02*
X81525000Y-130100000D01*
%TO.C,R12*%
X70570000Y-65305000D02*
X70570000Y-65635000D01*
X77110000Y-65305000D02*
X70570000Y-65305000D01*
X77110000Y-65635000D02*
X77110000Y-65305000D01*
X77110000Y-68045000D02*
X70570000Y-68045000D01*
X77110000Y-67715000D02*
X77110000Y-68045000D01*
X70570000Y-68045000D02*
X70570000Y-67715000D01*
%TO.C,D2*%
X97310000Y-128005000D02*
X97310000Y-128161000D01*
X97310000Y-125689000D02*
X97310000Y-125845000D01*
X99911130Y-125845163D02*
G75*
G03*
X97829039Y-125845000I-1041130J-1079837D01*
G01*
X97310000Y-128160516D02*
G75*
G03*
X100542335Y-128003608I1560000J1235516D01*
G01*
X97829039Y-128005000D02*
G75*
G03*
X99911130Y-128004837I1040961J1080000D01*
G01*
X100542335Y-125846392D02*
G75*
G03*
X97310000Y-125689484I-1672335J-1078608D01*
G01*
D16*
%TO.C,J10*%
X86550000Y-50086500D02*
X97550000Y-50086500D01*
X84700000Y-50086500D02*
X86550000Y-50086500D01*
X97550000Y-50086500D02*
X99400000Y-50086500D01*
X84700000Y-64486500D02*
X84700000Y-50086500D01*
X99400000Y-64486500D02*
X84700000Y-64486500D01*
X99400000Y-50086500D02*
X99400000Y-64486500D01*
D13*
X92150000Y-64958500D02*
G75*
G03*
X92150000Y-64958500I-100000J0D01*
G01*
D15*
%TO.C,C1*%
X96860000Y-72955000D02*
X96155000Y-72955000D01*
X96860000Y-77195000D02*
X96155000Y-77195000D01*
X98895000Y-72955000D02*
X98895000Y-77195000D01*
X98895000Y-77195000D02*
X98190000Y-77195000D01*
X96155000Y-72955000D02*
X96155000Y-77195000D01*
X98895000Y-72955000D02*
X98190000Y-72955000D01*
%TO.C,R5*%
X71105000Y-118860000D02*
X71105000Y-112320000D01*
X73845000Y-118860000D02*
X73845000Y-112320000D01*
X71435000Y-118860000D02*
X71105000Y-118860000D01*
X71105000Y-112320000D02*
X71435000Y-112320000D01*
X73515000Y-118860000D02*
X73845000Y-118860000D01*
X73845000Y-112320000D02*
X73515000Y-112320000D01*
D14*
%TO.C,Q3*%
X53675000Y-75200000D02*
X53975000Y-75350000D01*
X53675000Y-75200000D02*
X53675000Y-74900000D01*
X53675000Y-70500000D02*
X53975000Y-70350000D01*
X53675000Y-70800000D02*
X53675000Y-70500000D01*
D10*
X56825000Y-74800000D02*
G75*
G03*
X56875000Y-70950000I-1900000J1950000D01*
G01*
%TO.C,kibuzzard-6406DC87*%
G36*
X93486819Y-66864700D02*
G01*
X93269331Y-66864700D01*
X93377281Y-66320187D01*
X93378869Y-66320187D01*
X93486819Y-66864700D01*
G37*
G36*
X88152375Y-67630784D02*
G01*
X88064022Y-67617678D01*
X87977379Y-67595975D01*
X87893281Y-67565884D01*
X87812537Y-67527695D01*
X87735925Y-67481776D01*
X87664183Y-67428568D01*
X87598001Y-67368585D01*
X87539861Y-67304437D01*
X88241719Y-67304437D01*
X88419519Y-67304437D01*
X88479844Y-66999638D01*
X88751306Y-66999638D01*
X88811631Y-67304437D01*
X88995781Y-67304437D01*
X89111669Y-67304437D01*
X89286294Y-67304437D01*
X89286294Y-66463062D01*
X89289469Y-66463062D01*
X89537119Y-67304437D01*
X89714919Y-67304437D01*
X89714919Y-66283675D01*
X89881606Y-66283675D01*
X90118144Y-66283675D01*
X90118144Y-67304437D01*
X90295944Y-67304437D01*
X90726156Y-67304437D01*
X91281781Y-67304437D01*
X91492919Y-67304437D01*
X91667544Y-67304437D01*
X91667544Y-66463062D01*
X91670719Y-66463062D01*
X91918369Y-67304437D01*
X92096169Y-67304437D01*
X92286669Y-67304437D01*
X92461294Y-67304437D01*
X92461294Y-66463062D01*
X92464469Y-66463062D01*
X92712119Y-67304437D01*
X92889919Y-67304437D01*
X93004219Y-67304437D01*
X93182019Y-67304437D01*
X93242344Y-66999638D01*
X93513806Y-66999638D01*
X93574131Y-67304437D01*
X93758281Y-67304437D01*
X93483644Y-66145563D01*
X93277269Y-66145563D01*
X93004219Y-67304437D01*
X92889919Y-67304437D01*
X92889919Y-66145563D01*
X92723231Y-66145563D01*
X92723231Y-66986937D01*
X92718469Y-66986937D01*
X92470819Y-66145563D01*
X92286669Y-66145563D01*
X92286669Y-67304437D01*
X92096169Y-67304437D01*
X92096169Y-66145563D01*
X91929481Y-66145563D01*
X91929481Y-66986937D01*
X91924719Y-66986937D01*
X91677069Y-66145563D01*
X91492919Y-66145563D01*
X91492919Y-67304437D01*
X91281781Y-67304437D01*
X91281781Y-67166325D01*
X90903956Y-67166325D01*
X90903956Y-66748812D01*
X91265906Y-66748812D01*
X91265906Y-66613875D01*
X90903956Y-66613875D01*
X90903956Y-66283675D01*
X91281781Y-66283675D01*
X91281781Y-66145563D01*
X90726156Y-66145563D01*
X90726156Y-67304437D01*
X90295944Y-67304437D01*
X90295944Y-66283675D01*
X90532481Y-66283675D01*
X90532481Y-66145563D01*
X89881606Y-66145563D01*
X89881606Y-66283675D01*
X89714919Y-66283675D01*
X89714919Y-66145563D01*
X89548231Y-66145563D01*
X89548231Y-66986937D01*
X89543469Y-66986937D01*
X89295819Y-66145563D01*
X89111669Y-66145563D01*
X89111669Y-67304437D01*
X88995781Y-67304437D01*
X88721144Y-66145563D01*
X88514769Y-66145563D01*
X88241719Y-67304437D01*
X87539861Y-67304437D01*
X87538018Y-67302404D01*
X87484811Y-67230662D01*
X87438891Y-67154050D01*
X87400702Y-67073306D01*
X87370611Y-66989207D01*
X87348908Y-66902565D01*
X87335803Y-66814212D01*
X87331420Y-66725000D01*
X87335803Y-66635788D01*
X87348908Y-66547435D01*
X87370611Y-66460793D01*
X87400702Y-66376694D01*
X87438891Y-66295950D01*
X87484811Y-66219338D01*
X87538018Y-66147596D01*
X87598001Y-66081415D01*
X87664183Y-66021432D01*
X87735925Y-65968224D01*
X87812537Y-65922305D01*
X87893281Y-65884116D01*
X87977379Y-65854025D01*
X88064022Y-65832322D01*
X88152375Y-65819216D01*
X88241586Y-65814833D01*
X93758414Y-65814833D01*
X93847625Y-65819216D01*
X93935978Y-65832322D01*
X94022621Y-65854025D01*
X94106719Y-65884116D01*
X94187463Y-65922305D01*
X94264075Y-65968224D01*
X94335817Y-66021432D01*
X94401999Y-66081415D01*
X94461982Y-66147596D01*
X94515189Y-66219338D01*
X94561109Y-66295950D01*
X94599298Y-66376694D01*
X94629389Y-66460793D01*
X94651092Y-66547435D01*
X94664197Y-66635788D01*
X94668580Y-66725000D01*
X94664197Y-66814212D01*
X94651092Y-66902565D01*
X94629389Y-66989207D01*
X94599298Y-67073306D01*
X94561109Y-67154050D01*
X94515189Y-67230662D01*
X94461982Y-67302404D01*
X94401999Y-67368585D01*
X94335817Y-67428568D01*
X94264075Y-67481776D01*
X94187463Y-67527695D01*
X94106719Y-67565884D01*
X94022621Y-67595975D01*
X93935978Y-67617678D01*
X93847625Y-67630784D01*
X93758414Y-67635167D01*
X88241586Y-67635167D01*
X88152375Y-67630784D01*
G37*
G36*
X88724319Y-66864700D02*
G01*
X88506831Y-66864700D01*
X88614781Y-66320187D01*
X88616369Y-66320187D01*
X88724319Y-66864700D01*
G37*
D15*
%TO.C,C4*%
X65920000Y-135870000D02*
X65675000Y-135870000D01*
X65920000Y-132230000D02*
X65675000Y-132230000D01*
X63825000Y-135870000D02*
X63580000Y-135870000D01*
X65920000Y-132230000D02*
X65920000Y-135870000D01*
X63825000Y-132230000D02*
X63580000Y-132230000D01*
X63580000Y-132230000D02*
X63580000Y-135870000D01*
%TO.C,kibuzzard-6406D9EC*%
G36*
X78126044Y-131736909D02*
G01*
X78193512Y-131776200D01*
X78232803Y-131844066D01*
X78245900Y-131942887D01*
X78233795Y-132040320D01*
X78197481Y-132107194D01*
X78136561Y-132145889D01*
X78050637Y-132158787D01*
X77961737Y-132146088D01*
X77961737Y-131723812D01*
X78028412Y-131723812D01*
X78126044Y-131736909D01*
G37*
G36*
X78980912Y-131839700D02*
G01*
X78763425Y-131839700D01*
X78871375Y-131295187D01*
X78872962Y-131295187D01*
X78980912Y-131839700D01*
G37*
G36*
X77362440Y-132621583D02*
G01*
X77272547Y-132608248D01*
X77184393Y-132586167D01*
X77098828Y-132555551D01*
X77016675Y-132516696D01*
X76938727Y-132469976D01*
X76865734Y-132415840D01*
X76798398Y-132354810D01*
X76737368Y-132287475D01*
X76719634Y-132263563D01*
X77783937Y-132263563D01*
X77871426Y-132281201D01*
X77960326Y-132291785D01*
X78050637Y-132295312D01*
X78163174Y-132285611D01*
X78182706Y-132279437D01*
X78498312Y-132279437D01*
X78676112Y-132279437D01*
X78736437Y-131974638D01*
X79007900Y-131974638D01*
X79068225Y-132279437D01*
X79252375Y-132279437D01*
X79368262Y-132279437D01*
X79542887Y-132279437D01*
X79542887Y-131438062D01*
X79546062Y-131438062D01*
X79793712Y-132279437D01*
X79971512Y-132279437D01*
X79971512Y-132263563D01*
X80149312Y-132263563D01*
X80268772Y-132287375D01*
X80398550Y-132295312D01*
X80530312Y-132281620D01*
X80633500Y-132240544D01*
X80711883Y-132165733D01*
X80769231Y-132050838D01*
X80795249Y-131950119D01*
X80810859Y-131827882D01*
X80816062Y-131684125D01*
X80809961Y-131535743D01*
X80791655Y-131411273D01*
X80761145Y-131310715D01*
X80718431Y-131234069D01*
X80639497Y-131162190D01*
X80532870Y-131119063D01*
X80398550Y-131104687D01*
X80273534Y-131112625D01*
X80149312Y-131136437D01*
X80149312Y-132263563D01*
X79971512Y-132263563D01*
X79971512Y-131120563D01*
X79804825Y-131120563D01*
X79804825Y-131961937D01*
X79800062Y-131961937D01*
X79552412Y-131120563D01*
X79368262Y-131120563D01*
X79368262Y-132279437D01*
X79252375Y-132279437D01*
X78977737Y-131120563D01*
X78771362Y-131120563D01*
X78498312Y-132279437D01*
X78182706Y-132279437D01*
X78255249Y-132256507D01*
X78326862Y-132208000D01*
X78378015Y-132140090D01*
X78408707Y-132052778D01*
X78418937Y-131946063D01*
X78403658Y-131839700D01*
X78357819Y-131749212D01*
X78288961Y-131682934D01*
X78204625Y-131649200D01*
X78204625Y-131647613D01*
X78279039Y-131615069D01*
X78337181Y-131558712D01*
X78374686Y-131483306D01*
X78387187Y-131393612D01*
X78373344Y-131289599D01*
X78331815Y-131208700D01*
X78262600Y-131150915D01*
X78165699Y-131116244D01*
X78041112Y-131104687D01*
X77910144Y-131112625D01*
X77783937Y-131136437D01*
X77783937Y-132263563D01*
X76719634Y-132263563D01*
X76683233Y-132214481D01*
X76636512Y-132136533D01*
X76597657Y-132054381D01*
X76567042Y-131968816D01*
X76544960Y-131880662D01*
X76531626Y-131790768D01*
X76527167Y-131700000D01*
X76531626Y-131609232D01*
X76544960Y-131519338D01*
X76567042Y-131431184D01*
X76597657Y-131345619D01*
X76636512Y-131263467D01*
X76683233Y-131185519D01*
X76737368Y-131112525D01*
X76798398Y-131045190D01*
X76865734Y-130984160D01*
X76938727Y-130930024D01*
X77016675Y-130883304D01*
X77098828Y-130844449D01*
X77184393Y-130813833D01*
X77272547Y-130791752D01*
X77362440Y-130778417D01*
X77453208Y-130773958D01*
X81146792Y-130773958D01*
X81237560Y-130778417D01*
X81327453Y-130791752D01*
X81415607Y-130813833D01*
X81501172Y-130844449D01*
X81583325Y-130883304D01*
X81661273Y-130930024D01*
X81734266Y-130984160D01*
X81801602Y-131045190D01*
X81862632Y-131112525D01*
X81916767Y-131185519D01*
X81963487Y-131263467D01*
X82002343Y-131345619D01*
X82032958Y-131431184D01*
X82055040Y-131519338D01*
X82068374Y-131609232D01*
X82072833Y-131700000D01*
X82068374Y-131790768D01*
X82055040Y-131880662D01*
X82032958Y-131968816D01*
X82002343Y-132054381D01*
X81963487Y-132136533D01*
X81916767Y-132214481D01*
X81862632Y-132287475D01*
X81801602Y-132354810D01*
X81734266Y-132415840D01*
X81661273Y-132469976D01*
X81583325Y-132516696D01*
X81501172Y-132555551D01*
X81415607Y-132586167D01*
X81327453Y-132608248D01*
X81237560Y-132621583D01*
X81146792Y-132626042D01*
X77453208Y-132626042D01*
X77362440Y-132621583D01*
G37*
G36*
X80508484Y-131267406D02*
G01*
X80584287Y-131341225D01*
X80616919Y-131423069D01*
X80636499Y-131537369D01*
X80643025Y-131684125D01*
X80636587Y-131846226D01*
X80617272Y-131970581D01*
X80585081Y-132057188D01*
X80509477Y-132133388D01*
X80398550Y-132158787D01*
X80327112Y-132144500D01*
X80327112Y-131257087D01*
X80398550Y-131242800D01*
X80508484Y-131267406D01*
G37*
G36*
X78139008Y-131259381D02*
G01*
X78197746Y-131313885D01*
X78217325Y-131404725D01*
X78204625Y-131488267D01*
X78166525Y-131545219D01*
X78101437Y-131577961D01*
X78007775Y-131588875D01*
X77961737Y-131588875D01*
X77961737Y-131253913D01*
X78041112Y-131241212D01*
X78139008Y-131259381D01*
G37*
D14*
%TO.C,U2*%
X107875000Y-64700000D02*
X107875000Y-65000000D01*
X107875000Y-60300000D02*
X107575000Y-60150000D01*
X107875000Y-60300000D02*
X107875000Y-60600000D01*
X107875000Y-65000000D02*
X107575000Y-65150000D01*
D10*
X104725000Y-60700000D02*
G75*
G03*
X104675000Y-64550000I1900000J-1950000D01*
G01*
D15*
%TO.C,RY3*%
X70375000Y-58140000D02*
X70375000Y-57440000D01*
X83765000Y-61740000D02*
X83765000Y-53960000D01*
X83075000Y-58140000D02*
X83075000Y-57440000D01*
X69175000Y-58140000D02*
X70375000Y-58140000D01*
X70375000Y-57440000D02*
X69175000Y-57440000D01*
X69175000Y-57440000D02*
X69175000Y-58140000D01*
X81875000Y-58140000D02*
X83075000Y-58140000D01*
X83075000Y-57440000D02*
X81875000Y-57440000D01*
X69575000Y-57440000D02*
X69975000Y-58140000D01*
X68485000Y-61740000D02*
X68485000Y-53960000D01*
X81875000Y-57440000D02*
X81875000Y-58140000D01*
X82275000Y-57440000D02*
X82675000Y-58140000D01*
%TO.C,SW1*%
X107000000Y-126000000D02*
X107000000Y-127500000D01*
X112750000Y-123500000D02*
X108250000Y-123500000D01*
X108250000Y-130000000D02*
X112750000Y-130000000D01*
X114000000Y-127500000D02*
X114000000Y-126000000D01*
%TO.C,R2*%
X102530000Y-130945000D02*
X102530000Y-124405000D01*
X102530000Y-124405000D02*
X102860000Y-124405000D01*
X105270000Y-130945000D02*
X105270000Y-124405000D01*
X104940000Y-130945000D02*
X105270000Y-130945000D01*
X105270000Y-124405000D02*
X104940000Y-124405000D01*
X102860000Y-130945000D02*
X102530000Y-130945000D01*
%TO.C,D1*%
X89585000Y-127955000D02*
X89585000Y-128111000D01*
X89585000Y-125639000D02*
X89585000Y-125795000D01*
X90104039Y-127955000D02*
G75*
G03*
X92186130Y-127954837I1040961J1080000D01*
G01*
X92817335Y-125796392D02*
G75*
G03*
X89585000Y-125639484I-1672335J-1078608D01*
G01*
X92186130Y-125795163D02*
G75*
G03*
X90104039Y-125795000I-1041130J-1079837D01*
G01*
X89585000Y-128110516D02*
G75*
G03*
X92817335Y-127953608I1560000J1235516D01*
G01*
%TO.C,J3*%
X99695000Y-98580000D02*
X104835000Y-98580000D01*
X97095000Y-98580000D02*
X97095000Y-97250000D01*
X98425000Y-98580000D02*
X97095000Y-98580000D01*
X104835000Y-98580000D02*
X104835000Y-95920000D01*
X99695000Y-98580000D02*
X99695000Y-95920000D01*
X99695000Y-95920000D02*
X104835000Y-95920000D01*
%TO.C,RY4*%
X68485000Y-87140000D02*
X68485000Y-79360000D01*
X81875000Y-82840000D02*
X81875000Y-83540000D01*
X69575000Y-82840000D02*
X69975000Y-83540000D01*
X82275000Y-82840000D02*
X82675000Y-83540000D01*
X83075000Y-82840000D02*
X81875000Y-82840000D01*
X83075000Y-83540000D02*
X83075000Y-82840000D01*
X83765000Y-79360000D02*
X83305000Y-79360000D01*
X70375000Y-82840000D02*
X69175000Y-82840000D01*
X69175000Y-83540000D02*
X70375000Y-83540000D01*
X70375000Y-83540000D02*
X70375000Y-82840000D01*
X83765000Y-87140000D02*
X83765000Y-79360000D01*
X81875000Y-83540000D02*
X83075000Y-83540000D01*
X69175000Y-82840000D02*
X69175000Y-83540000D01*
%TO.C,kibuzzard-6406DC4B*%
G36*
X89058418Y-132621583D02*
G01*
X88968525Y-132608248D01*
X88880371Y-132586167D01*
X88794806Y-132555551D01*
X88712653Y-132516696D01*
X88634705Y-132469976D01*
X88561712Y-132415840D01*
X88494376Y-132354810D01*
X88433347Y-132287475D01*
X88427386Y-132279437D01*
X89149319Y-132279437D01*
X89720819Y-132279437D01*
X89720819Y-132141325D01*
X89333469Y-132141325D01*
X89333469Y-132138150D01*
X89426586Y-132027223D01*
X89505911Y-131923044D01*
X89571445Y-131825611D01*
X89623187Y-131734925D01*
X89638555Y-131700000D01*
X89911319Y-131700000D01*
X89915464Y-131840847D01*
X89927899Y-131960703D01*
X89948625Y-132059569D01*
X89993273Y-132171884D01*
X90052606Y-132243719D01*
X90129997Y-132282414D01*
X90228819Y-132295312D01*
X90327641Y-132282414D01*
X90333595Y-132279437D01*
X90657444Y-132279437D01*
X90824131Y-132279437D01*
X90824131Y-131590462D01*
X90887631Y-131568237D01*
X90933669Y-131584906D01*
X90946369Y-131644438D01*
X90946369Y-132279437D01*
X91105119Y-132279437D01*
X91105119Y-131590462D01*
X91170206Y-131568237D01*
X91214656Y-131584112D01*
X91227356Y-131644438D01*
X91227356Y-132279437D01*
X91387694Y-132279437D01*
X91387694Y-131660313D01*
X91383132Y-131614275D01*
X91506756Y-131614275D01*
X91670269Y-131614275D01*
X91670269Y-132041312D01*
X91684358Y-132164344D01*
X91726625Y-132241337D01*
X91805008Y-132281819D01*
X91927444Y-132295312D01*
X92015153Y-132290550D01*
X92076585Y-132279437D01*
X92367181Y-132279437D01*
X92541806Y-132279437D01*
X92540344Y-131668250D01*
X93113306Y-131668250D01*
X93129181Y-131759730D01*
X93176806Y-131830969D01*
X93262134Y-131886333D01*
X93391119Y-131930187D01*
X93495894Y-131977812D01*
X93524469Y-132057188D01*
X93487956Y-132140531D01*
X93367306Y-132166725D01*
X93247847Y-132151247D01*
X93121244Y-132104812D01*
X93121244Y-132244513D01*
X93205910Y-132272735D01*
X93296927Y-132289668D01*
X93394294Y-132295312D01*
X93523873Y-132279834D01*
X93620512Y-132233400D01*
X93680639Y-132158391D01*
X93700681Y-132057188D01*
X93685402Y-131955587D01*
X93639562Y-131882563D01*
X93551655Y-131828588D01*
X93410169Y-131784138D01*
X93315712Y-131739687D01*
X93287931Y-131668250D01*
X93322459Y-131590859D01*
X93426044Y-131565062D01*
X93546694Y-131574984D01*
X93673694Y-131604750D01*
X93673694Y-131472987D01*
X93590791Y-131453585D01*
X93502949Y-131441943D01*
X93410169Y-131438062D01*
X93280787Y-131452945D01*
X93187919Y-131497594D01*
X93131959Y-131570023D01*
X93113306Y-131668250D01*
X92540344Y-131668250D01*
X92540219Y-131615862D01*
X92652578Y-131590286D01*
X92769524Y-131574940D01*
X92891056Y-131569825D01*
X92891056Y-131438062D01*
X92782725Y-131441364D01*
X92676172Y-131451270D01*
X92571397Y-131467780D01*
X92468400Y-131490894D01*
X92367181Y-131520613D01*
X92367181Y-132279437D01*
X92076585Y-132279437D01*
X92094131Y-132276263D01*
X92094131Y-132131800D01*
X92026266Y-132149659D01*
X91959194Y-132155613D01*
X91863944Y-132129419D01*
X91843306Y-132009563D01*
X91843306Y-131614275D01*
X92110006Y-131614275D01*
X92110006Y-131485687D01*
X91843306Y-131485687D01*
X91843306Y-131184063D01*
X91670269Y-131184063D01*
X91670269Y-131485687D01*
X91506756Y-131485687D01*
X91506756Y-131614275D01*
X91383132Y-131614275D01*
X91376780Y-131550180D01*
X91344037Y-131483306D01*
X91281133Y-131449373D01*
X91179731Y-131438062D01*
X91096784Y-131447984D01*
X91022569Y-131477750D01*
X90961847Y-131447984D01*
X90881281Y-131438062D01*
X90762616Y-131453144D01*
X90657444Y-131498387D01*
X90657444Y-132279437D01*
X90333595Y-132279437D01*
X90405031Y-132243719D01*
X90464364Y-132171884D01*
X90509012Y-132059569D01*
X90529738Y-131960703D01*
X90542174Y-131840847D01*
X90546319Y-131700000D01*
X90542174Y-131559153D01*
X90529738Y-131439297D01*
X90509012Y-131340431D01*
X90464364Y-131228116D01*
X90405031Y-131156281D01*
X90327641Y-131117586D01*
X90228819Y-131104687D01*
X90129997Y-131117586D01*
X90052606Y-131156281D01*
X89993273Y-131228116D01*
X89948625Y-131340431D01*
X89927899Y-131439297D01*
X89915464Y-131559153D01*
X89911319Y-131700000D01*
X89638555Y-131700000D01*
X89673017Y-131621683D01*
X89702915Y-131514792D01*
X89712881Y-131414250D01*
X89694823Y-131280305D01*
X89640650Y-131183269D01*
X89552345Y-131124333D01*
X89431894Y-131104687D01*
X89331352Y-131113860D01*
X89237160Y-131141376D01*
X89149319Y-131187237D01*
X89149319Y-131336462D01*
X89238748Y-131284428D01*
X89320769Y-131253207D01*
X89395381Y-131242800D01*
X89499362Y-131285662D01*
X89524961Y-131341225D01*
X89533494Y-131422187D01*
X89525653Y-131509176D01*
X89502133Y-131601413D01*
X89462931Y-131698898D01*
X89408049Y-131801632D01*
X89337486Y-131909615D01*
X89251243Y-132022846D01*
X89149319Y-132141325D01*
X89149319Y-132279437D01*
X88427386Y-132279437D01*
X88379211Y-132214481D01*
X88332491Y-132136533D01*
X88293636Y-132054381D01*
X88263020Y-131968816D01*
X88240938Y-131880662D01*
X88227604Y-131790768D01*
X88223145Y-131700000D01*
X88227604Y-131609232D01*
X88240938Y-131519338D01*
X88263020Y-131431184D01*
X88293636Y-131345619D01*
X88332491Y-131263467D01*
X88379211Y-131185519D01*
X88433347Y-131112525D01*
X88494376Y-131045190D01*
X88561712Y-130984160D01*
X88634705Y-130930024D01*
X88712653Y-130883304D01*
X88794806Y-130844449D01*
X88880371Y-130813833D01*
X88968525Y-130791752D01*
X89058418Y-130778417D01*
X89149186Y-130773958D01*
X93700814Y-130773958D01*
X93791581Y-130778417D01*
X93881475Y-130791752D01*
X93969629Y-130813833D01*
X94055194Y-130844449D01*
X94137347Y-130883304D01*
X94215295Y-130930024D01*
X94288288Y-130984160D01*
X94355624Y-131045190D01*
X94416653Y-131112525D01*
X94470789Y-131185519D01*
X94517509Y-131263467D01*
X94556364Y-131345619D01*
X94586980Y-131431184D01*
X94609062Y-131519338D01*
X94622396Y-131609232D01*
X94626855Y-131700000D01*
X94622396Y-131790768D01*
X94609062Y-131880662D01*
X94586980Y-131968816D01*
X94556364Y-132054381D01*
X94517509Y-132136533D01*
X94470789Y-132214481D01*
X94416653Y-132287475D01*
X94355624Y-132354810D01*
X94288288Y-132415840D01*
X94215295Y-132469976D01*
X94137347Y-132516696D01*
X94055194Y-132555551D01*
X93969629Y-132586167D01*
X93881475Y-132608248D01*
X93791581Y-132621583D01*
X93700814Y-132626042D01*
X89149186Y-132626042D01*
X89058418Y-132621583D01*
G37*
G36*
X90303431Y-131265819D02*
G01*
X90351056Y-131360275D01*
X90079594Y-131831762D01*
X90076419Y-131700000D01*
X90078535Y-131587111D01*
X90084885Y-131491861D01*
X90095469Y-131414250D01*
X90117495Y-131327731D01*
X90145475Y-131274550D01*
X90228819Y-131238037D01*
X90303431Y-131265819D01*
G37*
G36*
X90380028Y-131613878D02*
G01*
X90381219Y-131700000D01*
X90379102Y-131812889D01*
X90372752Y-131908139D01*
X90362169Y-131985750D01*
X90340142Y-132072269D01*
X90312162Y-132125450D01*
X90228819Y-132161963D01*
X90149444Y-132129419D01*
X90100231Y-132017500D01*
X90376456Y-131539662D01*
X90380028Y-131613878D01*
G37*
%TO.C,R6*%
X73770000Y-129655000D02*
X73770000Y-123115000D01*
X71030000Y-129655000D02*
X71030000Y-123115000D01*
X73770000Y-123115000D02*
X73440000Y-123115000D01*
X71030000Y-123115000D02*
X71360000Y-123115000D01*
X71360000Y-129655000D02*
X71030000Y-129655000D01*
X73440000Y-129655000D02*
X73770000Y-129655000D01*
D14*
%TO.C,Q1*%
X64900000Y-112175000D02*
X64900000Y-111875000D01*
X64900000Y-112175000D02*
X65200000Y-112325000D01*
X64900000Y-107475000D02*
X65200000Y-107325000D01*
X64900000Y-107775000D02*
X64900000Y-107475000D01*
D10*
X68050000Y-111775000D02*
G75*
G03*
X68100000Y-107925000I-1900000J1950000D01*
G01*
D15*
%TO.C,R1*%
X84960000Y-130945000D02*
X84630000Y-130945000D01*
X84630000Y-130945000D02*
X84630000Y-124405000D01*
X87370000Y-124405000D02*
X87040000Y-124405000D01*
X84630000Y-124405000D02*
X84960000Y-124405000D01*
X87040000Y-130945000D02*
X87370000Y-130945000D01*
X87370000Y-130945000D02*
X87370000Y-124405000D01*
%TO.C,kibuzzard-6407CA45*%
G36*
X52816040Y-133888683D02*
G01*
X52726917Y-133875463D01*
X52639519Y-133853571D01*
X52554687Y-133823218D01*
X52473239Y-133784696D01*
X52395959Y-133738376D01*
X52323591Y-133684704D01*
X52256833Y-133624198D01*
X52196326Y-133557439D01*
X52142655Y-133485071D01*
X52096335Y-133407791D01*
X52057813Y-133326343D01*
X52027459Y-133241512D01*
X52005567Y-133154113D01*
X51992347Y-133064990D01*
X51987926Y-132975000D01*
X51992347Y-132885010D01*
X52005567Y-132795887D01*
X52027459Y-132708488D01*
X52057813Y-132623657D01*
X52096335Y-132542209D01*
X52106208Y-132525737D01*
X52906163Y-132525737D01*
X53142700Y-132525737D01*
X53142700Y-133546500D01*
X53320500Y-133546500D01*
X53320500Y-133244875D01*
X53707850Y-133244875D01*
X53716052Y-133348239D01*
X53740658Y-133429731D01*
X53781669Y-133489350D01*
X53841553Y-133529919D01*
X53922780Y-133554261D01*
X54025350Y-133562375D01*
X54127920Y-133554261D01*
X54153818Y-133546500D01*
X54517475Y-133546500D01*
X54692100Y-133546500D01*
X54692100Y-132705125D01*
X54695275Y-132705125D01*
X54942925Y-133546500D01*
X55120725Y-133546500D01*
X55338213Y-133546500D01*
X55893838Y-133546500D01*
X55893838Y-133408388D01*
X55516013Y-133408388D01*
X55516013Y-132990875D01*
X55877963Y-132990875D01*
X55877963Y-132855938D01*
X55516013Y-132855938D01*
X55516013Y-132525737D01*
X55893838Y-132525737D01*
X55893838Y-132387625D01*
X55338213Y-132387625D01*
X55338213Y-133546500D01*
X55120725Y-133546500D01*
X55120725Y-132387625D01*
X54954038Y-132387625D01*
X54954038Y-133229000D01*
X54949275Y-133229000D01*
X54701625Y-132387625D01*
X54517475Y-132387625D01*
X54517475Y-133546500D01*
X54153818Y-133546500D01*
X54209147Y-133529919D01*
X54269031Y-133489350D01*
X54310042Y-133429731D01*
X54334648Y-133348239D01*
X54342850Y-133244875D01*
X54342850Y-132387625D01*
X54169813Y-132387625D01*
X54169813Y-133213125D01*
X54161875Y-133316908D01*
X54138063Y-133380606D01*
X54028525Y-133424263D01*
X53962247Y-133413150D01*
X53918988Y-133379813D01*
X53895175Y-133315916D01*
X53887238Y-133213125D01*
X53887238Y-132387625D01*
X53707850Y-132387625D01*
X53707850Y-133244875D01*
X53320500Y-133244875D01*
X53320500Y-132525737D01*
X53557038Y-132525737D01*
X53557038Y-132387625D01*
X52906163Y-132387625D01*
X52906163Y-132525737D01*
X52106208Y-132525737D01*
X52142655Y-132464929D01*
X52196326Y-132392561D01*
X52256833Y-132325802D01*
X52323591Y-132265296D01*
X52395959Y-132211624D01*
X52473239Y-132165304D01*
X52554687Y-132126782D01*
X52639519Y-132096429D01*
X52726917Y-132074537D01*
X52816040Y-132061317D01*
X52906030Y-132056896D01*
X55893970Y-132056896D01*
X55983960Y-132061317D01*
X56073083Y-132074537D01*
X56160481Y-132096429D01*
X56245313Y-132126782D01*
X56326761Y-132165304D01*
X56404041Y-132211624D01*
X56476409Y-132265296D01*
X56543167Y-132325802D01*
X56603674Y-132392561D01*
X56657345Y-132464929D01*
X56703665Y-132542209D01*
X56742187Y-132623657D01*
X56772541Y-132708488D01*
X56794433Y-132795887D01*
X56807653Y-132885010D01*
X56812074Y-132975000D01*
X56807653Y-133064990D01*
X56794433Y-133154113D01*
X56772541Y-133241512D01*
X56742187Y-133326343D01*
X56703665Y-133407791D01*
X56657345Y-133485071D01*
X56603674Y-133557439D01*
X56543167Y-133624198D01*
X56476409Y-133684704D01*
X56404041Y-133738376D01*
X56326761Y-133784696D01*
X56245313Y-133823218D01*
X56160481Y-133853571D01*
X56073083Y-133875463D01*
X55983960Y-133888683D01*
X55893970Y-133893104D01*
X52906030Y-133893104D01*
X52816040Y-133888683D01*
G37*
D14*
%TO.C,Q6*%
X75075000Y-75150000D02*
X75075000Y-74850000D01*
X75075000Y-70750000D02*
X75075000Y-70450000D01*
X75075000Y-70450000D02*
X75375000Y-70300000D01*
X75075000Y-75150000D02*
X75375000Y-75300000D01*
D10*
X78225000Y-74750000D02*
G75*
G03*
X78275000Y-70900000I-1900000J1950000D01*
G01*
D14*
%TO.C,Q4*%
X60200000Y-75125000D02*
X60200000Y-74825000D01*
X60200000Y-75125000D02*
X60500000Y-75275000D01*
X60200000Y-70725000D02*
X60200000Y-70425000D01*
X60200000Y-70425000D02*
X60500000Y-70275000D01*
D10*
X63350000Y-74725000D02*
G75*
G03*
X63400000Y-70875000I-1900000J1950000D01*
G01*
%TO.C,kibuzzard-6406DC57*%
G36*
X96311578Y-132663683D02*
G01*
X96222454Y-132650463D01*
X96135056Y-132628571D01*
X96050224Y-132598218D01*
X95968776Y-132559696D01*
X95891496Y-132513376D01*
X95819129Y-132459704D01*
X95752370Y-132399198D01*
X95691864Y-132332439D01*
X95638192Y-132260071D01*
X95591872Y-132182791D01*
X95553350Y-132101343D01*
X95522997Y-132016512D01*
X95501105Y-131929113D01*
X95487884Y-131839990D01*
X95483464Y-131750000D01*
X95487884Y-131660010D01*
X95501105Y-131570887D01*
X95522997Y-131483488D01*
X95524200Y-131480125D01*
X96401700Y-131480125D01*
X96674750Y-131327725D01*
X96677925Y-131329312D01*
X96677925Y-132321500D01*
X96855725Y-132321500D01*
X96855725Y-132289750D01*
X97201800Y-132289750D01*
X97310941Y-132325469D01*
X97428812Y-132337375D01*
X97537644Y-132327497D01*
X97555314Y-132321500D01*
X97905062Y-132321500D01*
X98071750Y-132321500D01*
X98071750Y-131632525D01*
X98135250Y-131610300D01*
X98181287Y-131626969D01*
X98193987Y-131686500D01*
X98193987Y-132321500D01*
X98352737Y-132321500D01*
X98352737Y-131632525D01*
X98417825Y-131610300D01*
X98462275Y-131626175D01*
X98474975Y-131686500D01*
X98474975Y-132321500D01*
X98635312Y-132321500D01*
X98635312Y-131702375D01*
X98630750Y-131656337D01*
X98754375Y-131656337D01*
X98917887Y-131656337D01*
X98917887Y-132083375D01*
X98931977Y-132206406D01*
X98974244Y-132283400D01*
X99052627Y-132323881D01*
X99175062Y-132337375D01*
X99262772Y-132332613D01*
X99324200Y-132321500D01*
X99614800Y-132321500D01*
X99789425Y-132321500D01*
X99787962Y-131710313D01*
X100360925Y-131710313D01*
X100376800Y-131801792D01*
X100424425Y-131873031D01*
X100509753Y-131928395D01*
X100638737Y-131972250D01*
X100743512Y-132019875D01*
X100772087Y-132099250D01*
X100735575Y-132182594D01*
X100614925Y-132208788D01*
X100495466Y-132193309D01*
X100368862Y-132146875D01*
X100368862Y-132286575D01*
X100453529Y-132314797D01*
X100544546Y-132331731D01*
X100641912Y-132337375D01*
X100771492Y-132321897D01*
X100868131Y-132275463D01*
X100928258Y-132200453D01*
X100948300Y-132099250D01*
X100933020Y-131997650D01*
X100887181Y-131924625D01*
X100799273Y-131870650D01*
X100657787Y-131826200D01*
X100563331Y-131781750D01*
X100535550Y-131710313D01*
X100570078Y-131632922D01*
X100673662Y-131607125D01*
X100794312Y-131617047D01*
X100921312Y-131646812D01*
X100921312Y-131515050D01*
X100838410Y-131495647D01*
X100750568Y-131484006D01*
X100657787Y-131480125D01*
X100528406Y-131495008D01*
X100435537Y-131539656D01*
X100379578Y-131612086D01*
X100360925Y-131710313D01*
X99787962Y-131710313D01*
X99787837Y-131657925D01*
X99900197Y-131632349D01*
X100017143Y-131617003D01*
X100138675Y-131611888D01*
X100138675Y-131480125D01*
X100030344Y-131483427D01*
X99923791Y-131493333D01*
X99819016Y-131509843D01*
X99716019Y-131532957D01*
X99614800Y-131562675D01*
X99614800Y-132321500D01*
X99324200Y-132321500D01*
X99341750Y-132318325D01*
X99341750Y-132173863D01*
X99273884Y-132191722D01*
X99206812Y-132197675D01*
X99111562Y-132171481D01*
X99090925Y-132051625D01*
X99090925Y-131656337D01*
X99357625Y-131656337D01*
X99357625Y-131527750D01*
X99090925Y-131527750D01*
X99090925Y-131226125D01*
X98917887Y-131226125D01*
X98917887Y-131527750D01*
X98754375Y-131527750D01*
X98754375Y-131656337D01*
X98630750Y-131656337D01*
X98624398Y-131592242D01*
X98591656Y-131525369D01*
X98528752Y-131491436D01*
X98427350Y-131480125D01*
X98344403Y-131490047D01*
X98270187Y-131519812D01*
X98209466Y-131490047D01*
X98128900Y-131480125D01*
X98010234Y-131495206D01*
X97905062Y-131540450D01*
X97905062Y-132321500D01*
X97555314Y-132321500D01*
X97624957Y-132297864D01*
X97690750Y-132248475D01*
X97736611Y-132176156D01*
X97764128Y-132077731D01*
X97773300Y-131953200D01*
X97763140Y-131818897D01*
X97732660Y-131714440D01*
X97681860Y-131639828D01*
X97610740Y-131595060D01*
X97519300Y-131580138D01*
X97443894Y-131590059D01*
X97379600Y-131619825D01*
X97376425Y-131619825D01*
X97387537Y-131299150D01*
X97741550Y-131299150D01*
X97741550Y-131162625D01*
X97225612Y-131162625D01*
X97209737Y-131778575D01*
X97355787Y-131778575D01*
X97410953Y-131730950D01*
X97471675Y-131715075D01*
X97565337Y-131769844D01*
X97587959Y-131843067D01*
X97595500Y-131953200D01*
X97584784Y-132069286D01*
X97552637Y-132144494D01*
X97497075Y-132185570D01*
X97416112Y-132199263D01*
X97310147Y-132184181D01*
X97201800Y-132138937D01*
X97201800Y-132289750D01*
X96855725Y-132289750D01*
X96855725Y-131162625D01*
X96679512Y-131162625D01*
X96401700Y-131324550D01*
X96401700Y-131480125D01*
X95524200Y-131480125D01*
X95553350Y-131398657D01*
X95591872Y-131317209D01*
X95638192Y-131239929D01*
X95691864Y-131167561D01*
X95752370Y-131100802D01*
X95819129Y-131040296D01*
X95891496Y-130986624D01*
X95968776Y-130940304D01*
X96050224Y-130901782D01*
X96135056Y-130871429D01*
X96222454Y-130849537D01*
X96311578Y-130836317D01*
X96401568Y-130831896D01*
X100948432Y-130831896D01*
X101038422Y-130836317D01*
X101127546Y-130849537D01*
X101214944Y-130871429D01*
X101299776Y-130901782D01*
X101381224Y-130940304D01*
X101458504Y-130986624D01*
X101530871Y-131040296D01*
X101597630Y-131100802D01*
X101658136Y-131167561D01*
X101711808Y-131239929D01*
X101758128Y-131317209D01*
X101796650Y-131398657D01*
X101827003Y-131483488D01*
X101848895Y-131570887D01*
X101862116Y-131660010D01*
X101866536Y-131750000D01*
X101862116Y-131839990D01*
X101848895Y-131929113D01*
X101827003Y-132016512D01*
X101796650Y-132101343D01*
X101758128Y-132182791D01*
X101711808Y-132260071D01*
X101658136Y-132332439D01*
X101597630Y-132399198D01*
X101530871Y-132459704D01*
X101458504Y-132513376D01*
X101381224Y-132559696D01*
X101299776Y-132598218D01*
X101214944Y-132628571D01*
X101127546Y-132650463D01*
X101038422Y-132663683D01*
X100948432Y-132668104D01*
X96401568Y-132668104D01*
X96311578Y-132663683D01*
G37*
D15*
%TO.C,RY1*%
X67035000Y-57440000D02*
X67435000Y-58140000D01*
X53935000Y-58140000D02*
X55135000Y-58140000D01*
X55135000Y-58140000D02*
X55135000Y-57440000D01*
X54335000Y-57440000D02*
X54735000Y-58140000D01*
X66635000Y-58140000D02*
X67835000Y-58140000D01*
X53935000Y-57440000D02*
X53935000Y-58140000D01*
X53245000Y-61740000D02*
X53245000Y-53960000D01*
X67835000Y-58140000D02*
X67835000Y-57440000D01*
X67835000Y-57440000D02*
X66635000Y-57440000D01*
X66635000Y-57440000D02*
X66635000Y-58140000D01*
X55135000Y-57440000D02*
X53935000Y-57440000D01*
X68525000Y-61740000D02*
X68525000Y-53960000D01*
%TD*%
M02*
