%TF.GenerationSoftware,KiCad,Pcbnew,(6.0.7)*%
%TF.CreationDate,2023-03-08T11:17:01-08:00*%
%TF.ProjectId,Relay_LED,52656c61-795f-44c4-9544-2e6b69636164,rev?*%
%TF.SameCoordinates,Original*%
%TF.FileFunction,Copper,L1,Top*%
%TF.FilePolarity,Positive*%
%FSLAX46Y46*%
G04 Gerber Fmt 4.6, Leading zero omitted, Abs format (unit mm)*
G04 Created by KiCad (PCBNEW (6.0.7)) date 2023-03-08 11:17:01*
%MOMM*%
%LPD*%
G01*
G04 APERTURE LIST*
G04 Aperture macros list*
%AMRoundRect*
0 Rectangle with rounded corners*
0 $1 Rounding radius*
0 $2 $3 $4 $5 $6 $7 $8 $9 X,Y pos of 4 corners*
0 Add a 4 corners polygon primitive as box body*
4,1,4,$2,$3,$4,$5,$6,$7,$8,$9,$2,$3,0*
0 Add four circle primitives for the rounded corners*
1,1,$1+$1,$2,$3*
1,1,$1+$1,$4,$5*
1,1,$1+$1,$6,$7*
1,1,$1+$1,$8,$9*
0 Add four rect primitives between the rounded corners*
20,1,$1+$1,$2,$3,$4,$5,0*
20,1,$1+$1,$4,$5,$6,$7,0*
20,1,$1+$1,$6,$7,$8,$9,0*
20,1,$1+$1,$8,$9,$2,$3,0*%
G04 Aperture macros list end*
%TA.AperFunction,ComponentPad*%
%ADD10C,2.000000*%
%TD*%
%TA.AperFunction,ComponentPad*%
%ADD11R,2.800000X3.600000*%
%TD*%
%TA.AperFunction,SMDPad,CuDef*%
%ADD12RoundRect,0.150000X-0.150000X0.825000X-0.150000X-0.825000X0.150000X-0.825000X0.150000X0.825000X0*%
%TD*%
%TA.AperFunction,ComponentPad*%
%ADD13C,1.600000*%
%TD*%
%TA.AperFunction,ComponentPad*%
%ADD14O,1.600000X1.600000*%
%TD*%
%TA.AperFunction,WasherPad*%
%ADD15C,4.000000*%
%TD*%
%TA.AperFunction,ComponentPad*%
%ADD16C,1.800000*%
%TD*%
%TA.AperFunction,ComponentPad*%
%ADD17C,3.016000*%
%TD*%
%TA.AperFunction,ComponentPad*%
%ADD18R,1.700000X1.700000*%
%TD*%
%TA.AperFunction,ComponentPad*%
%ADD19O,1.700000X1.700000*%
%TD*%
%TA.AperFunction,SMDPad,CuDef*%
%ADD20RoundRect,0.249750X0.305250X1.250250X-0.305250X1.250250X-0.305250X-1.250250X0.305250X-1.250250X0*%
%TD*%
%TA.AperFunction,ComponentPad*%
%ADD21R,1.500000X1.500000*%
%TD*%
%TA.AperFunction,ComponentPad*%
%ADD22C,1.500000*%
%TD*%
%TA.AperFunction,ComponentPad*%
%ADD23R,1.600000X1.600000*%
%TD*%
%TA.AperFunction,ComponentPad*%
%ADD24RoundRect,0.375000X0.375000X-0.375000X0.375000X0.375000X-0.375000X0.375000X-0.375000X-0.375000X0*%
%TD*%
%TA.AperFunction,ComponentPad*%
%ADD25R,1.800000X1.800000*%
%TD*%
%TA.AperFunction,ComponentPad*%
%ADD26R,1.398000X1.398000*%
%TD*%
%TA.AperFunction,ComponentPad*%
%ADD27C,1.398000*%
%TD*%
%TA.AperFunction,ComponentPad*%
%ADD28C,3.015000*%
%TD*%
%TA.AperFunction,ComponentPad*%
%ADD29R,1.500000X1.000000*%
%TD*%
%TA.AperFunction,ComponentPad*%
%ADD30O,1.500000X1.000000*%
%TD*%
%TA.AperFunction,ViaPad*%
%ADD31C,0.800000*%
%TD*%
%TA.AperFunction,Conductor*%
%ADD32C,0.400000*%
%TD*%
%TA.AperFunction,Conductor*%
%ADD33C,0.200000*%
%TD*%
G04 APERTURE END LIST*
D10*
%TO.P,S1,1*%
%TO.N,Net-(R7-Pad2)*%
X59725000Y-115900000D03*
%TO.P,S1,2*%
%TO.N,GND*%
X64725000Y-115900000D03*
D11*
%TO.P,S1,3*%
%TO.N,unconnected-(S1-Pad3)*%
X56525000Y-122900000D03*
X67925000Y-122900000D03*
D10*
%TO.P,S1,A,CH_A*%
%TO.N,ECa*%
X59725000Y-130400000D03*
%TO.P,S1,B,CH_B*%
%TO.N,ECb*%
X64725000Y-130400000D03*
%TO.P,S1,C,COM*%
%TO.N,GND*%
X62225000Y-130400000D03*
%TD*%
D12*
%TO.P,U1,1,VDD*%
%TO.N,+5V*%
X94785000Y-72525000D03*
%TO.P,U1,2,RA5*%
%TO.N,Net-(R8-Pad2)*%
X93515000Y-72525000D03*
%TO.P,U1,3,RA4*%
%TO.N,Cal*%
X92245000Y-72525000D03*
%TO.P,U1,4,Vpp/~{MCLR}/RA3*%
%TO.N,VPP*%
X90975000Y-72525000D03*
%TO.P,U1,5,RC5*%
%TO.N,R34r*%
X89705000Y-72525000D03*
%TO.P,U1,6,RC4*%
%TO.N,R34s*%
X88435000Y-72525000D03*
%TO.P,U1,7,RC3*%
%TO.N,unconnected-(U1-Pad7)*%
X87165000Y-72525000D03*
%TO.P,U1,8,RC2*%
%TO.N,15m*%
X87165000Y-77475000D03*
%TO.P,U1,9,RC1*%
%TO.N,20m*%
X88435000Y-77475000D03*
%TO.P,U1,10,RC0*%
%TO.N,R12r*%
X89705000Y-77475000D03*
%TO.P,U1,11,RA2*%
%TO.N,R12s*%
X90975000Y-77475000D03*
%TO.P,U1,12,ICSPCLK/RA1*%
%TO.N,ICSPCLK*%
X92245000Y-77475000D03*
%TO.P,U1,13,ICSPDAT/RA0*%
%TO.N,ICSPDAT*%
X93515000Y-77475000D03*
%TO.P,U1,14,VSS*%
%TO.N,GND*%
X94785000Y-77475000D03*
%TD*%
D13*
%TO.P,R3,1*%
%TO.N,20m*%
X72550000Y-101540000D03*
D14*
%TO.P,R3,2*%
%TO.N,Net-(Q1-Pad2)*%
X72550000Y-109160000D03*
%TD*%
D15*
%TO.P,R9,*%
%TO.N,*%
X62500000Y-102175000D03*
X62500000Y-93375000D03*
D16*
%TO.P,R9,1,1*%
%TO.N,Vol1*%
X69500000Y-95275000D03*
%TO.P,R9,2,2*%
%TO.N,Wiper*%
X69500000Y-97775000D03*
%TO.P,R9,3,3*%
%TO.N,Vol3*%
X69500000Y-100275000D03*
%TD*%
D17*
%TO.P,CON1,1,S*%
%TO.N,GND*%
X115825000Y-88007100D03*
%TO.P,CON1,2,T*%
%TO.N,Dit*%
X112325000Y-83507100D03*
%TO.P,CON1,3,R*%
%TO.N,Dah*%
X107525000Y-93007100D03*
%TD*%
D18*
%TO.P,J7,1,Pin_1*%
%TO.N,R2.7*%
X55260000Y-87090000D03*
D19*
%TO.P,J7,2,Pin_2*%
%TO.N,R2.8*%
X57800000Y-87090000D03*
%TO.P,J7,3,Pin_3*%
%TO.N,R2.9*%
X60340000Y-87090000D03*
%TO.P,J7,4,Pin_4*%
%TO.N,R2.10*%
X62880000Y-87090000D03*
%TO.P,J7,5,Pin_5*%
%TO.N,GND*%
X65420000Y-87090000D03*
%TD*%
D13*
%TO.P,C5,1*%
%TO.N,VDD*%
X101500000Y-61525000D03*
%TO.P,C5,2*%
%TO.N,GND*%
X101500000Y-64025000D03*
%TD*%
D18*
%TO.P,J13,1,Pin_1*%
%TO.N,VDD*%
X80645000Y-54080000D03*
D19*
%TO.P,J13,2,Pin_2*%
%TO.N,R3.3*%
X78105000Y-54080000D03*
%TO.P,J13,3,Pin_3*%
%TO.N,R3.4*%
X75565000Y-54080000D03*
%TO.P,J13,4,Pin_4*%
%TO.N,R3.5*%
X73025000Y-54080000D03*
%TO.P,J13,5,Pin_5*%
%TO.N,R3.6*%
X70485000Y-54080000D03*
%TD*%
D18*
%TO.P,J1,1,Pin_1*%
%TO.N,GND*%
X116200000Y-135350000D03*
D19*
%TO.P,J1,2,Pin_2*%
%TO.N,ECb*%
X113660000Y-135350000D03*
%TO.P,J1,3,Pin_3*%
%TO.N,ECa*%
X111120000Y-135350000D03*
%TO.P,J1,4,Pin_4*%
%TO.N,D1*%
X108580000Y-135350000D03*
%TO.P,J1,5,Pin_5*%
%TO.N,D2*%
X106040000Y-135350000D03*
%TO.P,J1,6,Pin_6*%
%TO.N,dp*%
X103500000Y-135350000D03*
%TO.P,J1,7,Pin_7*%
%TO.N,e*%
X100960000Y-135350000D03*
%TO.P,J1,8,Pin_8*%
%TO.N,d*%
X98420000Y-135350000D03*
%TO.P,J1,9,Pin_9*%
%TO.N,D4*%
X95880000Y-135350000D03*
%TO.P,J1,10,Pin_10*%
%TO.N,D3*%
X93340000Y-135350000D03*
%TO.P,J1,11,Pin_11*%
%TO.N,f*%
X90800000Y-135350000D03*
%TO.P,J1,12,Pin_12*%
%TO.N,c*%
X88260000Y-135350000D03*
%TO.P,J1,13,Pin_13*%
%TO.N,a*%
X85720000Y-135350000D03*
%TO.P,J1,14,Pin_14*%
%TO.N,g*%
X83180000Y-135350000D03*
%TO.P,J1,15,Pin_15*%
%TO.N,b*%
X80640000Y-135350000D03*
%TO.P,J1,16,Pin_16*%
%TO.N,SW*%
X78100000Y-135350000D03*
%TD*%
D13*
%TO.P,R10,1*%
%TO.N,R12s*%
X62150000Y-66675000D03*
D14*
%TO.P,R10,2*%
%TO.N,Net-(Q3-Pad2)*%
X54530000Y-66675000D03*
%TD*%
D20*
%TO.P,RY2,1,SET+*%
%TO.N,R1.6*%
X67240000Y-79600000D03*
%TO.P,RY2,3,NC1*%
%TO.N,R2.3*%
X62160000Y-79600000D03*
%TO.P,RY2,4,C1*%
%TO.N,R2.4*%
X59620000Y-79600000D03*
%TO.P,RY2,5,NO1*%
%TO.N,R2.5*%
X57080000Y-79600000D03*
%TO.P,RY2,6,SET-*%
%TO.N,R2.6*%
X54540000Y-79600000D03*
%TO.P,RY2,7,RESET-*%
%TO.N,R2.7*%
X54540000Y-86890000D03*
%TO.P,RY2,8,NO2*%
%TO.N,R2.8*%
X57080000Y-86890000D03*
%TO.P,RY2,9,C2*%
%TO.N,R2.9*%
X59620000Y-86890000D03*
%TO.P,RY2,10,NC2*%
%TO.N,R2.10*%
X62160000Y-86890000D03*
%TO.P,RY2,12,RESET+*%
%TO.N,R1.7*%
X67240000Y-86890000D03*
%TD*%
D18*
%TO.P,J2,1,Pin_1*%
%TO.N,VPP*%
X115700000Y-71025000D03*
D19*
%TO.P,J2,2,Pin_2*%
%TO.N,+5V*%
X113160000Y-71025000D03*
%TO.P,J2,3,Pin_3*%
%TO.N,GND*%
X110620000Y-71025000D03*
%TO.P,J2,4,Pin_4*%
%TO.N,ICSPDAT*%
X108080000Y-71025000D03*
%TO.P,J2,5,Pin_5*%
%TO.N,ICSPCLK*%
X105540000Y-71025000D03*
%TO.P,J2,6,Pin_6*%
%TO.N,unconnected-(J2-Pad6)*%
X103000000Y-71025000D03*
%TD*%
D13*
%TO.P,R8,1*%
%TO.N,GND*%
X89300000Y-89860000D03*
D14*
%TO.P,R8,2*%
%TO.N,Net-(R8-Pad2)*%
X89300000Y-82240000D03*
%TD*%
D18*
%TO.P,J12,1,Pin_1*%
%TO.N,R1.6*%
X65410000Y-79480000D03*
D19*
%TO.P,J12,2,Pin_2*%
%TO.N,R2.3*%
X62870000Y-79480000D03*
%TO.P,J12,3,Pin_3*%
%TO.N,R2.4*%
X60330000Y-79480000D03*
%TO.P,J12,4,Pin_4*%
%TO.N,R2.5*%
X57790000Y-79480000D03*
%TO.P,J12,5,Pin_5*%
%TO.N,R2.6*%
X55250000Y-79480000D03*
%TD*%
D18*
%TO.P,J8,1,Pin_1*%
%TO.N,R3.7*%
X70495000Y-61700000D03*
D19*
%TO.P,J8,2,Pin_2*%
%TO.N,R3.8*%
X73035000Y-61700000D03*
%TO.P,J8,3,Pin_3*%
%TO.N,R3.9*%
X75575000Y-61700000D03*
%TO.P,J8,4,Pin_4*%
%TO.N,R3.10*%
X78115000Y-61700000D03*
%TO.P,J8,5,Pin_5*%
%TO.N,R3.6*%
X80655000Y-61700000D03*
%TD*%
D13*
%TO.P,R13,1*%
%TO.N,R34r*%
X81650000Y-68400000D03*
D14*
%TO.P,R13,2*%
%TO.N,Net-(Q6-Pad2)*%
X81650000Y-76020000D03*
%TD*%
D13*
%TO.P,R4,1*%
%TO.N,15m*%
X52900000Y-105200000D03*
D14*
%TO.P,R4,2*%
%TO.N,Net-(Q2-Pad2)*%
X52900000Y-112820000D03*
%TD*%
D18*
%TO.P,J5,1,Pin_1*%
%TO.N,Cal*%
X97375000Y-68575000D03*
D19*
%TO.P,J5,2,Pin_2*%
%TO.N,GND*%
X97375000Y-71115000D03*
%TD*%
D21*
%TO.P,Q2,1,E*%
%TO.N,GND*%
X58800000Y-107375000D03*
D22*
%TO.P,Q2,2,B*%
%TO.N,Net-(Q2-Pad2)*%
X58800000Y-109975000D03*
%TO.P,Q2,3,C*%
%TO.N,Net-(Q2-Pad3)*%
X58800000Y-112575000D03*
%TD*%
D23*
%TO.P,C3,1*%
%TO.N,+5V*%
X114007380Y-59225000D03*
D13*
%TO.P,C3,2*%
%TO.N,GND*%
X111507380Y-59225000D03*
%TD*%
D18*
%TO.P,J9,1,Pin_1*%
%TO.N,R4.7*%
X70500000Y-87090000D03*
D19*
%TO.P,J9,2,Pin_2*%
%TO.N,R4.8*%
X73040000Y-87090000D03*
%TO.P,J9,3,Pin_3*%
%TO.N,R4.9*%
X75580000Y-87090000D03*
%TO.P,J9,4,Pin_4*%
%TO.N,R4.10*%
X78120000Y-87090000D03*
%TO.P,J9,5,Pin_5*%
%TO.N,GND*%
X80660000Y-87090000D03*
%TD*%
D18*
%TO.P,J4,1,Pin_1*%
%TO.N,Vol1*%
X52950000Y-95325000D03*
D19*
%TO.P,J4,2,Pin_2*%
%TO.N,Wiper*%
X52950000Y-97865000D03*
%TO.P,J4,3,Pin_3*%
%TO.N,Vol3*%
X52950000Y-100405000D03*
%TD*%
D13*
%TO.P,C2,1*%
%TO.N,ECa*%
X59750000Y-132925000D03*
%TO.P,C2,2*%
%TO.N,GND*%
X59750000Y-135425000D03*
%TD*%
%TO.P,R11,1*%
%TO.N,R12r*%
X66625000Y-68375000D03*
D14*
%TO.P,R11,2*%
%TO.N,Net-(Q4-Pad2)*%
X66625000Y-75995000D03*
%TD*%
D13*
%TO.P,R7,1*%
%TO.N,SW*%
X52750000Y-126235000D03*
D14*
%TO.P,R7,2*%
%TO.N,Net-(R7-Pad2)*%
X52750000Y-118615000D03*
%TD*%
D24*
%TO.P,DSP1,1,CA1*%
%TO.N,D1*%
X86010000Y-120847500D03*
D22*
%TO.P,DSP1,2,CA2*%
%TO.N,D2*%
X88550000Y-120847500D03*
%TO.P,DSP1,3,D*%
%TO.N,d*%
X91090000Y-120847500D03*
%TO.P,DSP1,4,CAL*%
%TO.N,unconnected-(DSP1-Pad4)*%
X93630000Y-120847500D03*
%TO.P,DSP1,5,E*%
%TO.N,e*%
X96170000Y-120847500D03*
%TO.P,DSP1,6,CA3*%
%TO.N,D3*%
X98710000Y-120847500D03*
%TO.P,DSP1,7,DP*%
%TO.N,dp*%
X101250000Y-120847500D03*
%TO.P,DSP1,8,CA4*%
%TO.N,D4*%
X103790000Y-120847500D03*
%TO.P,DSP1,9,NC*%
%TO.N,unconnected-(DSP1-Pad9)*%
X103790000Y-110687500D03*
%TO.P,DSP1,11,F*%
%TO.N,f*%
X98710000Y-110687500D03*
%TO.P,DSP1,13,C*%
%TO.N,c*%
X93630000Y-110687500D03*
%TO.P,DSP1,14,A*%
%TO.N,a*%
X91090000Y-110687500D03*
%TO.P,DSP1,15,G*%
%TO.N,g*%
X88550000Y-110687500D03*
%TO.P,DSP1,16,B*%
%TO.N,b*%
X86010000Y-110687500D03*
%TD*%
D21*
%TO.P,Q5,1,E*%
%TO.N,GND*%
X70550000Y-70175000D03*
D22*
%TO.P,Q5,2,B*%
%TO.N,Net-(Q5-Pad2)*%
X70550000Y-72775000D03*
%TO.P,Q5,3,C*%
%TO.N,R4.6*%
X70550000Y-75375000D03*
%TD*%
D10*
%TO.P,SW2,1,1*%
%TO.N,Net-(R8-Pad2)*%
X82525000Y-124600000D03*
X76025000Y-124600000D03*
%TO.P,SW2,2,2*%
%TO.N,+5V*%
X82525000Y-129100000D03*
X76025000Y-129100000D03*
%TD*%
D13*
%TO.P,R12,1*%
%TO.N,R34s*%
X77650000Y-66675000D03*
D14*
%TO.P,R12,2*%
%TO.N,Net-(Q5-Pad2)*%
X70030000Y-66675000D03*
%TD*%
D25*
%TO.P,D2,1,K*%
%TO.N,GND*%
X97600000Y-126925000D03*
D16*
%TO.P,D2,2,A*%
%TO.N,Net-(D2-Pad2)*%
X100140000Y-126925000D03*
%TD*%
D26*
%TO.P,J10,1,1*%
%TO.N,R1.9*%
X92050000Y-62466500D03*
D27*
%TO.P,J10,2,2*%
%TO.N,GND*%
X89510000Y-62466500D03*
D28*
%TO.P,J10,P1,SHIELD*%
X86970000Y-57386500D03*
%TO.P,J10,P2,SHIELD*%
X97130000Y-57386500D03*
%TD*%
D13*
%TO.P,C1,1*%
%TO.N,+5V*%
X97525000Y-73825000D03*
%TO.P,C1,2*%
%TO.N,GND*%
X97525000Y-76325000D03*
%TD*%
%TO.P,R5,1*%
%TO.N,SW*%
X72475000Y-119400000D03*
D14*
%TO.P,R5,2*%
%TO.N,Net-(Q1-Pad3)*%
X72475000Y-111780000D03*
%TD*%
D18*
%TO.P,J14,1,Pin_1*%
%TO.N,R3.6*%
X80650000Y-79480000D03*
D19*
%TO.P,J14,2,Pin_2*%
%TO.N,R4.3*%
X78110000Y-79480000D03*
%TO.P,J14,3,Pin_3*%
%TO.N,R4.4*%
X75570000Y-79480000D03*
%TO.P,J14,4,Pin_4*%
%TO.N,R4.5*%
X73030000Y-79480000D03*
%TO.P,J14,5,Pin_5*%
%TO.N,R4.6*%
X70490000Y-79480000D03*
%TD*%
D21*
%TO.P,Q3,1,E*%
%TO.N,GND*%
X55275000Y-70250000D03*
D22*
%TO.P,Q3,2,B*%
%TO.N,Net-(Q3-Pad2)*%
X55275000Y-72850000D03*
%TO.P,Q3,3,C*%
%TO.N,R2.6*%
X55275000Y-75450000D03*
%TD*%
D13*
%TO.P,C4,1*%
%TO.N,ECb*%
X64750000Y-132800000D03*
%TO.P,C4,2*%
%TO.N,GND*%
X64750000Y-135300000D03*
%TD*%
D29*
%TO.P,U2,1,OUT*%
%TO.N,+5V*%
X106275000Y-63920000D03*
D30*
%TO.P,U2,2,GND*%
%TO.N,GND*%
X106275000Y-62650000D03*
%TO.P,U2,3,IN*%
%TO.N,VDD*%
X106275000Y-61380000D03*
%TD*%
D20*
%TO.P,RY3,1,SET+*%
%TO.N,VDD*%
X82475000Y-54205000D03*
%TO.P,RY3,3,NC1*%
%TO.N,R3.3*%
X77395000Y-54205000D03*
%TO.P,RY3,4,C1*%
%TO.N,R3.4*%
X74855000Y-54205000D03*
%TO.P,RY3,5,NO1*%
%TO.N,R3.5*%
X72315000Y-54205000D03*
%TO.P,RY3,6,SET-*%
%TO.N,R3.6*%
X69775000Y-54205000D03*
%TO.P,RY3,7,RESET-*%
%TO.N,R3.7*%
X69775000Y-61495000D03*
%TO.P,RY3,8,NO2*%
%TO.N,R3.8*%
X72315000Y-61495000D03*
%TO.P,RY3,9,C2*%
%TO.N,R3.9*%
X74855000Y-61495000D03*
%TO.P,RY3,10,NC2*%
%TO.N,R3.10*%
X77395000Y-61495000D03*
%TO.P,RY3,12,RESET+*%
%TO.N,VDD*%
X82475000Y-61495000D03*
%TD*%
D10*
%TO.P,SW1,1,1*%
%TO.N,SW*%
X113750000Y-124500000D03*
X107250000Y-124500000D03*
%TO.P,SW1,2,2*%
%TO.N,GND*%
X107250000Y-129000000D03*
X113750000Y-129000000D03*
%TD*%
D13*
%TO.P,R2,1*%
%TO.N,Net-(D2-Pad2)*%
X103900000Y-131485000D03*
D14*
%TO.P,R2,2*%
%TO.N,15m*%
X103900000Y-123865000D03*
%TD*%
D25*
%TO.P,D1,1,K*%
%TO.N,GND*%
X89875000Y-126875000D03*
D16*
%TO.P,D1,2,A*%
%TO.N,Net-(D1-Pad2)*%
X92415000Y-126875000D03*
%TD*%
D18*
%TO.P,J3,1,Pin_1*%
%TO.N,Dit*%
X98425000Y-97250000D03*
D19*
%TO.P,J3,2,Pin_2*%
%TO.N,GND*%
X100965000Y-97250000D03*
%TO.P,J3,3,Pin_3*%
%TO.N,Dah*%
X103505000Y-97250000D03*
%TD*%
D20*
%TO.P,RY4,1,SET+*%
%TO.N,R3.6*%
X82475000Y-79605000D03*
%TO.P,RY4,3,NC1*%
%TO.N,R4.3*%
X77395000Y-79605000D03*
%TO.P,RY4,4,C1*%
%TO.N,R4.4*%
X74855000Y-79605000D03*
%TO.P,RY4,5,NO1*%
%TO.N,R4.5*%
X72315000Y-79605000D03*
%TO.P,RY4,6,SET-*%
%TO.N,R4.6*%
X69775000Y-79605000D03*
%TO.P,RY4,7,RESET-*%
%TO.N,R4.7*%
X69775000Y-86895000D03*
%TO.P,RY4,8,NO2*%
%TO.N,R4.8*%
X72315000Y-86895000D03*
%TO.P,RY4,9,C2*%
%TO.N,R4.9*%
X74855000Y-86895000D03*
%TO.P,RY4,10,NC2*%
%TO.N,R4.10*%
X77395000Y-86895000D03*
%TO.P,RY4,12,RESET+*%
%TO.N,R3.7*%
X82475000Y-86895000D03*
%TD*%
D13*
%TO.P,R6,1*%
%TO.N,SW*%
X72400000Y-130195000D03*
D14*
%TO.P,R6,2*%
%TO.N,Net-(Q2-Pad3)*%
X72400000Y-122575000D03*
%TD*%
D21*
%TO.P,Q1,1,E*%
%TO.N,GND*%
X66500000Y-107225000D03*
D22*
%TO.P,Q1,2,B*%
%TO.N,Net-(Q1-Pad2)*%
X66500000Y-109825000D03*
%TO.P,Q1,3,C*%
%TO.N,Net-(Q1-Pad3)*%
X66500000Y-112425000D03*
%TD*%
D18*
%TO.P,J11,1,Pin_1*%
%TO.N,VDD*%
X65405000Y-54080000D03*
D19*
%TO.P,J11,2,Pin_2*%
%TO.N,R1.3*%
X62865000Y-54080000D03*
%TO.P,J11,3,Pin_3*%
%TO.N,R1.4*%
X60325000Y-54080000D03*
%TO.P,J11,4,Pin_4*%
%TO.N,R1.5*%
X57785000Y-54080000D03*
%TO.P,J11,5,Pin_5*%
%TO.N,R1.6*%
X55245000Y-54080000D03*
%TD*%
D13*
%TO.P,R1,1*%
%TO.N,Net-(D1-Pad2)*%
X86000000Y-131485000D03*
D14*
%TO.P,R1,2*%
%TO.N,20m*%
X86000000Y-123865000D03*
%TD*%
D21*
%TO.P,Q6,1,E*%
%TO.N,GND*%
X76675000Y-70200000D03*
D22*
%TO.P,Q6,2,B*%
%TO.N,Net-(Q6-Pad2)*%
X76675000Y-72800000D03*
%TO.P,Q6,3,C*%
%TO.N,R4.7*%
X76675000Y-75400000D03*
%TD*%
D21*
%TO.P,Q4,1,E*%
%TO.N,GND*%
X61800000Y-70175000D03*
D22*
%TO.P,Q4,2,B*%
%TO.N,Net-(Q4-Pad2)*%
X61800000Y-72775000D03*
%TO.P,Q4,3,C*%
%TO.N,R2.7*%
X61800000Y-75375000D03*
%TD*%
D18*
%TO.P,J6,1,Pin_1*%
%TO.N,R1.7*%
X55255000Y-61700000D03*
D19*
%TO.P,J6,2,Pin_2*%
%TO.N,R1.8*%
X57795000Y-61700000D03*
%TO.P,J6,3,Pin_3*%
%TO.N,R1.9*%
X60335000Y-61700000D03*
%TO.P,J6,4,Pin_4*%
%TO.N,R1.10*%
X62875000Y-61700000D03*
%TO.P,J6,5,Pin_5*%
%TO.N,R1.6*%
X65415000Y-61700000D03*
%TD*%
D20*
%TO.P,RY1,1,SET+*%
%TO.N,VDD*%
X67235000Y-54205000D03*
%TO.P,RY1,3,NC1*%
%TO.N,R1.3*%
X62155000Y-54205000D03*
%TO.P,RY1,4,C1*%
%TO.N,R1.4*%
X59615000Y-54205000D03*
%TO.P,RY1,5,NO1*%
%TO.N,R1.5*%
X57075000Y-54205000D03*
%TO.P,RY1,6,SET-*%
%TO.N,R1.6*%
X54535000Y-54205000D03*
%TO.P,RY1,7,RESET-*%
%TO.N,R1.7*%
X54535000Y-61495000D03*
%TO.P,RY1,8,NO2*%
%TO.N,R1.8*%
X57075000Y-61495000D03*
%TO.P,RY1,9,C2*%
%TO.N,R1.9*%
X59615000Y-61495000D03*
%TO.P,RY1,10,NC2*%
%TO.N,R1.10*%
X62155000Y-61495000D03*
%TO.P,RY1,12,RESET+*%
%TO.N,VDD*%
X67235000Y-61495000D03*
%TD*%
D31*
%TO.N,ECa*%
X66625000Y-136500000D03*
X68750000Y-135700000D03*
%TO.N,R3.6*%
X73675000Y-68200000D03*
%TO.N,R3.7*%
X71817878Y-66307122D03*
%TO.N,R1.6*%
X65300000Y-67374500D03*
%TO.N,VPP*%
X111700000Y-67050000D03*
X115700000Y-67050000D03*
%TO.N,15m*%
X74300000Y-105200000D03*
X110775000Y-126425000D03*
X78725000Y-105200000D03*
%TO.N,20m*%
X75375000Y-122661485D03*
%TO.N,e*%
X96200000Y-118800000D03*
%TO.N,dp*%
X101250000Y-118100500D03*
%TD*%
D32*
%TO.N,Net-(Q6-Pad2)*%
X78430000Y-72800000D02*
X81650000Y-76020000D01*
X76675000Y-72800000D02*
X78430000Y-72800000D01*
%TO.N,R4.7*%
X69970000Y-87090000D02*
X69775000Y-86895000D01*
X70500000Y-87090000D02*
X69970000Y-87090000D01*
%TO.N,GND*%
X95935000Y-76325000D02*
X94785000Y-77475000D01*
X97525000Y-76325000D02*
X95935000Y-76325000D01*
%TO.N,Net-(Q5-Pad2)*%
X69230001Y-71455001D02*
X70550000Y-72775000D01*
X69230001Y-67474999D02*
X69230001Y-71455001D01*
X70030000Y-66675000D02*
X69230001Y-67474999D01*
%TO.N,R4.6*%
X70490000Y-79480000D02*
X69900000Y-79480000D01*
X69900000Y-79480000D02*
X69775000Y-79605000D01*
X70550000Y-75375000D02*
X70550000Y-78830000D01*
X70550000Y-78830000D02*
X69775000Y-79605000D01*
%TO.N,Net-(Q4-Pad2)*%
X61800000Y-72775000D02*
X63405000Y-72775000D01*
X63405000Y-72775000D02*
X66625000Y-75995000D01*
%TO.N,R2.7*%
X55260000Y-87090000D02*
X54740000Y-87090000D01*
X54740000Y-87090000D02*
X54540000Y-86890000D01*
%TO.N,Net-(Q3-Pad2)*%
X53150000Y-70725000D02*
X55275000Y-72850000D01*
X53150000Y-68055000D02*
X53150000Y-70725000D01*
X54530000Y-66675000D02*
X53150000Y-68055000D01*
%TO.N,R2.6*%
X55250000Y-79480000D02*
X54660000Y-79480000D01*
X55275000Y-75450000D02*
X55275000Y-78865000D01*
X54660000Y-79480000D02*
X54540000Y-79600000D01*
X55275000Y-78865000D02*
X54540000Y-79600000D01*
D33*
%TO.N,Net-(Q2-Pad2)*%
X52900000Y-112820000D02*
X55955000Y-112820000D01*
X55955000Y-112820000D02*
X58800000Y-109975000D01*
%TO.N,Net-(Q2-Pad3)*%
X69525000Y-119700000D02*
X72400000Y-122575000D01*
X58800000Y-112575000D02*
X65925000Y-119700000D01*
X65925000Y-119700000D02*
X69525000Y-119700000D01*
%TO.N,Net-(Q1-Pad2)*%
X71885000Y-109825000D02*
X72550000Y-109160000D01*
X66500000Y-109825000D02*
X71885000Y-109825000D01*
%TO.N,Net-(Q1-Pad3)*%
X66500000Y-112425000D02*
X71830000Y-112425000D01*
X71830000Y-112425000D02*
X72475000Y-111780000D01*
D32*
%TO.N,VDD*%
X106130000Y-61525000D02*
X106275000Y-61380000D01*
X69135000Y-52305000D02*
X80575000Y-52305000D01*
X83420000Y-60550000D02*
X100525000Y-60550000D01*
X101500000Y-61525000D02*
X106130000Y-61525000D01*
X80770000Y-54205000D02*
X80645000Y-54080000D01*
X67110000Y-54080000D02*
X67235000Y-54205000D01*
X80575000Y-52305000D02*
X82475000Y-54205000D01*
X82475000Y-54205000D02*
X80770000Y-54205000D01*
X65405000Y-54080000D02*
X67110000Y-54080000D01*
X100525000Y-60550000D02*
X101500000Y-61525000D01*
X67235000Y-54205000D02*
X69135000Y-52305000D01*
X67235000Y-54205000D02*
X67235000Y-61495000D01*
X82475000Y-61495000D02*
X83420000Y-60550000D01*
X82475000Y-54205000D02*
X82475000Y-61495000D01*
%TO.N,+5V*%
X114007380Y-70177620D02*
X113160000Y-71025000D01*
X97525000Y-73825000D02*
X102098575Y-69251425D01*
X114007380Y-59225000D02*
X109312380Y-63920000D01*
X114007380Y-59225000D02*
X114007380Y-70177620D01*
D33*
X104310000Y-79875000D02*
X113160000Y-71025000D01*
X78025000Y-127100000D02*
X78025000Y-97225000D01*
D32*
X94785000Y-72525000D02*
X96225000Y-72525000D01*
X96225000Y-72525000D02*
X97525000Y-73825000D01*
D33*
X78025000Y-97225000D02*
X95375000Y-79875000D01*
X76025000Y-129100000D02*
X78025000Y-127100000D01*
D32*
X102098575Y-69251425D02*
X111386425Y-69251425D01*
X109312380Y-63920000D02*
X106275000Y-63920000D01*
D33*
X95375000Y-79875000D02*
X104310000Y-79875000D01*
D32*
X111386425Y-69251425D02*
X113160000Y-71025000D01*
D33*
%TO.N,Net-(R7-Pad2)*%
X52750000Y-118615000D02*
X57010000Y-118615000D01*
X57010000Y-118615000D02*
X59725000Y-115900000D01*
%TO.N,ECa*%
X59750000Y-130425000D02*
X59725000Y-130400000D01*
X63325000Y-136500000D02*
X59750000Y-132925000D01*
X109945000Y-136525000D02*
X111120000Y-135350000D01*
X63325000Y-136500000D02*
X66625000Y-136500000D01*
X68775000Y-135675000D02*
X69625000Y-136525000D01*
X69625000Y-136525000D02*
X109945000Y-136525000D01*
X59750000Y-132925000D02*
X59750000Y-130425000D01*
%TO.N,ECb*%
X64725000Y-132775000D02*
X64750000Y-132800000D01*
X68969000Y-137019000D02*
X64750000Y-132800000D01*
X113660000Y-135350000D02*
X111991000Y-137019000D01*
X111991000Y-137019000D02*
X68969000Y-137019000D01*
X64725000Y-130400000D02*
X64725000Y-132775000D01*
D32*
%TO.N,R3.3*%
X78105000Y-54080000D02*
X77520000Y-54080000D01*
X77520000Y-54080000D02*
X77395000Y-54205000D01*
%TO.N,R3.4*%
X74980000Y-54080000D02*
X74855000Y-54205000D01*
X75565000Y-54080000D02*
X74980000Y-54080000D01*
%TO.N,R3.5*%
X73025000Y-54080000D02*
X72440000Y-54080000D01*
X72440000Y-54080000D02*
X72315000Y-54205000D01*
%TO.N,R3.6*%
X70485000Y-54080000D02*
X70485000Y-55282081D01*
X75450000Y-71350000D02*
X74275000Y-70175000D01*
X82850000Y-79230000D02*
X82850000Y-75450000D01*
X78750000Y-71350000D02*
X75450000Y-71350000D01*
X73527919Y-58325000D02*
X77425000Y-58325000D01*
X74275000Y-70175000D02*
X74275000Y-68800000D01*
X82475000Y-79605000D02*
X80775000Y-79605000D01*
X70485000Y-54080000D02*
X69900000Y-54080000D01*
X77425000Y-58470000D02*
X80655000Y-61700000D01*
X82475000Y-79605000D02*
X82850000Y-79230000D01*
X80775000Y-79605000D02*
X80650000Y-79480000D01*
X82850000Y-75450000D02*
X78763578Y-71363578D01*
X70485000Y-55282081D02*
X73527919Y-58325000D01*
X69900000Y-54080000D02*
X69775000Y-54205000D01*
X77425000Y-58325000D02*
X77425000Y-58470000D01*
X74275000Y-68800000D02*
X73675000Y-68200000D01*
X78763578Y-71363578D02*
X78750000Y-71350000D01*
%TO.N,R3.7*%
X76198654Y-73950000D02*
X72025000Y-69776346D01*
X70495000Y-61700000D02*
X69980000Y-61700000D01*
X79400000Y-83820000D02*
X79400000Y-76300000D01*
X72025000Y-69776346D02*
X71817878Y-69569224D01*
X77050000Y-73950000D02*
X76198654Y-73950000D01*
X69980000Y-61700000D02*
X69775000Y-61495000D01*
X82475000Y-86895000D02*
X79400000Y-83820000D01*
X79400000Y-76300000D02*
X77050000Y-73950000D01*
X71817878Y-69569224D02*
X71817878Y-66307122D01*
%TO.N,R3.8*%
X73035000Y-61700000D02*
X72520000Y-61700000D01*
X72520000Y-61700000D02*
X72315000Y-61495000D01*
%TO.N,R3.9*%
X75060000Y-61700000D02*
X74855000Y-61495000D01*
X75575000Y-61700000D02*
X75060000Y-61700000D01*
%TO.N,R3.10*%
X77600000Y-61700000D02*
X77395000Y-61495000D01*
X78115000Y-61700000D02*
X77600000Y-61700000D01*
%TO.N,R4.3*%
X78110000Y-79480000D02*
X77520000Y-79480000D01*
X77520000Y-79480000D02*
X77395000Y-79605000D01*
%TO.N,R4.4*%
X75570000Y-79480000D02*
X74980000Y-79480000D01*
X74980000Y-79480000D02*
X74855000Y-79605000D01*
%TO.N,R4.5*%
X73030000Y-79480000D02*
X72440000Y-79480000D01*
X72440000Y-79480000D02*
X72315000Y-79605000D01*
%TO.N,R4.8*%
X73040000Y-87090000D02*
X72510000Y-87090000D01*
X72510000Y-87090000D02*
X72315000Y-86895000D01*
%TO.N,R4.9*%
X75050000Y-87090000D02*
X74855000Y-86895000D01*
X75580000Y-87090000D02*
X75050000Y-87090000D01*
%TO.N,R4.10*%
X78120000Y-87090000D02*
X77590000Y-87090000D01*
X77590000Y-87090000D02*
X77395000Y-86895000D01*
%TO.N,R1.6*%
X67240000Y-79600000D02*
X65530000Y-79600000D01*
X63000000Y-57900000D02*
X65415000Y-60315000D01*
X65415000Y-60315000D02*
X65415000Y-61700000D01*
X67240000Y-79600000D02*
X67825000Y-79015000D01*
X67825000Y-73575000D02*
X65300000Y-71050000D01*
X65300000Y-71050000D02*
X65300000Y-67374500D01*
X55245000Y-55282081D02*
X57862919Y-57900000D01*
X55245000Y-54080000D02*
X55245000Y-55282081D01*
X54660000Y-54080000D02*
X54535000Y-54205000D01*
X65530000Y-79600000D02*
X65410000Y-79480000D01*
X67825000Y-79015000D02*
X67825000Y-73575000D01*
X55245000Y-54080000D02*
X54660000Y-54080000D01*
X57862919Y-57900000D02*
X63000000Y-57900000D01*
%TO.N,R2.3*%
X62280000Y-79480000D02*
X62160000Y-79600000D01*
X62870000Y-79480000D02*
X62280000Y-79480000D01*
%TO.N,R2.4*%
X60330000Y-79480000D02*
X59740000Y-79480000D01*
X59740000Y-79480000D02*
X59620000Y-79600000D01*
%TO.N,R2.5*%
X57790000Y-79480000D02*
X57200000Y-79480000D01*
X57200000Y-79480000D02*
X57080000Y-79600000D01*
%TO.N,R2.8*%
X57800000Y-87090000D02*
X57280000Y-87090000D01*
X57280000Y-87090000D02*
X57080000Y-86890000D01*
%TO.N,R2.9*%
X60340000Y-87090000D02*
X59820000Y-87090000D01*
X59820000Y-87090000D02*
X59620000Y-86890000D01*
%TO.N,R2.10*%
X62360000Y-87090000D02*
X62160000Y-86890000D01*
X62880000Y-87090000D02*
X62360000Y-87090000D01*
%TO.N,R1.7*%
X55825000Y-68426346D02*
X55825000Y-62270000D01*
X55825000Y-62270000D02*
X55255000Y-61700000D01*
X64160000Y-83810000D02*
X64160000Y-75910000D01*
X67240000Y-86890000D02*
X64160000Y-83810000D01*
X64160000Y-75910000D02*
X62175000Y-73925000D01*
X54740000Y-61700000D02*
X54535000Y-61495000D01*
X55255000Y-61700000D02*
X54740000Y-61700000D01*
X62175000Y-73925000D02*
X61323654Y-73925000D01*
X61323654Y-73925000D02*
X55825000Y-68426346D01*
%TO.N,R1.3*%
X62865000Y-54080000D02*
X62280000Y-54080000D01*
X62280000Y-54080000D02*
X62155000Y-54205000D01*
%TO.N,R1.4*%
X60325000Y-54080000D02*
X59740000Y-54080000D01*
X59740000Y-54080000D02*
X59615000Y-54205000D01*
%TO.N,R1.5*%
X57200000Y-54080000D02*
X57075000Y-54205000D01*
X57785000Y-54080000D02*
X57200000Y-54080000D01*
%TO.N,R1.8*%
X57280000Y-61700000D02*
X57075000Y-61495000D01*
X57795000Y-61700000D02*
X57280000Y-61700000D01*
%TO.N,R1.9*%
X60335000Y-62902081D02*
X61572431Y-64139512D01*
X61572431Y-64139512D02*
X90376988Y-64139512D01*
X60335000Y-61700000D02*
X59820000Y-61700000D01*
X90376988Y-64139512D02*
X92050000Y-62466500D01*
X60335000Y-61700000D02*
X60335000Y-62902081D01*
X59820000Y-61700000D02*
X59615000Y-61495000D01*
%TO.N,R1.10*%
X62360000Y-61700000D02*
X62155000Y-61495000D01*
X62875000Y-61700000D02*
X62360000Y-61700000D01*
D33*
%TO.N,Vol1*%
X68600000Y-96175000D02*
X69500000Y-95275000D01*
X52950000Y-95325000D02*
X53800000Y-96175000D01*
X53800000Y-96175000D02*
X68600000Y-96175000D01*
%TO.N,Wiper*%
X69410000Y-97865000D02*
X69500000Y-97775000D01*
X52950000Y-97865000D02*
X69410000Y-97865000D01*
%TO.N,Vol3*%
X53800000Y-99555000D02*
X68780000Y-99555000D01*
X52950000Y-100405000D02*
X53800000Y-99555000D01*
X68780000Y-99555000D02*
X69500000Y-100275000D01*
%TO.N,Net-(R8-Pad2)*%
X91575000Y-79965000D02*
X89300000Y-82240000D01*
X76025000Y-124600000D02*
X76100000Y-124525000D01*
X93515000Y-72525000D02*
X93515000Y-74593604D01*
X93515000Y-74593604D02*
X91575000Y-76533604D01*
X76100000Y-98575000D02*
X89350000Y-85325000D01*
X89300000Y-82240000D02*
X89300000Y-85275000D01*
X89300000Y-85275000D02*
X89350000Y-85325000D01*
X76100000Y-124525000D02*
X76100000Y-98575000D01*
X91575000Y-76533604D02*
X91575000Y-79965000D01*
%TO.N,VPP*%
X115700000Y-71025000D02*
X115700000Y-67050000D01*
X90975000Y-70550000D02*
X94540733Y-66984267D01*
X90975000Y-72525000D02*
X90975000Y-70550000D01*
X94540733Y-66984267D02*
X111659267Y-66984267D01*
D32*
%TO.N,R34r*%
X89705000Y-72042183D02*
X89705000Y-72525000D01*
X86062817Y-68400000D02*
X89705000Y-72042183D01*
X81650000Y-68400000D02*
X86062817Y-68400000D01*
%TO.N,R34s*%
X82125000Y-71150000D02*
X87964289Y-71150000D01*
X88435000Y-71620711D02*
X88435000Y-72525000D01*
X77650000Y-66675000D02*
X82125000Y-71150000D01*
X87964289Y-71150000D02*
X88435000Y-71620711D01*
%TO.N,Cal*%
X92245000Y-72042183D02*
X95712183Y-68575000D01*
X95712183Y-68575000D02*
X97375000Y-68575000D01*
X92245000Y-72525000D02*
X92245000Y-72042183D01*
D33*
%TO.N,15m*%
X110775000Y-126425000D02*
X110775000Y-112600000D01*
X52900000Y-105200000D02*
X67035734Y-105200000D01*
X78800000Y-105125000D02*
X78725000Y-105200000D01*
X103300000Y-105125000D02*
X78800000Y-105125000D01*
X67035734Y-105200000D02*
X87165000Y-85070734D01*
X74300000Y-105200000D02*
X67035734Y-105200000D01*
X87165000Y-85070734D02*
X87165000Y-77475000D01*
X110775000Y-112600000D02*
X103300000Y-105125000D01*
%TO.N,20m*%
X72550000Y-101540000D02*
X87565000Y-86525000D01*
X75375000Y-121275000D02*
X75375000Y-122661485D01*
X75387515Y-104377515D02*
X72550000Y-101540000D01*
X87565000Y-86525000D02*
X87565000Y-79335000D01*
X75387515Y-121262485D02*
X75387515Y-104377515D01*
X87565000Y-79335000D02*
X88450000Y-78450000D01*
X75387515Y-121262485D02*
X75375000Y-121275000D01*
%TO.N,R12r*%
X71767110Y-65267110D02*
X74975000Y-68475000D01*
X66625000Y-68375000D02*
X69732890Y-65267110D01*
X74975000Y-68475000D02*
X76875000Y-68475000D01*
X69732890Y-65267110D02*
X71767110Y-65267110D01*
X76875000Y-68475000D02*
X83550000Y-75150000D01*
X83550000Y-75150000D02*
X88925000Y-75150000D01*
X88925000Y-75150000D02*
X89705000Y-75930000D01*
X89705000Y-75930000D02*
X89705000Y-77475000D01*
%TO.N,R12s*%
X62150000Y-66675000D02*
X67450000Y-66675000D01*
X69275000Y-64850000D02*
X72225000Y-64850000D01*
X90975000Y-75475000D02*
X90975000Y-77475000D01*
X82775000Y-72075000D02*
X84950000Y-74250000D01*
X81475000Y-72075000D02*
X82775000Y-72075000D01*
X77350000Y-67950000D02*
X81475000Y-72075000D01*
X72225000Y-64850000D02*
X75325000Y-67950000D01*
X84950000Y-74250000D02*
X89750000Y-74250000D01*
X75325000Y-67950000D02*
X77350000Y-67950000D01*
X67450000Y-66675000D02*
X69275000Y-64850000D01*
X89750000Y-74250000D02*
X90975000Y-75475000D01*
%TO.N,ICSPCLK*%
X92245000Y-77133604D02*
X94453604Y-74925000D01*
X92245000Y-77475000D02*
X92245000Y-77133604D01*
X94453604Y-74925000D02*
X101640000Y-74925000D01*
X101640000Y-74925000D02*
X105540000Y-71025000D01*
%TO.N,ICSPDAT*%
X93515000Y-78840000D02*
X94125000Y-79450000D01*
X94125000Y-79450000D02*
X99655000Y-79450000D01*
X99655000Y-79450000D02*
X108080000Y-71025000D01*
X93515000Y-77475000D02*
X93515000Y-78840000D01*
%TO.N,D1*%
X88750000Y-116975000D02*
X103750000Y-116975000D01*
X86010000Y-120847500D02*
X86010000Y-119715000D01*
X86010000Y-119715000D02*
X88750000Y-116975000D01*
X103750000Y-116975000D02*
X109925000Y-123150000D01*
X109925000Y-123150000D02*
X109925000Y-134005000D01*
X109925000Y-134005000D02*
X108580000Y-135350000D01*
%TO.N,D2*%
X91997000Y-117400500D02*
X103600500Y-117400500D01*
X108932154Y-132457846D02*
X106040000Y-135350000D01*
X103600500Y-117400500D02*
X108932154Y-122732154D01*
X108932154Y-122732154D02*
X108932154Y-132457846D01*
X88550000Y-120847500D02*
X91997000Y-117400500D01*
%TO.N,d*%
X92406469Y-119531031D02*
X103981031Y-119531031D01*
X105106469Y-128663531D02*
X98420000Y-135350000D01*
X103981031Y-119531031D02*
X105106469Y-120656469D01*
X105106469Y-120656469D02*
X105106469Y-128663531D01*
X91090000Y-120847500D02*
X92406469Y-119531031D01*
%TO.N,e*%
X101590635Y-135350000D02*
X105506469Y-131434166D01*
X105506469Y-120490783D02*
X103840686Y-118825000D01*
X103840686Y-118825000D02*
X103815686Y-118800000D01*
X100960000Y-135350000D02*
X101590635Y-135350000D01*
X105506469Y-131434166D02*
X105506469Y-120490783D01*
X103815686Y-118800000D02*
X96200000Y-118800000D01*
%TO.N,D3*%
X93340000Y-128269312D02*
X93340000Y-135350000D01*
X98710000Y-120847500D02*
X98710000Y-122899312D01*
X98710000Y-122899312D02*
X93340000Y-128269312D01*
%TO.N,dp*%
X103875000Y-118250000D02*
X103725500Y-118100500D01*
X105950000Y-132900000D02*
X105950000Y-120325000D01*
X103500000Y-135350000D02*
X105950000Y-132900000D01*
X103725500Y-118100500D02*
X101250000Y-118100500D01*
X105950000Y-120325000D02*
X103875000Y-118250000D01*
%TO.N,D4*%
X103790000Y-120847500D02*
X99211811Y-125425689D01*
X95880000Y-126325688D02*
X95880000Y-135350000D01*
X96779999Y-125425689D02*
X95880000Y-126325688D01*
X99211811Y-125425689D02*
X96779999Y-125425689D01*
%TO.N,f*%
X93400000Y-111750000D02*
X97647500Y-111750000D01*
X90800000Y-135350000D02*
X88035000Y-132585000D01*
X97647500Y-111750000D02*
X98710000Y-110687500D01*
X84935000Y-132585000D02*
X84400000Y-132050000D01*
X88035000Y-132585000D02*
X84935000Y-132585000D01*
X84400000Y-132050000D02*
X84400000Y-120750000D01*
X84400000Y-120750000D02*
X93400000Y-111750000D01*
%TO.N,c*%
X88260000Y-135350000D02*
X86260000Y-133350000D01*
X84375000Y-133350000D02*
X80250000Y-129225000D01*
X80250000Y-124067500D02*
X93630000Y-110687500D01*
X86260000Y-133350000D02*
X84375000Y-133350000D01*
X80250000Y-129225000D02*
X80250000Y-124067500D01*
%TO.N,a*%
X79525000Y-129155000D02*
X79525000Y-122252500D01*
X85720000Y-135350000D02*
X79525000Y-129155000D01*
X79525000Y-122252500D02*
X91090000Y-110687500D01*
%TO.N,g*%
X83180000Y-135350000D02*
X79125000Y-131295000D01*
X79125000Y-120112500D02*
X88550000Y-110687500D01*
X79125000Y-131295000D02*
X79125000Y-120112500D01*
%TO.N,b*%
X80640000Y-135350000D02*
X78725000Y-133435000D01*
X78725000Y-133435000D02*
X78725000Y-117972500D01*
X78725000Y-117972500D02*
X86010000Y-110687500D01*
%TO.N,SW*%
X52750000Y-126235000D02*
X68440000Y-126235000D01*
X73500000Y-120425000D02*
X73500000Y-129095000D01*
X68440000Y-126235000D02*
X72400000Y-130195000D01*
X77555000Y-135350000D02*
X78100000Y-135350000D01*
X72475000Y-119400000D02*
X73500000Y-120425000D01*
X73500000Y-129095000D02*
X72400000Y-130195000D01*
X72400000Y-130195000D02*
X77555000Y-135350000D01*
D32*
%TO.N,Dit*%
X109092900Y-83507100D02*
X112325000Y-83507100D01*
X98425000Y-97250000D02*
X98425000Y-94175000D01*
X98425000Y-94175000D02*
X109092900Y-83507100D01*
%TO.N,Dah*%
X103505000Y-97027100D02*
X103505000Y-97250000D01*
X107525000Y-93007100D02*
X103505000Y-97027100D01*
%TD*%
M02*
