M48
; DRILL file {KiCad (6.0.7)} date Wed Mar  8 11:16:55 2023
; FORMAT={-:-/ absolute / metric / decimal}
; #@! TF.CreationDate,2023-03-08T11:16:55-08:00
; #@! TF.GenerationSoftware,Kicad,Pcbnew,(6.0.7)
; #@! TF.FileFunction,Plated,1,2,PTH
FMAT,2
METRIC
; #@! TA.AperFunction,Plated,PTH,ViaDrill
T1C0.400
; #@! TA.AperFunction,Plated,PTH,ComponentDrill
T2C0.550
; #@! TA.AperFunction,Plated,PTH,ComponentDrill
T3C0.700
; #@! TA.AperFunction,Plated,PTH,ComponentDrill
T4C0.800
; #@! TA.AperFunction,Plated,PTH,ComponentDrill
T5C0.890
; #@! TA.AperFunction,Plated,PTH,ComponentDrill
T6C0.900
; #@! TA.AperFunction,Plated,PTH,ComponentDrill
T7C1.000
; #@! TA.AperFunction,Plated,PTH,ComponentDrill
T8C1.100
; #@! TA.AperFunction,Plated,PTH,ComponentDrill
T9C2.000
; #@! TA.AperFunction,Plated,PTH,ComponentDrill
T10C2.010
; #@! TA.AperFunction,Plated,PTH,ComponentDrill
T11C2.600
%
G90
G05
T1
X65.3Y-67.374
X66.625Y-136.5
X68.75Y-135.7
X71.818Y-66.307
X73.675Y-68.2
X74.3Y-105.2
X75.375Y-122.661
X78.725Y-105.2
X96.2Y-118.8
X101.25Y-118.1
X110.775Y-126.425
X111.7Y-67.05
X115.7Y-67.05
T2
X106.275Y-61.38
X106.275Y-62.65
X106.275Y-63.92
T3
X86.01Y-110.688
X86.01Y-120.847
X88.55Y-110.688
X88.55Y-120.847
X91.09Y-110.688
X91.09Y-120.847
X93.63Y-110.688
X93.63Y-120.847
X96.17Y-120.847
X98.71Y-110.688
X98.71Y-120.847
X101.25Y-120.847
X103.79Y-110.688
X103.79Y-120.847
T4
X52.75Y-118.615
X52.75Y-126.235
X52.9Y-105.2
X52.9Y-112.82
X54.53Y-66.675
X59.75Y-132.925
X59.75Y-135.425
X62.15Y-66.675
X64.75Y-132.8
X64.75Y-135.3
X66.625Y-68.375
X66.625Y-75.995
X70.03Y-66.675
X72.4Y-122.575
X72.4Y-130.195
X72.475Y-111.78
X72.475Y-119.4
X72.55Y-101.54
X72.55Y-109.16
X77.65Y-66.675
X81.65Y-68.4
X81.65Y-76.02
X86.0Y-123.865
X86.0Y-131.485
X89.3Y-82.24
X89.3Y-89.86
X97.525Y-73.825
X97.525Y-76.325
X101.5Y-61.525
X101.5Y-64.025
X103.9Y-123.865
X103.9Y-131.485
X111.507Y-59.225
X114.007Y-59.225
T5
X89.51Y-62.466
X92.05Y-62.466
T6
X55.275Y-70.25
X55.275Y-72.85
X55.275Y-75.45
X58.8Y-107.375
X58.8Y-109.975
X58.8Y-112.575
X61.8Y-70.175
X61.8Y-72.775
X61.8Y-75.375
X66.5Y-107.225
X66.5Y-109.825
X66.5Y-112.425
X70.55Y-70.175
X70.55Y-72.775
X70.55Y-75.375
X76.675Y-70.2
X76.675Y-72.8
X76.675Y-75.4
X89.875Y-126.875
X92.415Y-126.875
X97.6Y-126.925
X100.14Y-126.925
T7
X52.95Y-95.325
X52.95Y-97.865
X52.95Y-100.405
X55.245Y-54.08
X55.25Y-79.48
X55.255Y-61.7
X55.26Y-87.09
X57.785Y-54.08
X57.79Y-79.48
X57.795Y-61.7
X57.8Y-87.09
X59.725Y-115.9
X59.725Y-130.4
X60.325Y-54.08
X60.33Y-79.48
X60.335Y-61.7
X60.34Y-87.09
X62.225Y-130.4
X62.865Y-54.08
X62.87Y-79.48
X62.875Y-61.7
X62.88Y-87.09
X64.725Y-115.9
X64.725Y-130.4
X65.405Y-54.08
X65.41Y-79.48
X65.415Y-61.7
X65.42Y-87.09
X69.5Y-95.275
X69.5Y-97.775
X69.5Y-100.275
X70.485Y-54.08
X70.49Y-79.48
X70.495Y-61.7
X70.5Y-87.09
X73.025Y-54.08
X73.03Y-79.48
X73.035Y-61.7
X73.04Y-87.09
X75.565Y-54.08
X75.57Y-79.48
X75.575Y-61.7
X75.58Y-87.09
X78.1Y-135.35
X78.105Y-54.08
X78.11Y-79.48
X78.115Y-61.7
X78.12Y-87.09
X80.64Y-135.35
X80.645Y-54.08
X80.65Y-79.48
X80.655Y-61.7
X80.66Y-87.09
X83.18Y-135.35
X85.72Y-135.35
X88.26Y-135.35
X90.8Y-135.35
X93.34Y-135.35
X95.88Y-135.35
X97.375Y-68.575
X97.375Y-71.115
X98.42Y-135.35
X98.425Y-97.25
X100.96Y-135.35
X100.965Y-97.25
X103.0Y-71.025
X103.5Y-135.35
X103.505Y-97.25
X105.54Y-71.025
X106.04Y-135.35
X108.08Y-71.025
X108.58Y-135.35
X110.62Y-71.025
X111.12Y-135.35
X113.16Y-71.025
X113.66Y-135.35
X115.7Y-71.025
X116.2Y-135.35
T8
X76.025Y-124.6
X76.025Y-129.1
X82.525Y-124.6
X82.525Y-129.1
X107.25Y-124.5
X107.25Y-129.0
X113.75Y-124.5
X113.75Y-129.0
T9
X107.525Y-93.007
X112.325Y-83.507
X115.825Y-88.007
T10
X86.97Y-57.386
X97.13Y-57.386
T11
X56.525Y-122.9
X67.925Y-122.9
T0
M30
